<?xml version="1.0" encoding="utf-8"?>
<!-- Generator: Adobe Illustrator 23.0.1, SVG Export Plug-In . SVG Version: 6.00 Build 0)  -->
<svg version="1.1" id="Layer_1" xmlns="http://www.w3.org/2000/svg" xmlns:xlink="http://www.w3.org/1999/xlink" x="0px"
     y="0px"
     viewBox="0 0 10 10.6" style="enable-background:new 0 0 10 10.6;" xml:space="preserve">
<style type="text/css">
	.st0{fill-rule:evenodd;clip-rule:evenodd;fill:#F08377;}
</style>
    <title>08_alert_red</title>
    <desc>Created with Sketch.</desc>
    <g id="Page-1">
	<g>
		<path id="Page-1-Copy-25" class="st0" d="M9.3,7.5H8.7V5.1c0-1.8-1.3-3.3-2.9-3.7c0.1-0.1,0.1-0.3,0.1-0.5v0C5.9,0.4,5.5,0,5,0
			C4.5,0,4.1,0.4,4.1,0.9v0c0,0.2,0.1,0.4,0.1,0.5C2.6,1.8,1.3,3.3,1.3,5.1v2.4l-0.6,0C0.3,7.5,0,7.8,0,8.2S0.3,9,0.7,9h3.3v0.6
			c0,0.6,0.4,1,0.9,1s0.9-0.5,0.9-1V9h3.3C9.7,9,10,8.6,10,8.2C10,7.8,9.7,7.5,9.3,7.5L9.3,7.5z"/>
	</g>
</g>
</svg>
