<?xml version="1.0" encoding="UTF-8"?>
<svg width="21px" height="21px" viewBox="0 0 21 21" version="1.1" xmlns="http://www.w3.org/2000/svg"
     xmlns:xlink="http://www.w3.org/1999/xlink">
    <!-- Generator: Sketch 43.2 (39069) - http://www.bohemiancoding.com/sketch -->
    <title>17_calendar_hover</title>
    <desc>Created with Sketch.</desc>
    <defs></defs>
    <g id="Page-1" stroke="none" stroke-width="1" fill="none" fill-rule="evenodd">
        <g id="17_calendar_hover" fill="#F08377">
            <g id="Page-1-Copy-42" transform="translate(1.500000, 1.000000)">
                <path d="M16.9133245,2.33541493 L15.1463679,2.33541493 L15.1463679,4.85729957 C15.1463679,5.6824359 14.5138096,6.34171369 13.719585,6.34171369 L13.2697626,6.34171369 C12.4755381,6.34171369 11.8429797,5.6824359 11.8429797,4.85729957 L11.8429797,2.33541493 L6.43107573,2.33541493 L6.43107573,4.85729957 C6.43107573,5.6824359 5.78657011,6.34171369 4.9930473,6.34171369 L4.54322484,6.34171369 C3.74970204,6.34171369 3.09254741,5.6824359 3.09254741,4.85729957 L3.09254741,2.33541493 L1.07950211,2.33541493 C0.485592523,2.33541493 -7.17261526e-05,2.8541142 -7.17261526e-05,3.47121664 L-7.17261526e-05,17.8711128 C-7.17261526e-05,18.4882153 0.485592523,18.992862 1.07950211,18.992862 L16.9132525,18.992862 C17.5071621,18.992862 17.9928264,18.4882153 17.9928264,17.8711128 L17.9928264,3.47121664 C17.9928264,2.8541142 17.5071621,2.33541493 16.9132525,2.33541493 L16.9133245,2.33541493 Z M5.62278076,16.0494222 C5.62278076,16.277842 5.43793971,16.4627011 5.20950187,16.4627011 L2.87330394,16.4627011 C2.6448841,16.4627011 2.46002506,16.27786 2.46002506,16.0494222 L2.46002506,14.2044304 L2.46002506,14.2051339 C2.46002506,13.976714 2.6448661,13.791855 2.87330394,13.791855 L5.21022159,13.791855 L5.20951807,13.791855 C5.43793791,13.791855 5.62279695,13.9766961 5.62279695,14.2051339 L5.62279695,16.0501257 L5.62278076,16.0494222 Z M5.62278076,11.5862837 C5.62278076,11.8147036 5.43793971,11.9995626 5.20950187,11.9995626 L2.87330394,11.9995626 C2.6448841,11.9995626 2.46002506,11.8147216 2.46002506,11.5862837 L2.46002506,9.74129192 L2.46002506,9.74199544 C2.46002506,9.51357559 2.6448661,9.32871656 2.87330394,9.32871656 L5.21022159,9.32871656 L5.20951807,9.32871656 C5.43793791,9.32871656 5.62279695,9.5135576 5.62279695,9.74199544 L5.62279695,11.5869872 L5.62278076,11.5862837 Z M10.5778451,16.0494222 C10.5778451,16.277842 10.393004,16.4627011 10.1645662,16.4627011 L7.82764852,16.4627011 L7.82835204,16.4627011 C7.5999322,16.4627011 7.41507316,16.27786 7.41507316,16.0494222 L7.41507316,14.2044304 L7.41507316,14.2051339 C7.41507316,13.976714 7.59991421,13.791855 7.82835204,13.791855 L10.1652697,13.791855 L10.1645662,13.791855 C10.392986,13.791855 10.5778451,13.9766961 10.5778451,14.2051339 L10.5778451,16.0501257 L10.5778451,16.0494222 Z M10.5778451,11.5862837 C10.5778451,11.8147036 10.393004,11.9995626 10.1645662,11.9995626 L7.82764852,11.9995626 L7.82835204,11.9995626 C7.5999322,11.9995626 7.41507316,11.8147216 7.41507316,11.5862837 L7.41507316,9.74129192 L7.41507316,9.74199544 C7.41507316,9.51357559 7.59991421,9.32871656 7.82835204,9.32871656 L10.1652697,9.32871656 L10.1645662,9.32871656 C10.392986,9.32871656 10.5778451,9.5135576 10.5778451,9.74199544 L10.5778451,11.5869872 L10.5778451,11.5862837 Z M15.6383477,16.0494222 C15.6383477,16.277842 15.4535067,16.4627011 15.2250688,16.4627011 L12.8881512,16.4627011 L12.8888547,16.4627011 C12.6604349,16.4627011 12.4755758,16.27786 12.4755758,16.0494222 L12.4755758,14.2044304 L12.4755758,14.2051339 C12.4755758,13.976714 12.6604169,13.791855 12.8888547,13.791855 L15.2257724,13.791855 L15.2250688,13.791855 C15.4534887,13.791855 15.6383477,13.9766961 15.6383477,14.2051339 L15.6383477,16.0501257 L15.6383477,16.0494222 Z M15.6383477,11.5862837 C15.6383477,11.8147036 15.4535067,11.9995626 15.2250688,11.9995626 L12.8881512,11.9995626 L12.8888547,11.9995626 C12.6604349,11.9995626 12.4755758,11.8147216 12.4755758,11.5862837 L12.4755758,9.74129192 L12.4755758,9.74199544 C12.4755758,9.51357559 12.6604169,9.32871656 12.8888547,9.32871656 L15.2257724,9.32871656 L15.2250688,9.32871656 C15.4534887,9.32871656 15.6383477,9.5135576 15.6383477,9.74199544 L15.6383477,11.5869872 L15.6383477,11.5862837 Z"
                      id="Fill-1"></path>
                <path d="M4.99302931,4.70910137 C5.43934316,4.70910137 5.7984994,4.32254195 5.7984994,3.85724559 L5.7984994,0.841995675 C5.7984994,0.377419037 5.43934316,-1.79928984e-05 4.99302931,-1.79928984e-05 L4.54320685,-1.79928984e-05 C4.09689301,-1.79928984e-05 3.72508775,0.377419037 3.72508775,0.841995675 L3.72508775,3.85796531 C3.72508775,4.32254195 4.09689301,4.70911937 4.54320685,4.70911937 L4.99302931,4.70910137 Z"
                      id="Fill-2"></path>
                <path d="M13.719585,4.70910137 C14.1658989,4.70910137 14.5138096,4.32254195 14.5138096,3.85724559 L14.5138096,0.841275959 C14.5138096,0.377401044 14.1658989,-3.59857968e-05 13.719585,-3.59857968e-05 L13.2697626,-3.59857968e-05 C12.8234487,-3.59857968e-05 12.4755381,0.377401044 12.4755381,0.841275959 L12.4755381,3.85724559 C12.4755381,4.32252395 12.8234487,4.70910137 13.2697626,4.70910137 L13.719585,4.70910137 Z"
                      id="Fill-3"></path>
            </g>
        </g>
    </g>
</svg>