<?xml version="1.0" encoding="utf-8"?>
<!-- Generator: Adobe Illustrator 23.0.1, SVG Export Plug-In . SVG Version: 6.00 Build 0)  -->
<svg version="1.1" id="Layer_1" xmlns="http://www.w3.org/2000/svg" xmlns:xlink="http://www.w3.org/1999/xlink" x="0px"
     y="0px"
     viewBox="0 0 15.5 15.9" style="enable-background:new 0 0 15.5 15.9;" xml:space="preserve">
<style type="text/css">
	.st0{opacity:0.7;}
	.st1{fill-rule:evenodd;clip-rule:evenodd;fill:#A9A6B2;}
</style>
    <title>01_calendar_grey</title>
    <desc>Created with Sketch.</desc>
    <g id="Page-1" class="st0">
	<g>
		<g id="Page-1-Copy-7" transform="translate(1.250000, 1.409903)">
			<g id="Group">
				<path id="Fill-1" class="st1" d="M0.7,14.4h11.7c1.1,0,1.9-0.9,1.9-1.9V2.1c0-1.1-0.9-1.9-1.9-1.9h0v0.9c0,0.7-0.5,1.2-1.2,1.2
					H11c-0.7,0-1.2-0.5-1.2-1.2V0.2l-6.7,0v0.9c0,0.7-0.5,1.2-1.2,1.2l-0.1,0c-0.7,0-1.2-0.5-1.2-1.2V0.2h0c-1.1,0-1.9,0.9-1.9,1.9
					v10.4C-1.2,13.6-0.4,14.4,0.7,14.4L0.7,14.4z M-0.2,4.4h13.3v8.1c0,0.4-0.4,0.8-0.8,0.8H0.7c-0.4,0-0.8-0.4-0.8-0.8L-0.2,4.4z"
                />
                <polygon id="Fill-2" class="st1" points="1.1,7.3 3.4,7.3 3.4,5.4 1.1,5.4 				"/>
                <polygon id="Fill-3" class="st1" points="4,7.3 6.2,7.3 6.2,5.4 4,5.4 				"/>
                <polygon id="Fill-4" class="st1" points="6.8,7.3 9.1,7.3 9.1,5.4 6.8,5.4 				"/>
                <polygon id="Fill-5" class="st1" points="9.6,7.3 11.9,7.3 11.9,5.4 9.6,5.4 				"/>
                <polygon id="Fill-6" class="st1" points="1.1,9.6 3.4,9.6 3.4,7.8 1.1,7.8 				"/>
                <polygon id="Fill-7" class="st1" points="4,9.6 6.2,9.6 6.2,7.8 4,7.8 				"/>
                <polygon id="Fill-8" class="st1" points="6.8,9.6 9.1,9.6 9.1,7.8 6.8,7.8 				"/>
                <polygon id="Fill-9" class="st1" points="9.6,9.6 11.9,9.6 11.9,7.8 9.6,7.8 				"/>
                <polygon id="Fill-10" class="st1" points="1.1,12 3.4,12 3.4,10.2 1.1,10.2 				"/>
                <polygon id="Fill-11" class="st1" points="4,12 6.2,12 6.2,10.2 4,10.2 				"/>
                <polygon id="Fill-12" class="st1" points="6.8,12 9.1,12 9.1,10.2 6.8,10.2 				"/>
                <polygon id="Fill-13" class="st1" points="9.6,12 11.9,12 11.9,10.2 9.6,10.2 				"/>
                <path id="Fill-14" class="st1" d="M2,1.8c0.4,0,0.7-0.3,0.7-0.7v-1.8c0-0.4-0.3-0.7-0.7-0.7H1.9c-0.4,0-0.7,0.3-0.7,0.7v1.8
					c0,0.4,0.3,0.7,0.7,0.7L2,1.8z"/>
                <path id="Fill-15" class="st1" d="M11.2,1.8c0.4,0,0.7-0.3,0.7-0.7v-1.8c0-0.4-0.3-0.7-0.7-0.7H11c-0.4,0-0.7,0.3-0.7,0.7v1.8
					c0,0.4,0.3,0.7,0.7,0.7L11.2,1.8z"/>
			</g>
		</g>
	</g>
</g>
</svg>
