<?xml version="1.0" encoding="utf-8"?>
<!-- Generator: Adobe Illustrator 23.0.1, SVG Export Plug-In . SVG Version: 6.00 Build 0)  -->
<svg version="1.1" id="Layer_1" xmlns="http://www.w3.org/2000/svg" xmlns:xlink="http://www.w3.org/1999/xlink" x="0px"
     y="0px"
     viewBox="0 0 41.4 32" style="enable-background:new 0 0 41.4 32;" xml:space="preserve">
<style type="text/css">
	.st0{fill-rule:evenodd;clip-rule:evenodd;fill:#F2F6F7;}
	.st1{fill:#82ACB4;}
	.st2{fill-rule:evenodd;clip-rule:evenodd;fill:#82ACB4;}
</style>
    <title>14_calendar_icon</title>
    <desc>Created with Sketch.</desc>
    <g>
	<rect id="path-1_1_" x="30" y="11" class="st0" width="11.4" height="8"/>
</g>
    <circle id="Oval-Copy-3_1_" class="st0" cx="16" cy="16" r="15"/>
    <path class="st1" d="M16,32C7.2,32,0,24.8,0,16S7.2,0,16,0s16,7.2,16,16S24.8,32,16,32z M16,2C8.3,2,2,8.3,2,16s6.3,14,14,14
	s14-6.3,14-14S23.7,2,16,2z"/>
    <polygon class="st1" points="41.4,17 32,17 32,13 41.4,13 41.4,11 30,11 30,19 41.4,19 "/>
    <g id="Page-1-Copy-38" transform="translate(10.657895, 8.763158)">
	<g id="Group">
		<path id="Fill-1" class="st2" d="M0.2,14.2h11.1c1,0,1.8-0.8,1.8-1.8V2.6c0-1-0.8-1.8-1.8-1.8h0v0.9c0,0.6-0.5,1.1-1.1,1.1H10
			c-0.6,0-1.1-0.5-1.1-1.1V0.8l-6.3,0v0.9c0,0.6-0.5,1.1-1.1,1.1l-0.1,0c-0.6,0-1.1-0.5-1.1-1.1V0.8h0c-1,0-1.8,0.8-1.8,1.8v9.9
			C-1.6,13.4-0.8,14.2,0.2,14.2L0.2,14.2z M-0.6,4.7H12v7.7c0,0.4-0.3,0.8-0.8,0.8H0.2c-0.4,0-0.8-0.3-0.8-0.8L-0.6,4.7z"/>
        <polygon id="Fill-2" class="st2" points="0.6,7.4 2.8,7.4 2.8,5.7 0.6,5.7 		"/>
        <polygon id="Fill-3" class="st2" points="3.3,7.4 5.4,7.4 5.4,5.7 3.3,5.7 		"/>
        <polygon id="Fill-4" class="st2" points="6,7.4 8.1,7.4 8.1,5.7 6,5.7 		"/>
        <polygon id="Fill-5" class="st2" points="8.6,7.4 10.8,7.4 10.8,5.7 8.6,5.7 		"/>
        <polygon id="Fill-6" class="st2" points="0.6,9.7 2.8,9.7 2.8,8 0.6,8 		"/>
        <polygon id="Fill-7" class="st2" points="3.3,9.7 5.4,9.7 5.4,8 3.3,8 		"/>
        <polygon id="Fill-8" class="st2" points="6,9.7 8.1,9.7 8.1,8 6,8 		"/>
        <polygon id="Fill-9" class="st2" points="8.6,9.7 10.8,9.7 10.8,8 8.6,8 		"/>
        <polygon id="Fill-10" class="st2" points="0.6,11.9 2.8,11.9 2.8,10.2 0.6,10.2 		"/>
        <polygon id="Fill-11" class="st2" points="3.3,11.9 5.4,11.9 5.4,10.2 3.3,10.2 		"/>
        <polygon id="Fill-12" class="st2" points="6,11.9 8.1,11.9 8.1,10.2 6,10.2 		"/>
        <polygon id="Fill-13" class="st2" points="8.6,11.9 10.8,11.9 10.8,10.2 8.6,10.2 		"/>
        <path id="Fill-14" class="st2" d="M1.4,2.3c0.4,0,0.6-0.3,0.6-0.6v-1.7c0-0.4-0.3-0.6-0.6-0.6H1.3C1-0.8,0.7-0.5,0.7-0.1v1.7
			C0.7,2,1,2.3,1.3,2.3L1.4,2.3z"/>
        <path id="Fill-15" class="st2" d="M10.1,2.3c0.4,0,0.6-0.3,0.6-0.6v-1.7c0-0.4-0.3-0.6-0.6-0.6H10c-0.4,0-0.6,0.3-0.6,0.6v1.7
			C9.3,2,9.6,2.3,10,2.3L10.1,2.3z"/>
	</g>
</g>
</svg>
