<?xml version="1.0" encoding="utf-8"?>
<!-- Generator: Adobe Illustrator 23.0.1, SVG Export Plug-In . SVG Version: 6.00 Build 0)  -->
<svg version="1.1" id="Layer_1" xmlns="http://www.w3.org/2000/svg" xmlns:xlink="http://www.w3.org/1999/xlink" x="0px"
     y="0px"
     viewBox="0 0 17 16" style="enable-background:new 0 0 17 16;" xml:space="preserve">
<style type="text/css">
	.st0{fill-rule:evenodd;clip-rule:evenodd;fill:#AA9DCC;}
</style>
    <title>02_calendar_purple</title>
    <desc>Created with Sketch.</desc>
    <g id="Page-1">
	<g>
		<g id="Group-5-Copy" transform="translate(1.000000, 1.250000)">
			<path id="Fill-1" class="st0" d="M15,0.7h-1.7v2.1c0,0.7-0.6,1.3-1.3,1.3h-0.4c-0.8,0-1.3-0.6-1.3-1.3V0.7H5.1v2.1
				c0,0.7-0.6,1.3-1.4,1.3H3.3c-0.7,0-1.4-0.6-1.4-1.3V0.7H0c-0.6,0-1,0.4-1,1v12.1c0,0.5,0.5,0.9,1,0.9h15c0.6,0,1-0.4,1-0.9V1.7
				C16,1.2,15.5,0.7,15,0.7L15,0.7z M4.3,12.3c0,0.2-0.2,0.3-0.4,0.3H1.7c-0.2,0-0.4-0.2-0.4-0.3v-1.6v0c0-0.2,0.2-0.3,0.4-0.3h2.2
				h0c0.2,0,0.4,0.2,0.4,0.3L4.3,12.3L4.3,12.3z M4.3,8.5c0,0.2-0.2,0.3-0.4,0.3H1.7c-0.2,0-0.4-0.2-0.4-0.3V7v0
				c0-0.2,0.2-0.3,0.4-0.3h2.2h0c0.2,0,0.4,0.2,0.4,0.3L4.3,8.5L4.3,8.5z M9,12.3c0,0.2-0.2,0.3-0.4,0.3H6.4h0
				c-0.2,0-0.4-0.2-0.4-0.3v-1.6v0c0-0.2,0.2-0.3,0.4-0.3h2.2h0c0.2,0,0.4,0.2,0.4,0.3V12.3L9,12.3z M9,8.5c0,0.2-0.2,0.3-0.4,0.3
				H6.4h0C6.2,8.9,6,8.7,6,8.5V7v0c0-0.2,0.2-0.3,0.4-0.3h2.2h0C8.8,6.6,9,6.8,9,7V8.5L9,8.5z M13.8,12.3c0,0.2-0.2,0.3-0.4,0.3
				h-2.2h0c-0.2,0-0.4-0.2-0.4-0.3v-1.6v0c0-0.2,0.2-0.3,0.4-0.3h2.2h0c0.2,0,0.4,0.2,0.4,0.3V12.3L13.8,12.3z M13.8,8.5
				c0,0.2-0.2,0.3-0.4,0.3h-2.2h0c-0.2,0-0.4-0.2-0.4-0.3V7v0c0-0.2,0.2-0.3,0.4-0.3h2.2h0c0.2,0,0.4,0.2,0.4,0.3V8.5L13.8,8.5z"/>
            <path id="Fill-2" class="st0" d="M3.7,2.7c0.4,0,0.8-0.3,0.8-0.7v-2.5c0-0.4-0.3-0.7-0.8-0.7H3.3c-0.4,0-0.8,0.3-0.8,0.7V2
				c0,0.4,0.4,0.7,0.8,0.7L3.7,2.7z"/>
            <path id="Fill-3" class="st0" d="M12,2.7c0.4,0,0.8-0.3,0.8-0.7v-2.5c0-0.4-0.3-0.7-0.8-0.7h-0.4c-0.4,0-0.8,0.3-0.8,0.7V2
				c0,0.4,0.3,0.7,0.8,0.7H12z"/>
		</g>
	</g>
</g>
</svg>
