<?xml version="1.0" encoding="utf-8"?>
<svg version="1.1" id="Layer_1" xmlns="http://www.w3.org/2000/svg" xmlns:xlink="http://www.w3.org/1999/xlink" x="0px"
     y="0px"
     viewBox="0 0 18 19" style="enable-background:new 0 0 18 19;" xml:space="preserve">
    <title>Calendar Icon</title>
  <g id="Page-1-Copy-42" transform="translate(1.500000, 1.000000)">
			<path id="Fill-1" class="st0" d="M15.4,1.3h-1.8v2.5c0,0.8-0.6,1.5-1.4,1.5h-0.4c-0.8,0-1.4-0.7-1.4-1.5V1.3H4.9v2.5
				c0,0.8-0.6,1.5-1.4,1.5H3c-0.8,0-1.5-0.7-1.5-1.5V1.3h-2c-0.6,0-1.1,0.5-1.1,1.1v14.4c0,0.6,0.5,1.1,1.1,1.1h15.8
				c0.6,0,1.1-0.5,1.1-1.1V2.5C16.5,1.9,16,1.3,15.4,1.3L15.4,1.3z M4.1,15c0,0.2-0.2,0.4-0.4,0.4H1.4C1.1,15.5,1,15.3,1,15v-1.8v0
				c0-0.2,0.2-0.4,0.4-0.4h2.3h0c0.2,0,0.4,0.2,0.4,0.4L4.1,15L4.1,15z M4.1,10.6c0,0.2-0.2,0.4-0.4,0.4H1.4C1.1,11,1,10.8,1,10.6
				V8.7v0c0-0.2,0.2-0.4,0.4-0.4h2.3h0c0.2,0,0.4,0.2,0.4,0.4L4.1,10.6L4.1,10.6z M9.1,15c0,0.2-0.2,0.4-0.4,0.4H6.3h0
				c-0.2,0-0.4-0.2-0.4-0.4v-1.8v0c0-0.2,0.2-0.4,0.4-0.4h2.3h0c0.2,0,0.4,0.2,0.4,0.4V15L9.1,15z M9.1,10.6c0,0.2-0.2,0.4-0.4,0.4
				H6.3h0c-0.2,0-0.4-0.2-0.4-0.4V8.7v0c0-0.2,0.2-0.4,0.4-0.4h2.3h0c0.2,0,0.4,0.2,0.4,0.4V10.6L9.1,10.6z M14.1,15
				c0,0.2-0.2,0.4-0.4,0.4h-2.3h0c-0.2,0-0.4-0.2-0.4-0.4v-1.8v0c0-0.2,0.2-0.4,0.4-0.4h2.3h0c0.2,0,0.4,0.2,0.4,0.4V15L14.1,15z
				 M14.1,10.6c0,0.2-0.2,0.4-0.4,0.4h-2.3h0c-0.2,0-0.4-0.2-0.4-0.4V8.7v0c0-0.2,0.2-0.4,0.4-0.4h2.3h0c0.2,0,0.4,0.2,0.4,0.4V10.6
				L14.1,10.6z"/>
    <path id="Fill-2" class="st0" d="M3.5,3.7c0.4,0,0.8-0.4,0.8-0.9v-3C4.3-0.6,3.9-1,3.5-1H3C2.6-1,2.2-0.6,2.2-0.2v3
				c0,0.5,0.4,0.9,0.8,0.9L3.5,3.7z"/>
    <path id="Fill-3" class="st0" d="M12.2,3.7c0.4,0,0.8-0.4,0.8-0.9v-3C13-0.6,12.7-1,12.2-1h-0.4C11.3-1,11-0.6,11-0.2v3
				c0,0.5,0.3,0.9,0.8,0.9H12.2z"/>
		</g>
</svg>
