<?xml version="1.0" encoding="utf-8"?>
<!-- Generator: Adobe Illustrator 23.0.1, SVG Export Plug-In . SVG Version: 6.00 Build 0)  -->
<svg version="1.1" id="Layer_1" xmlns="http://www.w3.org/2000/svg" xmlns:xlink="http://www.w3.org/1999/xlink" x="0px"
     y="0px"
     viewBox="0 0 14.7 15" style="enable-background:new 0 0 14.7 15;" xml:space="preserve">
<style type="text/css">
	.st0{fill-rule:evenodd;clip-rule:evenodd;fill:#94A6B5;}
</style>
    <title>06_calendar</title>
    <desc>Created with Sketch.</desc>
    <g id="Page-1">
	<g>
		<g id="Page-1-Copy-22" transform="translate(1.000000, 0.750000)">
			<g id="Group">
				<path id="Fill-1" class="st0" d="M0.8,14.2h11.1c1,0,1.8-0.8,1.8-1.8V2.6c0-1-0.8-1.8-1.8-1.8h0v0.9c0,0.6-0.5,1.1-1.1,1.1h-0.1
					c-0.6,0-1.1-0.5-1.1-1.1V0.8l-6.3,0v0.9c0,0.6-0.5,1.1-1.1,1.1l-0.1,0c-0.6,0-1.1-0.5-1.1-1.1V0.8h0c-1,0-1.8,0.8-1.8,1.8v9.9
					C-1,13.4-0.2,14.2,0.8,14.2L0.8,14.2z M0,4.7h12.6v7.7c0,0.4-0.3,0.8-0.8,0.8H0.8c-0.4,0-0.8-0.3-0.8-0.8L0,4.7z"/>
                <polygon id="Fill-2" class="st0" points="1.2,7.4 3.4,7.4 3.4,5.7 1.2,5.7 				"/>
                <polygon id="Fill-3" class="st0" points="3.9,7.4 6.1,7.4 6.1,5.7 3.9,5.7 				"/>
                <polygon id="Fill-4" class="st0" points="6.6,7.4 8.7,7.4 8.7,5.7 6.6,5.7 				"/>
                <polygon id="Fill-5" class="st0" points="9.3,7.4 11.4,7.4 11.4,5.7 9.3,5.7 				"/>
                <polygon id="Fill-6" class="st0" points="1.2,9.7 3.4,9.7 3.4,8 1.2,8 				"/>
                <polygon id="Fill-7" class="st0" points="3.9,9.7 6.1,9.7 6.1,8 3.9,8 				"/>
                <polygon id="Fill-8" class="st0" points="6.6,9.7 8.7,9.7 8.7,8 6.6,8 				"/>
                <polygon id="Fill-9" class="st0" points="9.3,9.7 11.4,9.7 11.4,8 9.3,8 				"/>
                <polygon id="Fill-10" class="st0" points="1.2,11.9 3.4,11.9 3.4,10.2 1.2,10.2 				"/>
                <polygon id="Fill-11" class="st0" points="3.9,11.9 6.1,11.9 6.1,10.2 3.9,10.2 				"/>
                <polygon id="Fill-12" class="st0" points="6.6,11.9 8.7,11.9 8.7,10.2 6.6,10.2 				"/>
                <polygon id="Fill-13" class="st0" points="9.3,11.9 11.4,11.9 11.4,10.2 9.3,10.2 				"/>
                <path id="Fill-14" class="st0" d="M2.1,2.3c0.4,0,0.6-0.3,0.6-0.6v-1.7c0-0.4-0.3-0.6-0.6-0.6H1.9c-0.4,0-0.6,0.3-0.6,0.6v1.7
					c0,0.4,0.3,0.6,0.6,0.6L2.1,2.3z"/>
                <path id="Fill-15" class="st0" d="M10.7,2.3c0.4,0,0.6-0.3,0.6-0.6v-1.7c0-0.4-0.3-0.6-0.6-0.6h-0.1c-0.4,0-0.6,0.3-0.6,0.6v1.7
					c0,0.4,0.3,0.6,0.6,0.6L10.7,2.3z"/>
			</g>
		</g>
	</g>
</g>
</svg>
