<?xml version="1.0" encoding="UTF-8"?>
<svg width="19px" height="19px" viewBox="0 0 19 19" version="1.1" xmlns="http://www.w3.org/2000/svg"
     xmlns:xlink="http://www.w3.org/1999/xlink">
    <!-- Generator: Sketch 43.2 (39069) - http://www.bohemiancoding.com/sketch -->
    <title>02_calendar_purple_hover</title>
    <desc>Created with Sketch.</desc>
    <defs></defs>
    <g id="Page-1" stroke="none" stroke-width="1" fill="none" fill-rule="evenodd">
        <g id="02_calendar_purple_hover" fill="#8D74CC">
            <g id="Group-5-Copy" transform="translate(1.000000, 1.250000)">
                <path d="M15.9736954,1.9666652 L14.304903,1.9666652 L14.304903,4.09035753 C14.304903,4.78520918 13.7074868,5.34039048 12.9573859,5.34039048 L12.5325536,5.34039048 C11.7824526,5.34039048 11.1850364,4.78520918 11.1850364,4.09035753 L11.1850364,1.9666652 L6.07379375,1.9666652 L6.07379375,4.09035753 C6.07379375,4.78520918 5.46509399,5.34039048 4.71565579,5.34039048 L4.29082346,5.34039048 C3.54138526,5.34039048 2.92073922,4.78520918 2.92073922,4.09035753 L2.92073922,1.9666652 L1.01952977,1.9666652 C0.45861516,1.9666652 -6.77413674e-05,2.40346459 -6.77413674e-05,2.9231298 L-6.77413674e-05,15.0493582 C-6.77413674e-05,15.5690234 0.45861516,15.9939891 1.01952977,15.9939891 L15.9736274,15.9939891 C16.534542,15.9939891 16.993225,15.5690234 16.993225,15.0493582 L16.993225,2.9231298 C16.993225,2.40346459 16.534542,1.9666652 15.9736274,1.9666652 L15.9736954,1.9666652 Z M5.31040405,13.5153029 C5.31040405,13.7076564 5.13583195,13.8633272 4.9200851,13.8633272 L2.71367594,13.8633272 C2.49794609,13.8633272 2.323357,13.7076716 2.323357,13.5153029 L2.323357,11.9616256 L2.323357,11.962218 C2.323357,11.7698645 2.4979291,11.6141937 2.71367594,11.6141937 L4.92076483,11.6141937 L4.9201004,11.6141937 C5.13583025,11.6141937 5.31041934,11.7698493 5.31041934,11.962218 L5.31041934,13.5158953 L5.31040405,13.5153029 Z M5.31040405,9.7568705 C5.31040405,9.94922406 5.13583195,10.1048948 4.9200851,10.1048948 L2.71367594,10.1048948 C2.49794609,10.1048948 2.323357,9.94923921 2.323357,9.7568705 L2.323357,8.20319319 L2.323357,8.20378563 C2.323357,8.01143208 2.4979291,7.85576131 2.71367594,7.85576131 L4.92076483,7.85576131 L4.9201004,7.85576131 C5.13583025,7.85576131 5.31041934,8.01141693 5.31041934,8.20378563 L5.31041934,9.75746294 L5.31040405,9.7568705 Z M9.99018699,13.5153029 C9.99018699,13.7076564 9.8156149,13.8633272 9.59986805,13.8633272 L7.39277916,13.8633272 L7.3934436,13.8633272 C7.17771374,13.8633272 7.00312465,13.7076716 7.00312465,13.5153029 L7.00312465,11.9616256 L7.00312465,11.962218 C7.00312465,11.7698645 7.17769675,11.6141937 7.3934436,11.6141937 L9.60053249,11.6141937 L9.59986805,11.6141937 C9.8155979,11.6141937 9.99018699,11.7698493 9.99018699,11.962218 L9.99018699,13.5158953 L9.99018699,13.5153029 Z M9.99018699,9.7568705 C9.99018699,9.94922406 9.8156149,10.1048948 9.59986805,10.1048948 L7.39277916,10.1048948 L7.3934436,10.1048948 C7.17771374,10.1048948 7.00312465,9.94923921 7.00312465,9.7568705 L7.00312465,8.20319319 L7.00312465,8.20378563 C7.00312465,8.01143208 7.17769675,7.85576131 7.3934436,7.85576131 L9.60053249,7.85576131 L9.59986805,7.85576131 C9.8155979,7.85576131 9.99018699,8.01141693 9.99018699,8.20378563 L9.99018699,9.75746294 L9.99018699,9.7568705 Z M14.7695506,13.5153029 C14.7695506,13.7076564 14.5949785,13.8633272 14.3792317,13.8633272 L12.1721428,13.8633272 L12.1728072,13.8633272 C11.9570774,13.8633272 11.7824883,13.7076716 11.7824883,13.5153029 L11.7824883,11.9616256 L11.7824883,11.962218 C11.7824883,11.7698645 11.9570604,11.6141937 12.1728072,11.6141937 L14.3798961,11.6141937 L14.3792317,11.6141937 C14.5949615,11.6141937 14.7695506,11.7698493 14.7695506,11.962218 L14.7695506,13.5158953 L14.7695506,13.5153029 Z M14.7695506,9.7568705 C14.7695506,9.94922406 14.5949785,10.1048948 14.3792317,10.1048948 L12.1721428,10.1048948 L12.1728072,10.1048948 C11.9570774,10.1048948 11.7824883,9.94923921 11.7824883,9.7568705 L11.7824883,8.20319319 L11.7824883,8.20378563 C11.7824883,8.01143208 11.9570604,7.85576131 12.1728072,7.85576131 L14.3798961,7.85576131 L14.3792317,7.85576131 C14.5949615,7.85576131 14.7695506,8.01141693 14.7695506,8.20378563 L14.7695506,9.75746294 L14.7695506,9.7568705 Z"
                      id="Fill-1"></path>
                <path d="M4.71563879,3.96555905 C5.13715743,3.96555905 5.47636055,3.64003532 5.47636055,3.24820681 L5.47636055,0.709048989 C5.47636055,0.317826558 5.13715743,-1.51519144e-05 4.71563879,-1.51519144e-05 L4.29080647,-1.51519144e-05 C3.86928784,-1.51519144e-05 3.51813843,0.317826558 3.51813843,0.709048989 L3.51813843,3.24881289 C3.51813843,3.64003532 3.86928784,3.9655742 4.29080647,3.9655742 L4.71563879,3.96555905 Z"
                      id="Fill-2"></path>
                <path d="M12.9573859,3.96555905 C13.3789045,3.96555905 13.7074868,3.64003532 13.7074868,3.24820681 L13.7074868,0.708442912 C13.7074868,0.317811406 13.3789045,-3.03038289e-05 12.9573859,-3.03038289e-05 L12.5325536,-3.03038289e-05 C12.1110349,-3.03038289e-05 11.7824526,0.317811406 11.7824526,0.708442912 L11.7824526,3.24820681 C11.7824526,3.64002017 12.1110349,3.96555905 12.5325536,3.96555905 L12.9573859,3.96555905 Z"
                      id="Fill-3"></path>
            </g>
        </g>
    </g>
</svg>