<?xml version="1.0" encoding="utf-8"?>
<!-- Generator: Adobe Illustrator 23.0.1, SVG Export Plug-In . SVG Version: 6.00 Build 0)  -->
<svg version="1.1" id="Layer_1" xmlns="http://www.w3.org/2000/svg" xmlns:xlink="http://www.w3.org/1999/xlink" x="0px"
     y="0px"
     viewBox="0 0 41.4 32" style="enable-background:new 0 0 41.4 32;" xml:space="preserve">
<style type="text/css">
	.st0{fill-rule:evenodd;clip-rule:evenodd;fill:#FDF8F1;}
	.st1{fill:#F0C079;}
	.st2{fill-rule:evenodd;clip-rule:evenodd;fill:#F0C079;}
</style>
    <title>14_calls_icon</title>
    <desc>Created with Sketch.</desc>
    <g>
	<rect id="path-1_1_" x="30" y="11" class="st0" width="11.4" height="8"/>
</g>
    <circle id="Oval-Copy-3_1_" class="st0" cx="16" cy="16" r="15"/>
    <path class="st1" d="M16,32C7.2,32,0,24.8,0,16S7.2,0,16,0s16,7.2,16,16S24.8,32,16,32z M16,2C8.3,2,2,8.3,2,16s6.3,14,14,14
	s14-6.3,14-14S23.7,2,16,2z"/>
    <polygon class="st1" points="41.4,17 32,17 32,13 41.4,13 41.4,11 30,11 30,19 41.4,19 "/>
    <path id="Page-1-Copy-36" class="st2" d="M9.2,10.9l2.2-2.2c0.3-0.2,0.7-0.3,0.9,0l2,3.4c0.1,0.3,0.2,0.6,0,0.9l-0.7,0.7
	c-0.6,0.6-0.6,1.6,0,2.2c0.9,0.9,1.7,1.7,2.6,2.5c0.6,0.6,1.6,0.6,2.2,0l0.7-0.7c0.3-0.2,0.6-0.1,0.9,0.1l3.4,2
	c0.3,0.2,0.2,0.6,0,0.9l-2.2,2.2C17.1,24,8.1,14.9,9.2,10.9L9.2,10.9z"/>
</svg>
