<?xml version="1.0" encoding="UTF-8"?>
<svg width="17px" height="17px" viewBox="0 0 17 17" version="1.1" xmlns="http://www.w3.org/2000/svg"
     xmlns:xlink="http://www.w3.org/1999/xlink">
    <!-- Generator: Sketch 43.2 (39069) - http://www.bohemiancoding.com/sketch -->
    <title>check_3_a</title>
    <desc>Created with Sketch.</desc>
    <defs></defs>
    <g id="Page-1" stroke="none" stroke-width="1" fill="none" fill-rule="evenodd">
        <g id="check_3_a">
            <rect id="Rectangle-21" stroke="#5C576C" x="0.5" y="0.5" width="16" height="16" rx="2"></rect>
            <path d="M6.37867966,8.5 L2.43933983,12.4393398 C1.85355339,13.0251263 1.85355339,13.9748737 2.43933983,14.5606602 C3.02512627,15.1464466 3.97487373,15.1464466 4.56066017,14.5606602 L8.5,10.6213203 L12.4393398,14.5606602 C13.0251263,15.1464466 13.9748737,15.1464466 14.5606602,14.5606602 C15.1464466,13.9748737 15.1464466,13.0251263 14.5606602,12.4393398 L10.6213203,8.5 L14.5606602,4.56066017 C15.1464466,3.97487373 15.1464466,3.02512627 14.5606602,2.43933983 C13.9748737,1.85355339 13.0251263,1.85355339 12.4393398,2.43933983 L8.5,6.37867966 L4.56066017,2.43933983 C3.97487373,1.85355339 3.02512627,1.85355339 2.43933983,2.43933983 C1.85355339,3.02512627 1.85355339,3.97487373 2.43933983,4.56066017 L6.37867966,8.5 Z"
                  id="Combined-Shape" fill="#EE8776" fill-rule="nonzero"></path>
        </g>
    </g>
</svg>