<?xml version="1.0" encoding="UTF-8"?>
<svg width="13px" height="13px" viewBox="0 0 13 13" version="1.1" xmlns="http://www.w3.org/2000/svg"
     xmlns:xlink="http://www.w3.org/1999/xlink">
    <!-- Generator: Sketch 43.2 (39069) - http://www.bohemiancoding.com/sketch -->
    <title>check_3_b</title>
    <desc>Created with Sketch.</desc>
    <defs></defs>
    <g id="Page-1" stroke="none" stroke-width="1" fill="none" fill-rule="evenodd">
        <g id="check_3_b" fill-rule="nonzero" fill="#EE8776">
            <path d="M4.37867966,6.5 L0.439339828,10.4393398 C-0.146446609,11.0251263 -0.146446609,11.9748737 0.439339828,12.5606602 C1.02512627,13.1464466 1.97487373,13.1464466 2.56066017,12.5606602 L6.5,8.62132034 L10.4393398,12.5606602 C11.0251263,13.1464466 11.9748737,13.1464466 12.5606602,12.5606602 C13.1464466,11.9748737 13.1464466,11.0251263 12.5606602,10.4393398 L8.62132034,6.5 L12.5606602,2.56066017 C13.1464466,1.97487373 13.1464466,1.02512627 12.5606602,0.439339828 C11.9748737,-0.146446609 11.0251263,-0.146446609 10.4393398,0.439339828 L6.5,4.37867966 L2.56066017,0.439339828 C1.97487373,-0.146446609 1.02512627,-0.146446609 0.439339828,0.439339828 C-0.146446609,1.02512627 -0.146446609,1.97487373 0.439339828,2.56066017 L4.37867966,6.5 Z"
                  id="Combined-Shape"></path>
        </g>
    </g>
</svg>