<?xml version="1.0" encoding="UTF-8"?>
<svg width="16px" height="16px" viewBox="0 0 16 16" version="1.1" xmlns="http://www.w3.org/2000/svg"
     xmlns:xlink="http://www.w3.org/1999/xlink">
    <!-- Generator: Sketch 43.2 (39069) - http://www.bohemiancoding.com/sketch -->
    <title>check_1_a</title>
    <desc>Created with Sketch.</desc>
    <defs></defs>
    <g id="Page-1" stroke="none" stroke-width="1" fill="none" fill-rule="evenodd">
        <g id="check_1_a">
            <rect id="Rectangle-11" stroke="#FFFFFF" x="0.5" y="0.5" width="15" height="15" rx="3"></rect>
            <path d="M6.07867966,8.2 L3.33933983,10.9393398 C2.75355339,11.5251263 2.75355339,12.4748737 3.33933983,13.0606602 C3.92512627,13.6464466 4.87487373,13.6464466 5.46066017,13.0606602 L8.2,10.3213203 L10.9393398,13.0606602 C11.5251263,13.6464466 12.4748737,13.6464466 13.0606602,13.0606602 C13.6464466,12.4748737 13.6464466,11.5251263 13.0606602,10.9393398 L10.3213203,8.2 L13.0606602,5.46066017 C13.6464466,4.87487373 13.6464466,3.92512627 13.0606602,3.33933983 C12.4748737,2.75355339 11.5251263,2.75355339 10.9393398,3.33933983 L8.2,6.07867966 L5.46066017,3.33933983 C4.87487373,2.75355339 3.92512627,2.75355339 3.33933983,3.33933983 C2.75355339,3.92512627 2.75355339,4.87487373 3.33933983,5.46066017 L6.07867966,8.2 Z"
                  id="Combined-Shape" fill="#FFFFFF" fill-rule="nonzero"></path>
        </g>
    </g>
</svg>