<?xml version="1.0" encoding="UTF-8"?>
<svg width="14px" height="14px" viewBox="0 0 14 14" version="1.1" xmlns="http://www.w3.org/2000/svg"
     xmlns:xlink="http://www.w3.org/1999/xlink">
    <!-- Generator: Sketch 43.2 (39069) - http://www.bohemiancoding.com/sketch -->
    <title>check_2_c</title>
    <desc>Created with Sketch.</desc>
    <defs></defs>
    <g id="Page-1" stroke="none" stroke-width="1" fill="none" fill-rule="evenodd">
        <g id="check_2_c">
            <rect id="Rectangle-11" fill="#FFFFFF" x="0" y="0" width="14" height="14" rx="3"></rect>
            <path d="M5.07867966,7.2 L2.33933983,9.93933983 C1.75355339,10.5251263 1.75355339,11.4748737 2.33933983,12.0606602 C2.92512627,12.6464466 3.87487373,12.6464466 4.46066017,12.0606602 L7.2,9.32132034 L9.93933983,12.0606602 C10.5251263,12.6464466 11.4748737,12.6464466 12.0606602,12.0606602 C12.6464466,11.4748737 12.6464466,10.5251263 12.0606602,9.93933983 L9.32132034,7.2 L12.0606602,4.46066017 C12.6464466,3.87487373 12.6464466,2.92512627 12.0606602,2.33933983 C11.4748737,1.75355339 10.5251263,1.75355339 9.93933983,2.33933983 L7.2,5.07867966 L4.46066017,2.33933983 C3.87487373,1.75355339 2.92512627,1.75355339 2.33933983,2.33933983 C1.75355339,2.92512627 1.75355339,3.87487373 2.33933983,4.46066017 L5.07867966,7.2 Z"
                  id="Combined-Shape" fill="#EE8776" fill-rule="nonzero"></path>
        </g>
    </g>
</svg>