<?xml version="1.0" encoding="UTF-8"?>
<svg width="12px" height="12px" viewBox="0 0 12 12" version="1.1" xmlns="http://www.w3.org/2000/svg"
     xmlns:xlink="http://www.w3.org/1999/xlink">
    <!-- Generator: Sketch 43.2 (39069) - http://www.bohemiancoding.com/sketch -->
    <title>check_2_b</title>
    <desc>Created with Sketch.</desc>
    <defs></defs>
    <g id="Page-1" stroke="none" stroke-width="1" fill="none" fill-rule="evenodd">
        <g id="check_2_b" fill-rule="nonzero" fill="#EE8776">
            <path d="M4.07867966,6.2 L1.33933983,8.93933983 C0.753553391,9.52512627 0.753553391,10.4748737 1.33933983,11.0606602 C1.92512627,11.6464466 2.87487373,11.6464466 3.46066017,11.0606602 L6.2,8.32132034 L8.93933983,11.0606602 C9.52512627,11.6464466 10.4748737,11.6464466 11.0606602,11.0606602 C11.6464466,10.4748737 11.6464466,9.52512627 11.0606602,8.93933983 L8.32132034,6.2 L11.0606602,3.46066017 C11.6464466,2.87487373 11.6464466,1.92512627 11.0606602,1.33933983 C10.4748737,0.753553391 9.52512627,0.753553391 8.93933983,1.33933983 L6.2,4.07867966 L3.46066017,1.33933983 C2.87487373,0.753553391 1.92512627,0.753553391 1.33933983,1.33933983 C0.753553391,1.92512627 0.753553391,2.87487373 1.33933983,3.46066017 L4.07867966,6.2 Z"
                  id="Combined-Shape"></path>
        </g>
    </g>
</svg>