<?xml version="1.0" encoding="utf-8"?>
<svg version="1.1" id="Layer_1" xmlns="http://www.w3.org/2000/svg" xmlns:xlink="http://www.w3.org/1999/xlink" x="0px"
     y="0px"
     viewBox="0 0 15.9 14" style="enable-background:new 0 0 15.9 14;" xml:space="preserve">
    <title>Clock Icon</title>
  <g id="Page-1-Copy-27" transform="translate(1.250000, 1.500000)">
			<g id="Group-3" transform="translate(0.000000, 0.023385)">
				<g id="Clip-2">
				</g>
        <defs>
					<filter id="Adobe_OpacityMaskFilter" filterUnits="userSpaceOnUse" x="-1.2" y="-1.5" width="15.9"
                  height="14">
						<feColorMatrix type="matrix" values="1 0 0 0 0  0 1 0 0 0  0 0 1 0 0  0 0 0 1 0"/>
					</filter>
				</defs>
        <mask maskUnits="userSpaceOnUse" x="-1.2" y="-1.5" width="15.9" height="14" id="mask-2_1_">
					<g class="st0">
						<polygon id="path-1_1_" class="st1"
                     points="14.7,-1.5 14.7,12.5 -1.2,12.5 -1.2,-1.5 						"/>
					</g>
				</mask>
        <path id="Fill-1" class="st2" d="M7.7-1.5c-3.9,0-7,3.2-7,7h-2l2.5,3l2.5-3h-2c0-3.3,2.6-6,6-6s6,2.7,6,6c0,3.3-2.6,6-6,6v1
					c3.9,0,7-3.2,7-7S11.6-1.5,7.7-1.5"/>
			</g>
    <polygon id="Fill-4" class="st1"
             points="7.2,1.5 6.7,1.5 6.7,6.5 10.7,6.5 10.7,5.5 7.7,5.5 7.7,1.5 			"/>
		</g>
</svg>
