<?xml version="1.0" encoding="utf-8"?>
<!-- Generator: Adobe Illustrator 23.0.1, SVG Export Plug-In . SVG Version: 6.00 Build 0)  -->
<svg version="1.1" id="Layer_1" xmlns="http://www.w3.org/2000/svg" xmlns:xlink="http://www.w3.org/1999/xlink" x="0px"
     y="0px"
     viewBox="0 0 21.6 19" style="enable-background:new 0 0 21.6 19;" xml:space="preserve">
<style type="text/css">
	.st0{filter:url(#Adobe_OpacityMaskFilter);}
	.st1{fill-rule:evenodd;clip-rule:evenodd;fill:#FFFFFF;}
	.st2{mask:url(#mask-4_1_);fill-rule:evenodd;clip-rule:evenodd;fill:#FFFFFF;}
</style>
    <title>12_clock_large</title>
    <desc>Created with Sketch.</desc>
    <g id="Page-1">
	<g>
		<g id="Page-1-Copy-33" transform="translate(0.947368, 0.618421)">
			<g id="Group-3" transform="translate(0.000000, 0.031667)">
				<g id="Clip-2">
				</g>
                <defs>
					<filter id="Adobe_OpacityMaskFilter" filterUnits="userSpaceOnUse" x="-0.9" y="-0.7" width="21.6"
                            height="19">
						<feColorMatrix type="matrix" values="1 0 0 0 0  0 1 0 0 0  0 0 1 0 0  0 0 0 1 0"/>
					</filter>
				</defs>
                <mask maskUnits="userSpaceOnUse" x="-0.9" y="-0.7" width="21.6" height="19" id="mask-4_1_">
					<g class="st0">
						<polygon id="path-3_1_" class="st1"
                                 points="20.6,-0.7 20.6,18.3 -0.9,18.3 -0.9,-0.7 						"/>
					</g>
				</mask>
                <path id="Fill-1" class="st2" d="M11.2-0.7c-5.3,0-9.4,4.3-9.4,9.5h-2.7l3.4,4.1l3.4-4.1H3.1c0-4.5,3.6-8.1,8.1-8.1
					s8.1,3.7,8.1,8.1c0,4.5-3.6,8.1-8.1,8.1v1.4c5.3,0,9.4-4.3,9.4-9.5S16.4-0.7,11.2-0.7"/>
			</g>
            <polygon id="Fill-4" class="st1"
                     points="10.5,3.4 9.8,3.4 9.8,10.2 15.2,10.2 15.2,8.9 11.2,8.9 11.2,3.4 			"/>
		</g>
	</g>
</g>
</svg>
