<?xml version="1.0" encoding="UTF-8"?>
<svg width="25px" height="25px" viewBox="0 0 25 25" version="1.1" xmlns="http://www.w3.org/2000/svg"
     xmlns:xlink="http://www.w3.org/1999/xlink">
    <!-- Generator: Sketch 43.2 (39069) - http://www.bohemiancoding.com/sketch -->
    <title>12_dots_hover</title>
    <desc>Created with Sketch.</desc>
    <defs></defs>
    <g id="Page-1" stroke="none" stroke-width="1" fill="none" fill-rule="evenodd">
        <g id="12_dots_hover">
            <circle id="Rectangle-78-Copy-13" stroke="#7F60CC" cx="12.5657895" cy="12.5" r="10.5"></circle>
            <path d="M7.37208754,14.7297414 C6.37457756,14.7297414 5.56578947,13.9209113 5.56578947,12.9234433 C5.56578947,11.9259754 6.37461956,11.1171453 7.37208754,11.1171453 C8.37014352,11.1171453 9.1783856,11.9259754 9.1783856,12.9234433 C9.1783856,13.9209113 8.37010152,14.7297414 7.37208754,14.7297414 Z M17.7594914,14.7297414 C16.7614354,14.7297414 15.9531933,13.9209113 15.9531933,12.9234433 C15.9531933,11.9259754 16.7614774,11.1171453 17.7594914,11.1171453 C18.7570014,11.1171453 19.5657895,11.9259754 19.5657895,12.9234433 C19.5657895,13.9209113 18.7569594,14.7297414 17.7594914,14.7297414 Z M12.5657195,14.7297414 C11.5682095,14.7297414 10.7594214,13.9209113 10.7594214,12.9234433 C10.7594214,11.9259754 11.5682515,11.1171453 12.5657195,11.1171453 C13.5631874,11.1171453 14.3720175,11.9259754 14.3720175,12.9234433 C14.3720175,13.9209113 13.5631874,14.7297414 12.5657195,14.7297414 Z"
                  id="Page-1-Copy-34" fill="#7F60CC"></path>
        </g>
    </g>
</svg>