<?xml version="1.0" encoding="UTF-8"?>
<svg width="22px" height="15px" viewBox="0 0 22 15" version="1.1" xmlns="http://www.w3.org/2000/svg"
     xmlns:xlink="http://www.w3.org/1999/xlink">
    <!-- Generator: Sketch 43.2 (39069) - http://www.bohemiancoding.com/sketch -->
    <title>02_email_purple_hover</title>
    <desc>Created with Sketch.</desc>
    <defs></defs>
    <g id="Page-1" stroke="none" stroke-width="1" fill="none" fill-rule="evenodd">
        <g id="02_email_purple_hover" fill="#8D74CC">
            <path d="M3.07620686,1.25 C2.34920237,1.25 1.75,1.84920237 1.75,2.57620686 L1.75,12.7437928 C1.75,13.4707973 2.34920237,14.0699997 3.07620686,14.0699997 L19.4327582,14.0699997 C20.1597627,14.0699997 20.7589651,13.4707973 20.7589651,12.7437928 L20.7589651,2.57620686 C20.7589651,1.84920237 20.1597627,1.25 19.4327582,1.25 L3.07620686,1.25 Z M3.311056,2.13413791 L19.1979091,2.13413791 L11.6343303,9.07594671 C11.4538755,9.24172257 11.0549768,9.24172257 10.8745243,9.07594671 L3.311056,2.13413791 Z M2.63413791,2.71435341 L7.98737192,7.62551847 L2.63413791,12.5919421 L2.63413791,2.71435341 Z M19.8748272,2.71435341 L19.8748272,12.5919421 L14.5215931,7.62551847 L19.8748272,2.71435341 Z M8.63655018,8.22651121 L10.2735757,9.72539021 C10.8252999,10.2313602 11.6835326,10.2313602 12.2352567,9.72539021 L13.8722823,8.22651121 L19.2115911,13.1860828 L3.29710872,13.1860828 L8.63655018,8.22651121 Z"
                  id="Page-1-Copy-17"></path>
        </g>
    </g>
</svg>