<?xml version="1.0" encoding="utf-8"?>
<!-- Generator: Adobe Illustrator 23.0.1, SVG Export Plug-In . SVG Version: 6.00 Build 0)  -->
<svg version="1.1" id="Layer_1" xmlns="http://www.w3.org/2000/svg" xmlns:xlink="http://www.w3.org/1999/xlink" x="0px"
     y="0px"
     viewBox="0 0 22.2 13.4" style="enable-background:new 0 0 22.2 13.4;" xml:space="preserve">
<style type="text/css">
	.st0{fill:#534D64;}
	.st1{fill-rule:evenodd;clip-rule:evenodd;fill:#534D64;}
</style>
    <title>12_eye</title>
    <desc>Created with Sketch.</desc>
    <g>
	<g>
		<g id="Group-2-Copy-4" transform="translate(1.250000, 1.500000)">
			<path class="st0" d="M9.8,11.9c-6,0-10.7-6.1-10.9-6.4l-0.2-0.3L-1,4.9c0.2-0.3,4.9-6.4,10.9-6.4s10.7,6.1,10.9,6.4l0.2,0.3
				l-0.2,0.3C20.5,5.7,15.8,11.9,9.8,11.9z M0,5.2c1,1.2,5.1,5.7,9.8,5.7c4.7,0,8.8-4.5,9.8-5.7c-1-1.2-5.1-5.7-9.8-5.7
				C5.1-0.5,1,4,0,5.2z"/>
            <circle id="Oval-7" class="st1" cx="9.6" cy="5" r="4.4"/>
		</g>
	</g>
</g>
</svg>
