<?xml version="1.0" encoding="utf-8"?>
<svg version="1.1" id="Layer_1" xmlns="http://www.w3.org/2000/svg" xmlns:xlink="http://www.w3.org/1999/xlink" x="0px"
     y="0px"
     viewBox="0 0 19.4 14.5" style="enable-background:new 0 0 19.4 14.5;" xml:space="preserve">
    <title>Folder Icon</title>
  <g>
		<path class="st0" d="M18.2,14.5H1.4c-0.7,0-1.4-0.7-1.4-1.4V1.2C0,0.5,0.6,0,1.4,0H6c0.3,0,0.6,0.1,0.9,0.3l1.7,1.6h9.6
			c0.7,0,1.2,0.5,1.2,1.2v9.9C19.4,13.9,18.9,14.5,18.2,14.5z M1.5,13h16.4l0-9.6H8L5.9,1.5H1.5V13z M18.2,3.4
			C18.2,3.4,18.2,3.4,18.2,3.4V2.7V3.4z"/>
	</g>
</svg>
