<?xml version="1.0" encoding="utf-8"?>
<!-- Generator: Adobe Illustrator 23.0.1, SVG Export Plug-In . SVG Version: 6.00 Build 0)  -->
<svg version="1.1" id="Layer_1" xmlns="http://www.w3.org/2000/svg" xmlns:xlink="http://www.w3.org/1999/xlink" x="0px"
     y="0px"
     viewBox="0 0 41.4 32" style="enable-background:new 0 0 41.4 32;" xml:space="preserve">
<style type="text/css">
	.st0{fill-rule:evenodd;clip-rule:evenodd;fill:#F8F4F8;}
	.st1{fill:#BE97BE;}
	.st2{fill-rule:evenodd;clip-rule:evenodd;fill:#BE97BE;}
</style>
    <title>14_history_icon</title>
    <desc>Created with Sketch.</desc>
    <g>
	<g>
		<rect id="path-1" x="30" y="11" class="st0" width="11.4" height="8"/>
	</g>
        <circle id="Oval-Copy-3_1_" class="st0" cx="16" cy="16" r="15"/>
        <path class="st1" d="M16,32C7.2,32,0,24.8,0,16S7.2,0,16,0c8.8,0,16,7.2,16,16S24.8,32,16,32z M16,2C8.3,2,2,8.3,2,16s6.3,14,14,14
		c7.7,0,14-6.3,14-14S23.7,2,16,2z"/>
        <g id="Page-1-Copy-37" transform="translate(8.631579, 8.513158)">
		<path id="Fill-1" class="st2" d="M7.4,16.4c2.3,0,4.5-0.9,6.3-2.6c3.5-3.5,3.5-9.1,0-12.6s-9.1-3.5-12.6,0s-3.5,9.1,0,12.6
			C2.8,15.5,5.1,16.4,7.4,16.4z M2.2,2.3c1.4-1.4,3.3-2.1,5.2-2.1s3.7,0.7,5.2,2.1c2.9,2.9,2.9,7.5,0,10.3s-7.5,2.9-10.3,0
			S-0.7,5.2,2.2,2.3z"/>
            <path id="Fill-2" class="st2" d="M4.2,8.7h3.6c0.4,0,0.8-0.4,0.8-0.8V3.4c0-0.4-0.4-0.8-0.8-0.8C7.4,2.6,7,3,7,3.4v3.7H4.2
			c-0.4,0-0.8,0.4-0.8,0.8C3.4,8.4,3.8,8.7,4.2,8.7z"/>
	</g>
        <polygon class="st1" points="41.4,17 32,17 32,13 41.4,13 41.4,11 30,11 30,19 41.4,19 	"/>
</g>
</svg>
