<?xml version="1.0" encoding="utf-8"?>
<!-- Generator: Adobe Illustrator 23.0.1, SVG Export Plug-In . SVG Version: 6.00 Build 0)  -->
<svg version="1.1" id="Layer_1" xmlns="http://www.w3.org/2000/svg" xmlns:xlink="http://www.w3.org/1999/xlink" x="0px"
     y="0px"
     viewBox="0 0 19 19" style="enable-background:new 0 0 19 19;" xml:space="preserve">
<style type="text/css">
	.st0{fill-rule:evenodd;clip-rule:evenodd;fill:#534D64;}
	.st1{fill:#534D64;}
</style>
    <title>17_info</title>
    <desc>Created with Sketch.</desc>
    <g id="Page-1">
	<g>
		<g id="Page-1-Copy-43" transform="translate(9.000000, 5.503906)">
			<path id="Fill-1" class="st0" d="M1.7,9.4h-2.6V3.8h2.6V9.4z M0.4,1.7c-0.6,0-1.1-0.4-1.3-0.9C-1.2,0.3-1-0.3-0.6-0.7
				c0.4-0.4,1-0.5,1.6-0.3c0.5,0.2,0.9,0.8,0.9,1.3c0,0.4-0.2,0.8-0.4,1C1.2,1.6,0.8,1.7,0.4,1.7L0.4,1.7z"/>
		</g>
        <path class="st1" d="M9.5,19C4.3,19,0,14.7,0,9.5C0,4.3,4.3,0,9.5,0S19,4.3,19,9.5C19,14.7,14.7,19,9.5,19z M9.5,1
			C4.8,1,1,4.8,1,9.5S4.8,18,9.5,18c4.7,0,8.5-3.8,8.5-8.5S14.2,1,9.5,1z"/>
	</g>
</g>
</svg>
