<?xml version="1.0" encoding="utf-8"?>
<svg version="1.1" id="Layer_1" xmlns="http://www.w3.org/2000/svg" xmlns:xlink="http://www.w3.org/1999/xlink" x="0px"
     y="0px"
     viewBox="0 0 16 16" style="enable-background:new 0 0 16 16;" xml:space="preserve">
<style type="text/css">
	.st0 {
    fill-rule: evenodd;
    clip-rule: evenodd;
    fill: #FFFFFF;
  }

  .st1 {
    fill-rule: evenodd;
    clip-rule: evenodd;
    fill: #778591;
  }
</style>
  <title>Info Icon</title>
  <circle id="Oval-4-Copy" class="st0" cx="8" cy="8" r="8"/>
  <path id="i-copy" class="st1" d="M8.9,5.8V12H7.1V5.8H8.9z M9.1,4.1c0,0.1,0,0.3-0.1,0.4C9,4.6,8.9,4.7,8.8,4.8
			C8.7,4.9,8.6,5,8.4,5.1C8.3,5.1,8.1,5.2,8,5.2c-0.2,0-0.3,0-0.4-0.1C7.4,5,7.3,4.9,7.2,4.8S7,4.6,7,4.5C6.9,4.4,6.9,4.2,6.9,4.1
			c0-0.2,0-0.3,0.1-0.4C7,3.5,7.1,3.4,7.2,3.3c0.1-0.1,0.2-0.2,0.4-0.2C7.7,3,7.8,3,8,3c0.2,0,0.3,0,0.4,0.1
			c0.1,0.1,0.3,0.1,0.4,0.2C8.9,3.4,9,3.5,9,3.6C9.1,3.8,9.1,3.9,9.1,4.1z"/>
</svg>
