<?xml version="1.0" encoding="UTF-8"?>
<svg width="20px" height="18px" viewBox="0 0 20 18" version="1.1" xmlns="http://www.w3.org/2000/svg"
     xmlns:xlink="http://www.w3.org/1999/xlink">
  <title>Login User Icon</title>
  <defs>
    <polygon id="path-1"
             points="1.22925824e-05 8.35895604 18.0485964 8.35895604 18.0485964 0.0576767967 1.22925824e-05 0.0576767967"></polygon>
  </defs>
    <g id="login_user">
      <path d="M10.0663171,10.9046909 C7.28207781,10.9046909 5.02218852,8.66051596 5.02218852,5.88868353 C5.02218852,3.11685111 7.28207781,0.872676165 10.0663171,0.872676165 C12.8505564,0.872676165 15.1104457,3.11685111 15.1104457,5.88868353 C15.1104457,8.66051596 12.8505564,10.9046909 10.0663171,10.9046909 Z M10.0663171,8.9046909 C11.7490989,8.9046909 13.1104457,7.55281035 13.1104457,5.88868353 C13.1104457,4.22455671 11.7490989,2.87267617 10.0663171,2.87267617 C8.38353532,2.87267617 7.02218852,4.22455671 7.02218852,5.88868353 C7.02218852,7.55281035 8.38353532,8.9046909 10.0663171,8.9046909 Z"
            id="Oval-1" fill="#B8B6BF" fill-rule="nonzero"></path>
      <g id="Group-6" transform="translate(0.971795, 9.344882)">
        <mask id="mask-2" fill="white">
          <use xlink:href="#path-1"></use>
        </mask>
        <g id="Clip-5"></g>
        <path d="M1.74740288,8.35898063 C2.12748953,4.67919608 5.24587184,1.7999045 9.0242429,1.7999045 C12.8027369,1.7999045 15.9212421,4.67919608 16.3013288,8.35898063 L18.0485964,8.35898063 C17.6624864,3.71742443 13.7638939,0.0576767967 9.0242429,0.0576767967 C4.28483775,0.0576767967 0.386245232,3.71742443 1.22925824e-05,8.35898063 L1.74740288,8.35898063 Z"
              id="Fill-4" fill="#B8B6BF" mask="url(#mask-2)"></path>
      </g>
      <polygon id="Fill-7" fill="#B8B6BF"
               points="1.92791193 17.7038379 18.2606974 17.7038379 18.2606974 16.021475 1.92791193 16.021475"></polygon>
    </g>
</svg>