<?xml version="1.0" encoding="UTF-8"?>
<svg width="24px" height="16px" viewBox="0 0 24 16" version="1.1" xmlns="http://www.w3.org/2000/svg"
     xmlns:xlink="http://www.w3.org/1999/xlink">
    <!-- Generator: Sketch 43.2 (39069) - http://www.bohemiancoding.com/sketch -->
    <title>02_mobile_expand_letter</title>
    <desc>Created with Sketch.</desc>
    <defs></defs>
    <g id="Page-1" stroke="none" stroke-width="1" fill="none" fill-rule="evenodd">
        <g id="02_mobile_expand_letter" fill="#8A80A6">
            <path d="M1.64810174,-1.70530257e-13 C0.744639832,-1.70530257e-13 0,0.744639832 0,1.64810174 L0,14.2835484 C0,15.1870103 0.744639832,15.9316501 1.64810174,15.9316501 L21.9746898,15.9316501 C22.8781517,15.9316501 23.6227915,15.1870103 23.6227915,14.2835484 L23.6227915,1.64810174 C23.6227915,0.744639832 22.8781517,-1.70530257e-13 21.9746898,-1.70530257e-13 L1.64810174,-1.70530257e-13 Z M1.93995308,1.09873449 L21.6828385,1.09873449 L12.2834396,9.72544834 C12.0591851,9.93146106 11.5634663,9.93146106 11.3392146,9.72544834 L1.93995308,1.09873449 Z M1.09873449,1.819779 L7.75129714,7.92297441 L1.09873449,14.0948407 L1.09873449,1.819779 Z M22.524057,1.819779 L22.524057,14.0948407 L15.8714944,7.92297441 L22.524057,1.819779 Z M8.55804294,8.66983918 L10.5924048,10.5325238 C11.2780426,11.161302 12.3445841,11.161302 13.0302219,10.5325238 L15.0645838,8.66983918 L21.6998414,14.8331903 L1.92262055,14.8331903 L8.55804294,8.66983918 Z"
                  id="Page-1"></path>
        </g>
    </g>
</svg>