<?xml version="1.0" encoding="UTF-8"?>
<svg width="21px" height="20px" viewBox="0 0 21 20" version="1.1" xmlns="http://www.w3.org/2000/svg"
     xmlns:xlink="http://www.w3.org/1999/xlink">
    <!-- Generator: Sketch 43.2 (39069) - http://www.bohemiancoding.com/sketch -->
    <title>02_mobile_expand_calendar</title>
    <desc>Created with Sketch.</desc>
    <defs></defs>
    <g id="Page-1" stroke="none" stroke-width="1" fill="none" fill-rule="evenodd">
        <g id="02_mobile_expand_calendar" fill="#8A80A6">
            <g id="Group-5">
                <path d="M19.8508059,2.44401113 L17.7769669,2.44401113 L17.7769669,5.08316276 C17.7769669,5.94666772 17.0345467,6.63660176 16.1023824,6.63660176 L15.5744355,6.63660176 C14.6422712,6.63660176 13.8998511,5.94666772 13.8998511,5.08316276 L13.8998511,2.44401113 L7.54801553,2.44401113 L7.54801553,5.08316276 C7.54801553,5.94666772 6.79157312,6.63660176 5.86023244,6.63660176 L5.33228547,6.63660176 C4.40094479,6.63660176 3.62965651,5.94666772 3.62965651,5.08316276 L3.62965651,2.44401113 L1.26698846,2.44401113 C0.569929519,2.44401113 -8.41834468e-05,2.98682978 -8.41834468e-05,3.63262733 L-8.41834468e-05,18.702115 C-8.41834468e-05,19.3479125 0.569929519,19.8760253 1.26698846,19.8760253 L19.8507214,19.8760253 C20.5477804,19.8760253 21.1177941,19.3479125 21.1177941,18.702115 L21.1177941,3.63262733 C21.1177941,2.98682978 20.5477804,2.44401113 19.8507214,2.44401113 L19.8508059,2.44401113 Z M6.59933707,16.7957162 C6.59933707,17.0347575 6.3823931,17.2282125 6.11428052,17.2282125 L3.37233515,17.2282125 C3.10424369,17.2282125 2.8872786,17.0347763 2.8872786,16.7957162 L2.8872786,14.8649328 L2.8872786,14.865669 C2.8872786,14.6266277 3.10422257,14.4331727 3.37233515,14.4331727 L6.11512523,14.4331727 L6.11429952,14.4331727 C6.38239099,14.4331727 6.59935608,14.6266089 6.59935608,14.865669 L6.59935608,16.7964524 L6.59933707,16.7957162 Z M6.59933707,12.125043 C6.59933707,12.3640843 6.3823931,12.5575392 6.11428052,12.5575392 L3.37233515,12.5575392 C3.10424369,12.5575392 2.8872786,12.3641031 2.8872786,12.125043 L2.8872786,10.1942595 L2.8872786,10.1949957 C2.8872786,9.95595443 3.10422257,9.76249949 3.37233515,9.76249949 L6.11512523,9.76249949 L6.11429952,9.76249949 C6.38239099,9.76249949 6.59935608,9.9559356 6.59935608,10.1949957 L6.59935608,12.1257792 L6.59933707,12.125043 Z M12.4149897,16.7957162 C12.4149897,17.0347575 12.1980457,17.2282125 11.9299331,17.2282125 L9.18714303,17.2282125 L9.18796874,17.2282125 C8.91987727,17.2282125 8.70291219,17.0347763 8.70291219,16.7957162 L8.70291219,14.8649328 L8.70291219,14.865669 C8.70291219,14.6266277 8.91985616,14.4331727 9.18796874,14.4331727 L11.9307588,14.4331727 L11.9299331,14.4331727 C12.1980246,14.4331727 12.4149897,14.6266089 12.4149897,14.865669 L12.4149897,16.7964524 L12.4149897,16.7957162 Z M12.4149897,12.125043 C12.4149897,12.3640843 12.1980457,12.5575392 11.9299331,12.5575392 L9.18714303,12.5575392 L9.18796874,12.5575392 C8.91987727,12.5575392 8.70291219,12.3641031 8.70291219,12.125043 L8.70291219,10.1942595 L8.70291219,10.1949957 C8.70291219,9.95595443 8.91985616,9.76249949 9.18796874,9.76249949 L11.9307588,9.76249949 L11.9299331,9.76249949 C12.1980246,9.76249949 12.4149897,9.9559356 12.4149897,10.1949957 L12.4149897,12.1257792 L12.4149897,12.125043 Z M18.354393,16.7957162 C18.354393,17.0347575 18.1374491,17.2282125 17.8693365,17.2282125 L15.1265464,17.2282125 L15.1273721,17.2282125 C14.8592806,17.2282125 14.6423156,17.0347763 14.6423156,16.7957162 L14.6423156,14.8649328 L14.6423156,14.865669 C14.6423156,14.6266277 14.8592595,14.4331727 15.1273721,14.4331727 L17.8701622,14.4331727 L17.8693365,14.4331727 C18.1374279,14.4331727 18.354393,14.6266089 18.354393,14.865669 L18.354393,16.7964524 L18.354393,16.7957162 Z M18.354393,12.125043 C18.354393,12.3640843 18.1374491,12.5575392 17.8693365,12.5575392 L15.1265464,12.5575392 L15.1273721,12.5575392 C14.8592806,12.5575392 14.6423156,12.3641031 14.6423156,12.125043 L14.6423156,10.1942595 L14.6423156,10.1949957 C14.6423156,9.95595443 14.8592595,9.76249949 15.1273721,9.76249949 L17.8701622,9.76249949 L17.8693365,9.76249949 C18.1374279,9.76249949 18.354393,9.9559356 18.354393,10.1949957 L18.354393,12.1257792 L18.354393,12.125043 Z"
                      id="Fill-1"></path>
                <path d="M5.86021132,4.92807339 C6.3840403,4.92807339 6.80557427,4.52353904 6.80557427,4.03660653 L6.80557427,0.881148258 C6.80557427,0.394968926 6.3840403,-1.88295636e-05 5.86021132,-1.88295636e-05 L5.33226435,-1.88295636e-05 C4.80843537,-1.88295636e-05 4.37205553,0.394968926 4.37205553,0.881148258 L4.37205553,4.03735971 C4.37205553,4.52353904 4.80843537,4.92809222 5.33226435,4.92809222 L5.86021132,4.92807339 Z"
                      id="Fill-2"></path>
                <path d="M16.1023824,4.92807339 C16.6262114,4.92807339 17.0345467,4.52353904 17.0345467,4.03660653 L17.0345467,0.880395076 C17.0345467,0.394950097 16.6262114,-3.76591271e-05 16.1023824,-3.76591271e-05 L15.5744355,-3.76591271e-05 C15.0506065,-3.76591271e-05 14.6422712,0.394950097 14.6422712,0.880395076 L14.6422712,4.03660653 C14.6422712,4.52352021 15.0506065,4.92807339 15.5744355,4.92807339 L16.1023824,4.92807339 Z"
                      id="Fill-3"></path>
            </g>
        </g>
    </g>
</svg>