<?xml version="1.0" encoding="UTF-8"?>
<svg width="19px" height="19px" viewBox="0 0 19 19" version="1.1" xmlns="http://www.w3.org/2000/svg"
     xmlns:xlink="http://www.w3.org/1999/xlink">
    <!-- Generator: Sketch 43.2 (39069) - http://www.bohemiancoding.com/sketch -->
    <title>02_mobile_expand_phone copy</title>
    <desc>Created with Sketch.</desc>
    <defs></defs>
    <g id="Page-1" stroke="none" stroke-width="1" fill="none" fill-rule="evenodd">
        <g id="02_mobile_expand_phone-copy" fill="#715EA6">
            <path d="M6.4028726,14.8969849 C6.4028726,14.8969849 9.74579867,17.8036665 13.4755556,18.3363159 C13.4755556,18.3363159 16.0918113,18.9172646 17.8837805,16.7864732 C17.8837805,16.7864732 19.1195077,15.8904402 17.980292,14.4607404 L15.1709842,11.6998773 C15.1709842,11.6998773 14.4925648,10.924956 13.4025591,11.6033658 L11.7316048,13.2506792 C11.7316048,13.2506792 7.12935891,10.8766954 5.28797612,6.73535234 L6.57195427,5.45137419 C6.57195427,5.45137419 7.85593242,4.31311767 6.59655449,3.02913952 L3.78627782,0.26730755 C3.78627782,0.26730755 2.79277405,-0.434752947 1.80023917,0.436675043 C1.80023917,0.436675043 -0.62199574,2.47096461 0.152925817,5.88670305 C0.152925817,5.88670305 0.225781792,9.47185258 6.40253349,14.8971738 L6.4028726,14.8969849 Z"
                  id="Page-1"></path>
        </g>
    </g>
</svg>