<?xml version="1.0" encoding="utf-8"?>
<!-- Generator: Adobe Illustrator 23.0.1, SVG Export Plug-In . SVG Version: 6.00 Build 0)  -->
<svg version="1.1" id="Layer_1" xmlns="http://www.w3.org/2000/svg" xmlns:xlink="http://www.w3.org/1999/xlink" x="0px"
     y="0px"
     viewBox="0 0 14.9 14.8" style="enable-background:new 0 0 14.9 14.8;" xml:space="preserve">
<style type="text/css">
	.st0{fill-rule:evenodd;clip-rule:evenodd;fill:#AA9DCC;}
</style>
    <title>02_phone_purple</title>
    <desc>Created with Sketch.</desc>
    <g id="Page-1">
	<g>
		<path id="Page-1-Copy-16" class="st0" d="M5.2,12c0,0,2.7,2.3,5.7,2.8c0,0,2.1,0.5,3.5-1.2c0,0,1-0.7,0.1-1.9l-2.3-2.2
			c0,0-0.5-0.6-1.4-0.1l-1.3,1.3c0,0-3.7-1.9-5.2-5.2l1-1c0,0,1-0.9,0-1.9L3,0.2c0,0-0.8-0.6-1.6,0.1c0,0-1.9,1.6-1.3,4.4
			C0.1,4.7,0.2,7.6,5.2,12L5.2,12z"/>
	</g>
</g>
</svg>
