<?xml version="1.0" encoding="UTF-8"?>
<svg width="17px" height="18px" viewBox="0 0 17 18" version="1.1" xmlns="http://www.w3.org/2000/svg"
     xmlns:xlink="http://www.w3.org/1999/xlink">
    <!-- Generator: Sketch 43.2 (39069) - http://www.bohemiancoding.com/sketch -->
    <title>17_phone_hover</title>
    <desc>Created with Sketch.</desc>
    <defs></defs>
    <g id="Page-1" stroke="none" stroke-width="1" fill="none" fill-rule="evenodd">
        <g id="17_phone_hover" fill="#F08377">
            <path d="M6.6484053,13.1742031 C6.6484053,13.1742031 9.33841612,15.5131735 12.3397049,15.9417898 C12.3397049,15.9417898 14.4449731,16.409272 15.8869484,14.6946508 C15.8869484,14.6946508 16.8813226,13.9736242 15.96461,12.8231626 L13.7039951,10.6015306 C13.7039951,10.6015306 13.1580794,9.97796113 12.2809656,10.523869 L10.9363695,11.8494415 C10.9363695,11.8494415 7.23299975,9.93912642 5.75126203,6.60663943 L6.7844632,5.57343826 C6.7844632,5.57343826 7.81766437,4.65749747 6.80425869,3.6242963 L4.54286418,1.40188464 C4.54286418,1.40188464 3.74340412,0.836945329 2.94472371,1.53817254 C2.94472371,1.53817254 0.995581553,3.17513992 1.61915124,5.92374195 C1.61915124,5.92374195 1.67777754,8.80866697 6.64813242,13.1743551 L6.6484053,13.1742031 Z"
                  id="Page-1-Copy-41"></path>
        </g>
    </g>
</svg>