<?xml version="1.0" encoding="UTF-8"?>
<svg width="18px" height="17px" viewBox="0 0 18 17" version="1.1" xmlns="http://www.w3.org/2000/svg"
     xmlns:xlink="http://www.w3.org/1999/xlink">
    <!-- Generator: Sketch 43.2 (39069) - http://www.bohemiancoding.com/sketch -->
    <title>02_phone_purple_hover</title>
    <desc>Created with Sketch.</desc>
    <defs></defs>
    <g id="Page-1" stroke="none" stroke-width="1" fill="none" fill-rule="evenodd">
        <g id="02_phone_purple_hover" fill="#8D74CC">
            <path d="M6.65231155,13.2374175 C6.65231155,13.2374175 9.34232237,15.5763879 12.3436112,16.0050042 C12.3436112,16.0050042 14.4488794,16.4724864 15.8908546,14.7578652 C15.8908546,14.7578652 16.8852289,14.0368386 15.9685162,12.886377 L13.7079014,10.664745 C13.7079014,10.664745 13.1619857,10.0411755 12.2848718,10.5870834 L10.9402757,11.9126559 C10.9402757,11.9126559 7.236906,10.0023408 5.75516828,6.66985384 L6.78836945,5.63665267 C6.78836945,5.63665267 7.82157062,4.72071188 6.80816494,3.68751071 L4.54677043,1.46509904 C4.54677043,1.46509904 3.74731037,0.900159738 2.94862996,1.60138695 C2.94862996,1.60138695 0.999487803,3.23835433 1.62305749,5.98695636 C1.62305749,5.98695636 1.68168379,8.87188138 6.65203867,13.2375695 L6.65231155,13.2374175 Z"
                  id="Page-1-Copy-16"></path>
        </g>
    </g>
</svg>