<?xml version="1.0" encoding="utf-8"?>
<svg version="1.1" id="Layer_1" xmlns="http://www.w3.org/2000/svg" xmlns:xlink="http://www.w3.org/1999/xlink" x="0px"
     y="0px"
     viewBox="0 0 18.7 15" style="enable-background:new 0 0 18.7 15;" xml:space="preserve">
    <title>Refresh Icon</title>
  <g id="Page-1-Copy-19" transform="translate(1.447368, 1.750000)">
			<path id="Fill-1" class="st0" d="M11.1,10.7c-1,0.7-2.1,1-3.2,1c-3,0-5.5-2.2-5.8-5.1h1c0.3,0,0.6-0.2,0.7-0.4
				C4,5.9,4,5.6,3.8,5.4L1.9,2.3C1.8,2.1,1.6,1.9,1.2,1.9c-0.3,0-0.6,0.2-0.7,0.4c-0.7,1-1.6,2.7-1.8,3c-0.1,0.2-0.2,0.3-0.2,0.5
				c0,0.5,0.3,0.8,0.8,0.8l1,0c0.4,3.8,3.6,6.7,7.5,6.7c1.4,0,2.9-0.4,4.1-1.2c0.4-0.2,0.5-0.7,0.2-1.1C12,10.6,11.5,10.4,11.1,10.7
				L11.1,10.7z"/>
    <path id="Fill-2" class="st0" d="M16.5,4.9h-1C15,1.2,11.8-1.8,7.9-1.8C6.5-1.8,5-1.4,3.8-0.5C3.4-0.3,3.3,0.2,3.6,0.6
				s0.7,0.5,1.1,0.2c1-0.7,2.1-1,3.2-1c3,0,5.5,2.2,5.8,5.1h-1c-0.3,0-0.6,0.2-0.7,0.4c-0.2,0.2-0.2,0.6,0,0.8l1.9,3.1
				c0.2,0.2,0.4,0.4,0.7,0.4c0.3,0,0.6-0.2,0.7-0.4c0.7-1,1.6-2.7,1.8-3c0.1-0.2,0.2-0.3,0.2-0.5C17.3,5.3,16.9,4.9,16.5,4.9
				L16.5,4.9z"/>
		</g>
</svg>
