<?xml version="1.0" encoding="UTF-8"?>
<svg width="22px" height="18px" viewBox="0 0 22 18" version="1.1" xmlns="http://www.w3.org/2000/svg"
     xmlns:xlink="http://www.w3.org/1999/xlink">
    <!-- Generator: Sketch 43.2 (39069) - http://www.bohemiancoding.com/sketch -->
    <title>05_refresh_hover</title>
    <desc>Created with Sketch.</desc>
    <defs></defs>
    <g id="Page-1" stroke="none" stroke-width="1" fill="none" fill-rule="evenodd">
        <g id="05_refresh_hover" fill="#EE8776">
            <g id="Page-1-Copy-19" transform="translate(1.447368, 1.750000)">
                <path d="M12.6909868,12.4140789 C11.7241974,13.0655526 10.5984868,13.3808684 9.47368421,13.3808684 C6.49302632,13.3808684 3.98664474,11.1312632 3.67144737,8.30869737 L4.63823684,8.30869737 C4.95434211,8.30869737 5.21028947,8.15064868 5.36834211,7.91396053 C5.52639079,7.67727632 5.52639079,7.34190789 5.36834211,7.10443421 L3.51339474,4.04522368 C3.35534605,3.80853947 3.11865789,3.65048684 2.78328947,3.65048684 C2.46718421,3.65048684 2.21123684,3.80853553 2.05318421,4.04522368 C1.40171072,5.09143421 0.43492125,6.78825 0.276868618,7.02588158 C0.198229145,7.18393026 0.118819934,7.34198684 0.118819934,7.49925 C0.118819934,7.97261842 0.434925197,8.30877632 0.92834625,8.30877632 L1.97378684,8.30954803 C2.38857632,12.0988243 5.60497105,14.9999428 9.47378684,14.9999428 C10.9147342,14.9999428 12.3749053,14.6052059 13.5792474,13.7956796 C13.9739842,13.5589954 14.0526158,13.0655743 13.8159316,12.6708375 C13.5792474,12.3354691 13.1050895,12.1774164 12.6910895,12.4141007 L12.6909868,12.4140789 Z"
                      id="Fill-1"></path>
                <path d="M18.0199342,6.69039474 L16.9737237,6.69039474 C16.5589342,2.90111842 13.3425395,0 9.47372368,0 C8.03277632,0 6.57260526,0.394736842 5.36826316,1.20426316 C4.97352632,1.44094737 4.89489474,1.93436842 5.13157895,2.32910526 C5.36826316,2.72384211 5.86168421,2.80247368 6.25642105,2.56578947 C7.22321053,1.91431579 8.34892105,1.599 9.47372368,1.599 C12.4543816,1.599 14.9607632,3.84860526 15.2759605,6.67117105 L14.3091711,6.67117105 C13.9930658,6.67117105 13.7371184,6.82921974 13.5790658,7.06590789 C13.4210132,7.30259605 13.4210171,7.63796053 13.5790658,7.87543421 L15.4340132,10.9346447 C15.5920618,11.1713289 15.82875,11.3293816 16.1641184,11.3293816 C16.4802237,11.3293816 16.7361711,11.1713329 16.8942237,10.9346447 C17.5456974,9.88843421 18.5124868,8.19161842 18.6705395,7.95398684 C18.7491789,7.79593816 18.8285882,7.63788158 18.8285882,7.48061842 C18.8285882,7.02651316 18.4932197,6.690375 18.0198316,6.690375 L18.0199342,6.69039474 Z"
                      id="Fill-2"></path>
            </g>
        </g>
    </g>
</svg>