<?xml version="1.0" encoding="UTF-8"?>
<svg viewBox="0 0 15 15" version="1.1" xmlns="http://www.w3.org/2000/svg" xmlns:xlink="http://www.w3.org/1999/xlink">
  <title>Reset Icon</title>
  <g id="reset_icon">
    <path d="M2.19710345,2.36380621 L2.13146231,2.31881693 L2.04664578,2.44124788 L2.04664578,0.77295534 C2.04664578,0.441804209 1.7774427,0.172601128 1.44481886,0.172601128 L0.601826918,0.172601128 C0.269203081,0.172601128 0,0.441804209 0,0.77295534 L0,5.69821243 C0,6.03009992 0.269203081,6.29856665 0.601826918,6.29856665 L5.53822371,6.29856665 C5.87084755,6.29856665 6.14078698,6.03009992 6.14078698,5.69821243 L6.14078698,4.85742955 C6.14078698,4.52554206 5.87084755,4.25707534 5.53822371,4.25707534 L3.72167878,4.25707534 C4.17083519,3.73858846 4.77560752,3.25034871 5.26016551,3.00327398 C5.50059419,2.88305586 5.74177809,2.7628453 5.96746083,2.68760514 C6.19314356,2.59762658 6.43359112,2.5378857 6.67475614,2.49215064 C6.97567904,2.43240976 7.36730552,2.40217208 7.68295548,2.40217208 C10.4826071,2.40217208 12.8302513,4.71507553 12.8302513,7.55230003 C12.8302513,7.59728931 12.8000117,8.0479222 12.7697741,8.28835088 C12.6348062,9.15938087 12.2734155,10.1048958 11.5056449,11.0062484 C10.948811,11.6515957 9.83512441,12.4023925 8.81210361,12.597847 C8.11955424,12.7328148 7.77365717,13.2734225 7.77365717,13.7992918 C7.77365717,14.4298742 8.25526975,15 8.96256506,15 C9.23324085,15 9.71485343,14.8502806 9.9552821,14.7750536 C11.0542039,14.4298931 12.1679283,13.8442848 13.2365841,12.6877764 C14.1695621,11.6670402 14.6659206,10.6159814 14.9520787,9.57980064 C15.0877848,9.09892441 15.1630155,8.54356325 15.2227545,8.06344226 L15.2227545,7.07219792 C15.2227545,6.54632864 14.9520787,5.45037114 14.8016173,5.06025513 C13.4622479,1.4264478 10.3166615,8.52651283e-14 7.68297247,8.52651283e-14 C7.18661395,8.52651283e-14 6.67477314,0.0302395605 6.20790649,0.134967829 C5.8472446,0.210196666 5.48586524,0.314924934 5.124467,0.435135494 C4.16271454,0.776614448 3.1146011,1.40425148 2.19718087,2.36381376 L2.19710345,2.36380621 Z"
          id="Page-1"></path>
  </g>
</svg>