<?xml version="1.0" encoding="UTF-8"?>
<svg width="17px" height="18px" viewBox="0 0 17 18" version="1.1" xmlns="http://www.w3.org/2000/svg"
     xmlns:xlink="http://www.w3.org/1999/xlink">
    <!-- Generator: Sketch 43.2 (39069) - http://www.bohemiancoding.com/sketch -->
    <title>05_settings_hover</title>
    <desc>Created with Sketch.</desc>
    <defs></defs>
    <g id="Page-1" stroke="none" stroke-width="1" fill="none" fill-rule="evenodd">
        <g id="05_settings_hover" fill="#EE8776">
            <path d="M14.0985513,4.0136607 L12.4454097,4.72259986 C11.9533095,4.30892079 11.3827883,3.97445016 10.7722692,3.75839851 L10.5554302,1.96683901 C9.96490998,1.8292045 9.35439085,1.75 8.72466012,1.75 C8.0949294,1.75 7.48441027,1.82842895 6.89389008,1.96683901 L6.67705107,3.75839851 C6.06653194,3.99444911 5.49601071,4.30970815 5.00391056,4.72259986 L3.33077004,4.0136607 C2.4842003,4.89944097 1.83447063,5.98206131 1.5,7.18317936 L2.95630151,8.2657997 C2.89709595,8.58105874 2.87787255,8.89553042 2.87787255,9.23000105 C2.87787255,9.56447168 2.89786363,9.87973072 2.95630151,10.1942024 L1.5,11.2768227 C1.83447063,12.4970736 2.4842003,13.5796546 3.33077004,14.4463414 L4.96546769,13.7774001 C5.45756784,14.1910792 6.02808908,14.5255498 6.63860821,14.7416015 L6.85544722,16.533161 C7.4459674,16.6707955 8.05648654,16.75 8.68621726,16.75 C9.31594798,16.75 9.92646711,16.671571 10.5169873,16.533161 L10.7338263,14.7416015 C11.3443454,14.5055509 11.9148667,14.1902918 12.4069668,13.7774001 L14.0801073,14.4863393 C14.9266771,13.600559 15.5764068,12.5179387 15.9108774,11.3168206 L14.4545759,10.2342003 C14.5137814,9.91894126 14.5330048,9.60446958 14.5330048,9.26999895 C14.5330048,8.93552832 14.5130138,8.62026928 14.4545759,8.3057976 L15.9108774,7.22317726 C15.5948507,5.98215973 14.9651199,4.89948034 14.0985709,4.01370007 L14.0985513,4.0136607 Z M8.70552727,12.596281 C6.85554564,12.596281 5.35924623,11.0999816 5.35924623,9.25 C5.35924623,7.40001837 6.85554564,5.90371896 8.70552727,5.90371896 C10.5555089,5.90371896 12.0518083,7.40001837 12.0518083,9.25 C12.0518083,11.0999816 10.5555089,12.596281 8.70552727,12.596281 Z"
                  id="Page-1-Copy-20"></path>
        </g>
    </g>
</svg>