<?xml version="1.0" encoding="utf-8"?>
<svg version="1.1" id="Layer_1" xmlns="http://www.w3.org/2000/svg" xmlns:xlink="http://www.w3.org/1999/xlink" x="0px"
     y="0px"
     viewBox="0 0 22 17" style="enable-background:new 0 0 22 17;" xml:space="preserve">
    <title>Signature Icon</title>
  <g>
	<g>
		<g>
			<polygon id="Fill-1" class="st0" points="-1.4,15.6 20.5,15.6 20.5,14.4 -1.4,14.4 			"/>
      <path id="Fill-2" class="st0" d="M4.3,0.3c-0.2,0-0.4,0.1-0.6,0.2c-0.3,0.2-0.5,0.5-0.8,1c-0.9,1.7-0.9,4,0,5.7
				C3,7.4,3.1,7.5,3.2,7.7c0.2-0.3,0.4-0.6,0.5-0.8c0.8-1.4,1.3-3,1.4-4.5C5.1,1.9,5.1,1.4,5,1C4.9,0.7,4.7,0.5,4.5,0.4
				C4.4,0.4,4.4,0.3,4.3,0.3L4.3,0.3z M0.9,11.2c-0.5,0-1.1-0.2-1.5-0.6c-0.3-0.3-0.5-0.7-0.6-1.3l-0.2-0.8l1.6-0.3L0.5,9
				c0,0.2,0.1,0.3,0.1,0.4c0.1,0.1,0.2,0.1,0.3,0.1c0.4,0,0.8-0.2,1.1-0.5C1.8,8.7,1.6,8.4,1.4,8c-1.2-2.2-1.3-5,0-7.3
				C1.8,0,2.2-0.5,2.7-0.8c0.7-0.5,1.7-0.6,2.4-0.3c0.7,0.3,1.2,0.9,1.5,1.7c0.2,0.7,0.2,1.3,0.1,1.9C6.6,4.3,6,6.1,5.1,7.7
				C4.9,8,4.7,8.3,4.5,8.7c0.5,0.2,0.9,0.2,1.4,0c0.4-0.2,0.7-0.5,1.1-1c0.4-0.5,0.6-0.9,0.7-1.4c0.1-0.5,0.5-0.7,1-0.7
				C9,5.7,9.3,5.9,9.3,6.3c0.1,0.3,0.8,1.6,1,1.9l0.1,0.1C10.8,8.8,11,9.1,11.3,9c0.4-0.1,0.7-0.5,1.1-1c0.4-0.5,0.7-1.1,0.8-1.8
				c0.1-0.3,0.4-0.6,0.7-0.6c0.4,0,0.7,0.2,0.8,0.5L15.2,7c0.4,0.8,0.8,1.5,1.3,1.8C16.9,9,17.4,9.1,17.8,9c0.3-0.1,0.4-0.2,0.7-0.7
				l0.4-0.7l1.5,0.9l-0.4,0.7c-0.4,0.6-0.7,1.3-1.7,1.5c-0.8,0.2-1.7,0.1-2.5-0.4c-0.8-0.4-1.3-1.2-1.6-1.8C14,8.6,13.9,8.8,13.8,9
				c-0.4,0.6-1.1,1.4-2.1,1.7C10.3,11,9.5,9.9,9.1,9.3L9,9.1c0,0-0.2-0.3-0.5-0.7C8.4,8.5,8.3,8.6,8.2,8.7c-0.4,0.5-0.9,1.1-1.6,1.4
				c-1.1,0.5-2.2,0.4-3.2-0.2C2.8,10.7,2,11.1,1,11.2H0.9z"/>
		</g>
	</g>
</g>
</svg>
