<?xml version="1.0" encoding="utf-8"?>
<!-- Generator: Adobe Illustrator 23.0.1, SVG Export Plug-In . SVG Version: 6.00 Build 0)  -->
<svg version="1.1" id="Layer_1" xmlns="http://www.w3.org/2000/svg" xmlns:xlink="http://www.w3.org/1999/xlink" x="0px"
     y="0px"
     viewBox="0 0 10.4 9.9" style="enable-background:new 0 0 10.4 9.9;" xml:space="preserve">
<style type="text/css">
	.st0{fill-rule:evenodd;clip-rule:evenodd;fill:#E3BA8D;}
</style>
    <title>09_star</title>
    <desc>Created with Sketch.</desc>
    <g id="Page-1">
	<g>
		<path id="Page-1-Copy-26" class="st0" d="M5,0.2L3.8,3.5H0.2C0.1,3.5,0,3.6,0,3.7c0,0.1,0,0.2,0.1,0.3L3,6.1L1.9,9.6
			c0,0.1,0,0.2,0.1,0.3c0.1,0.1,0.2,0.1,0.3,0l2.9-2.1l2.9,2.1c0.1,0.1,0.2,0.1,0.3,0c0.1-0.1,0.1-0.2,0.1-0.3L7.3,6.1l2.9-2.1
			c0.1-0.1,0.1-0.2,0.1-0.3c0-0.1-0.1-0.2-0.2-0.2H6.5L5.4,0.2C5.4,0.1,5.3,0,5.2,0C5.1,0,5,0.1,5,0.2z"/>
	</g>
</g>
</svg>
