<?xml version="1.0" encoding="utf-8"?>
<!-- Generator: Adobe Illustrator 23.0.1, SVG Export Plug-In . SVG Version: 6.00 Build 0)  -->
<svg version="1.1" id="Layer_1" xmlns="http://www.w3.org/2000/svg" xmlns:xlink="http://www.w3.org/1999/xlink" x="0px"
     y="0px"
     viewBox="0 0 15.2 9.2" style="enable-background:new 0 0 15.2 9.2;" xml:space="preserve">
<style type="text/css">
	.st0{fill:#FFFFFF;}
	.st1{fill-rule:evenodd;clip-rule:evenodd;fill:#FFFFFF;}
</style>
    <title>07_view</title>
    <desc>Created with Sketch.</desc>
    <g>
	<g>
		<g id="Group-2-Copy-3" transform="translate(1.500000, 1.000000)">
			<path class="st0" d="M6.1,8.2c-4.1,0-7.2-4.1-7.4-4.3l-0.2-0.3l0.2-0.3C-1.1,3.1,2.1-1,6.1-1c4.1,0,7.2,4.1,7.4,4.3l0.2,0.3
				l-0.2,0.3C13.4,4.1,10.2,8.2,6.1,8.2z M-0.2,3.6c0.8,0.9,3.4,3.6,6.3,3.6c3,0,5.5-2.7,6.3-3.6C11.6,2.7,9.1,0,6.1,0
				C3.1,0,0.6,2.7-0.2,3.6z"/>
            <circle id="Oval-7" class="st1" cx="6" cy="3.5" r="2.9"/>
		</g>
	</g>
</g>
</svg>
