<?xml version="1.0" encoding="UTF-8" standalone="no"?>
<svg height="28px" version="1.1" viewBox="0 0 28 28" width="28px" xmlns="http://www.w3.org/2000/svg"
>
    <g fill-rule="evenodd" id="Page-1" stroke-width="1">
        <g id="admin_google_maps_settings">
            <circle cx="14" cy="14" fill="none" id="Oval-7" r="13"></circle>
            <path d="M13.75,24 C13.75,24 20.5,17.8548 20.5,12.18744 C20.5,8.77032 17.47744,6 13.75,6 C10.02256,6 7,8.77032 7,12.18744 C7,17.8548 13.75,24 13.75,24 L13.75,24 Z M13.75,15 C15.61384,15 17.12488,13.48872 17.12488,11.62512 C17.12488,9.76128 15.61384,8.25 13.75,8.25 C11.88616,8.25 10.37512,9.76128 10.37512,11.62512 C10.37512,13.48872 11.88616,15 13.75,15 L13.75,15 Z"
                  stroke="none"></path>
        </g>
    </g>
</svg>
