<?xml version="1.0" encoding="UTF-8" standalone="no"?>
<svg
   xmlns:dc="http://purl.org/dc/elements/1.1/"
   xmlns:cc="http://creativecommons.org/ns#"
   xmlns:rdf="http://www.w3.org/1999/02/22-rdf-syntax-ns#"
   xmlns:svg="http://www.w3.org/2000/svg"
   xmlns="http://www.w3.org/2000/svg"
   xmlns:sodipodi="http://sodipodi.sourceforge.net/DTD/sodipodi-0.dtd"
   xmlns:inkscape="http://www.inkscape.org/namespaces/inkscape"
   width="28px"
   height="28px"
   viewBox="0 0 28 28"
   version="1.1"
   id="svg2"
   inkscape:version="0.91 r13725"
   sodipodi:docname="admin-locale.svg">
  <metadata
     id="metadata17">
    <rdf:RDF>
      <cc:Work
         rdf:about="">
        <dc:format>image/svg+xml</dc:format>
        <dc:type
           rdf:resource="http://purl.org/dc/dcmitype/StillImage" />
      </cc:Work>
    </rdf:RDF>
  </metadata>
  <sodipodi:namedview
     pagecolor="#ffffff"
     bordercolor="#666666"
     borderopacity="1"
     objecttolerance="10"
     gridtolerance="10"
     guidetolerance="10"
     inkscape:pageopacity="0"
     inkscape:pageshadow="2"
     inkscape:window-width="1366"
     inkscape:window-height="703"
     id="namedview15"
     showgrid="false"
     inkscape:zoom="8.4285714"
     inkscape:cx="0.77118644"
     inkscape:cy="14"
     inkscape:window-x="0"
     inkscape:window-y="0"
     inkscape:window-maximized="1"
     inkscape:current-layer="svg2" />
  <!-- Generator: Sketch 3.8.3 (29802) - http://www.bohemiancoding.com/sketch -->
  <defs
     id="defs8" />
  <path
     id="polygon13"
     style="stroke:none;stroke-width:1"
     d="m 12.689931,22 c -0.475,-1.915133 -0.95,-3.830267 -1.425,-5.7454 -1.9151333,-0.475 -3.8302665,-0.95 -5.7453998,-1.425 C 10.029731,12.714467 14.539931,10.599333 19.050131,8.4842 16.930064,12.989467 14.809998,17.494733 12.689931,22 Z M 14,0.5 C 6.5500782,0.5 0.5,6.5500782 0.5,14 0.5,21.449922 6.5500782,27.5 14,27.5 21.449922,27.5 27.5,21.449922 27.5,14 27.5,6.5500782 21.449922,0.5 14,0.5 Z m 0,1 C 20.909482,1.5 26.5,7.0905183 26.5,14 26.5,20.909482 20.909482,26.5 14,26.5 7.0905183,26.5 1.5,20.909482 1.5,14 1.5,7.0905183 7.0905183,1.5 14,1.5 Z" />
</svg>
