<?xml version="1.0" encoding="UTF-8" standalone="no"?>
<svg
   xmlns:dc="http://purl.org/dc/elements/1.1/"
   xmlns:cc="http://creativecommons.org/ns#"
   xmlns:rdf="http://www.w3.org/1999/02/22-rdf-syntax-ns#"
   xmlns:svg="http://www.w3.org/2000/svg"
   xmlns="http://www.w3.org/2000/svg"
   xmlns:sodipodi="http://sodipodi.sourceforge.net/DTD/sodipodi-0.dtd"
   xmlns:inkscape="http://www.inkscape.org/namespaces/inkscape"
   width="1024"
   height="1024"
   viewBox="0 0 1024 1024"
   version="1.1"
   id="svg2"
   inkscape:version="0.91 r13725"
   sodipodi:docname="admin-aobh-businesshours.svg">
  <metadata
     id="metadata18">
    <rdf:RDF>
      <cc:Work
         rdf:about="">
        <dc:format>image/svg+xml</dc:format>
        <dc:type
           rdf:resource="http://purl.org/dc/dcmitype/StillImage" />
      </cc:Work>
    </rdf:RDF>
  </metadata>
  <sodipodi:namedview
     pagecolor="#ffffff"
     bordercolor="#666666"
     borderopacity="1"
     objecttolerance="10"
     gridtolerance="10"
     guidetolerance="10"
     inkscape:pageopacity="0"
     inkscape:pageshadow="2"
     inkscape:window-width="1366"
     inkscape:window-height="703"
     id="namedview16"
     showgrid="false"
     inkscape:zoom="0.513"
     inkscape:cx="316.21875"
     inkscape:cy="502.60797"
     inkscape:window-x="0"
     inkscape:window-y="0"
     inkscape:window-maximized="1"
     inkscape:current-layer="svg2" />
  <!-- Generator: Sketch 39.1 (31720) - http://www.bohemiancoding.com/sketch -->
  <defs
     id="defs8" />
  <path
     id="path2988"
     style="stroke:none;stroke-width:34.16516876;stroke-linecap:butt;stroke-linejoin:miter;stroke-miterlimit:4;stroke-dasharray:none;stroke-dashoffset:0;stroke-opacity:1;color-rendering:auto;image-rendering:auto;shape-rendering:auto;text-rendering:auto;enable-background:accumulate"
     d="M 512,12 C 380.93435,12 255.23593,64.738232 162.61914,158.52148 70.002347,252.30474 18.005859,379.45459 18.005859,512 c 0,132.54541 51.996488,259.69526 144.613281,353.47852 C 255.23593,959.26177 380.93435,1012 512,1012 643.06565,1012 768.76407,959.26177 861.38086,865.47852 953.99765,771.69526 1005.9941,644.54541 1005.9941,512 1005.9941,379.45459 953.99765,252.30474 861.38086,158.52148 768.76407,64.738232 643.06565,12 512,12 Z m 0,34.166016 c 121.90366,0 238.81274,49.017366 325.07227,136.363284 86.25952,87.34591 134.75585,205.86079 134.75585,329.4707 0,123.60991 -48.49633,242.12479 -134.75585,329.4707 C 750.81274,928.81662 633.90366,977.83398 512,977.83398 390.09634,977.83398 273.18726,928.81662 186.92773,841.4707 100.66821,754.12479 52.171875,635.60991 52.171875,512 52.171875,388.39009 100.66821,269.87521 186.92773,182.5293 273.18726,95.183382 390.09634,46.166016 512,46.166016 Z M 675.87472,323.13611 510.49479,496.57399 399.22294,377.60636 c -10.43457,-11.13624 -27.89719,-11.71343 -38.98816,-1.27886 -11.14755,10.43457 -11.71342,27.85192 -1.27885,38.98816 l 131.24692,140.27813 c 5.17201,5.52284 12.4264,8.70301 20.03166,8.74829 l 0.12353,0 c 7.55996,0 14.7691,-3.08965 19.98638,-8.53325 L 715.89181,361.20757 c 10.5138,-11.01175 10.07241,-28.47437 -0.92793,-38.99947 -11.1023,-10.51379 -28.5649,-10.07242 -39.09002,0.92801 l 0,0 z m 198.98107,188.33146 0,-0.1695 C 874.45968,311.5585 711.81853,149.14369 512,149.14369 c -199.81854,0 -362.45969,162.41481 -362.8558,362.15412 l 0,0.1695 0,0.0919 0,0.44127 c 0,200.09017 162.76564,362.8558 362.8558,362.8558 200.09013,0 362.85579,-162.76563 362.85579,-362.8558 l 0,-0.44127 0,-0.0919 0,0 z m -335.26418,306.93692 0,-48.58521 c 0,-15.24444 -12.33588,-27.58032 -27.59161,-27.58032 -15.25574,0 -27.59161,12.33588 -27.59161,27.58032 l 0,48.58521 C 336.58159,805.18588 218.54199,687.02178 205.54971,539.05918 l 48.05332,0 c 15.25574,0 27.5803,-12.33585 27.5803,-27.59161 0,-15.25573 -12.32456,-27.58029 -27.5803,-27.58029 l -48.00805,0 c 13.43365,-147.442 131.24691,-265.11946 278.77945,-278.29281 l 0,47.52141 c 0,15.25574 12.32456,27.5803 27.58029,27.5803 15.25576,0 27.59164,-12.32456 27.59164,-27.5803 l 0,-47.52141 c 147.52119,13.17335 265.33448,130.85081 278.76813,278.29281 l -48.00806,0 c -15.24444,0 -27.58032,12.32456 -27.58032,27.58029 0,15.25576 12.33588,27.59161 27.58032,27.59161 l 48.05331,0 C 805.45799,686.97651 687.46366,805.18588 539.59161,818.40449 l 0,0 z" />
</svg>
