<?xml version="1.0" encoding="UTF-8" standalone="no"?>
<svg
   xmlns:dc="http://purl.org/dc/elements/1.1/"
   xmlns:cc="http://creativecommons.org/ns#"
   xmlns:rdf="http://www.w3.org/1999/02/22-rdf-syntax-ns#"
   xmlns:svg="http://www.w3.org/2000/svg"
   xmlns="http://www.w3.org/2000/svg"
   xmlns:sodipodi="http://sodipodi.sourceforge.net/DTD/sodipodi-0.dtd"
   xmlns:inkscape="http://www.inkscape.org/namespaces/inkscape"
   width="1024"
   height="1024"
   viewBox="0 0 1024 1024"
   version="1.1"
   id="svg2"
   inkscape:version="0.91 r13725"
   sodipodi:docname="admin-module-builder.svg">
  <metadata
     id="metadata17">
    <rdf:RDF>
      <cc:Work
         rdf:about="">
        <dc:format>image/svg+xml</dc:format>
        <dc:type
           rdf:resource="http://purl.org/dc/dcmitype/StillImage" />
      </cc:Work>
    </rdf:RDF>
  </metadata>
  <sodipodi:namedview
     pagecolor="#ffffff"
     bordercolor="#666666"
     borderopacity="1"
     objecttolerance="10"
     gridtolerance="10"
     guidetolerance="10"
     inkscape:pageopacity="0"
     inkscape:pageshadow="2"
     inkscape:window-width="1366"
     inkscape:window-height="703"
     id="namedview15"
     showgrid="false"
     inkscape:zoom="0.513"
     inkscape:cx="512"
     inkscape:cy="512"
     inkscape:window-x="0"
     inkscape:window-y="0"
     inkscape:window-maximized="1"
     inkscape:current-layer="svg2" />
  <!-- Generator: Sketch 3.8.3 (29802) - http://www.bohemiancoding.com/sketch -->
  <defs
     id="defs8" />
  <path
     id="path13"
     style="fill-rule:evenodd;stroke:none;stroke-width:1"
     d="m 752.38167,495.05185 c -0.24445,-0.58481 -0.49,-1.13778 -0.82963,-1.69074 -0.58482,-0.98778 -1.35889,-1.82518 -2.22037,-2.62333 -0.34074,-0.30741 -0.49778,-0.77445 -0.90074,-1.05074 -0.18149,-0.12593 -0.42667,-0.12593 -0.58482,-0.24445 -0.21481,-0.15926 -0.34074,-0.37148 -0.58481,-0.52926 l -55.43471,-31.66889 c 7.37974,-7.12692 12.25482,-16.79011 12.25482,-27.68592 0,-14.75159 -8.20937,-28.01778 -21.42026,-34.65482 l -90.46122,-45.25037 10.49285,-26.2321 7.09529,-3.54766 c 3.67408,2.22026 7.93286,3.42122 12.34963,3.42122 2.25186,0 4.5353,-0.30815 6.81878,-0.92445 l 95.15456,-27.21972 c 17.28789,-4.96988 29.35307,-20.99358 29.35307,-38.95309 0,-22.31309 -18.18074,-40.49383 -40.49381,-40.49383 l -11.35408,0 c -9.20492,0 -18.18074,3.14471 -25.31555,8.85729 l -69.22271,55.37185 c -5.74422,4.59852 -8.54915,11.20395 -8.802,18.05432 l -10.83259,5.40444 c -2.71,1.359 -4.84344,3.64249 -5.95752,6.47902 l -11.48048,28.70518 -34.5047,-17.22469 c -26.35852,-13.17926 -60.12048,-6.05234 -78.91752,16.48198 L 351.394,464.07111 170.03696,512.43456 c -0.67952,0.18148 -1.201,0.61629 -1.84889,0.92444 -0.37137,0.18148 -0.80593,0.0963 -1.1773,0.30741 -0.21333,0.12592 -0.30814,0.40296 -0.52148,0.52148 -1.54074,1.05074 -2.89974,2.28333 -3.8558,3.89533 -0.0948,0.18148 -0.15815,0.33334 -0.25296,0.52148 -0.79804,1.54074 -1.23259,3.23963 -1.32741,5.00149 0,0.24444 -0.18185,0.45814 -0.18185,0.73481 l 0,172.84741 c 0,4.40889 2.37826,8.51752 6.23407,10.70615 l 172.83977,98.76618 c 1.88049,1.08248 4.01383,1.63556 6.11555,1.63556 1.201,0 2.46519,-0.18149 3.66619,-0.55297 L 744.78856,684.28641 c 5.15951,-1.60408 8.67555,-6.39208 8.67555,-11.79652 l 0,-172.83163 c 0,-0.43445 -0.24444,-0.77445 -0.27778,-1.17741 -0.12592,-1.20111 -0.37148,-2.31518 -0.80592,-3.42926 l 0,0 z M 691.76337,243.8479 c 2.74963,-2.22026 6.2657,-3.45285 9.85285,-3.45285 l 11.38567,0 c 8.69926,0 15.80248,7.09531 15.80248,15.80247 0,7.00839 -4.72493,13.27407 -11.44889,15.18617 l -88.61233,25.33926 c -0.0316,-0.0633 -0.0316,-0.0633 -0.0316,-0.1263 -0.27778,-0.55307 -0.77445,-0.92444 -1.11408,-1.41433 L 691.76337,243.848 Z M 475.59352,353.63556 c 7.68789,-9.19704 18.92344,-14.47507 30.89381,-14.47507 6.20248,0 12.40493,1.47752 18.05434,4.22717 l 36.26666,18.11753 -2.49666,6.23407 -119.87752,71.94863 c -5.83111,3.51592 -7.71952,11.07755 -4.22715,16.94026 2.34667,3.85581 6.41578,5.98915 10.61926,5.98915 2.15704,0 4.37726,-0.55297 6.35259,-1.79371 l 123.45678,-74.07407 c 2.31518,-1.38259 4.10863,-3.48445 5.12789,-5.98122 l 3.27111,-8.15408 88.66767,44.32593 c 4.78814,2.40185 7.7827,7.2217 7.7827,12.68148 0,6.48689 -4.38519,12.07307 -10.68244,13.64541 l -5.98915,1.50926 c -0.0316,0 -0.0556,0.0316 -0.0852,0.0316 l -332.3199,83.05778 145.1852,-174.23011 z m -189.3531,201.97925 c 2.25185,3.63445 6.26568,5.76789 10.43753,5.76789 0.97974,0 1.999,-0.12592 3.01826,-0.40296 l 41.48148,-10.36641 35.58716,21.35704 c 1.97519,1.20111 4.17185,1.75407 6.32889,1.75407 4.16396,0 8.27259,-2.12555 10.58767,-5.98122 3.51592,-5.87063 1.63555,-13.43211 -4.22715,-16.94815 l -14.44348,-8.67555 47.46274,-11.85185 28.33381,16.97974 c 2.00704,1.23259 4.20345,1.7937 6.36048,1.7937 4.16397,0 8.2726,-2.13333 10.58767,-5.98915 3.51593,-5.8627 1.63556,-13.43211 -4.22715,-16.94815 l -7.19014,-4.29037 47.46274,-11.88344 21.04888,12.65778 c 2.03852,1.20111 4.23504,1.75407 6.39208,1.75407 4.16396,0 8.27259,-2.12555 10.58767,-5.98126 3.48444,-5.839 1.63555,-13.36889 -4.14026,-16.88492 l 47.47063,-11.88345 13.79555,8.27259 c 2.00704,1.2326 4.20345,1.79371 6.36048,1.79371 4.16397,0 8.2726,-2.13333 10.58767,-5.98911 2.25185,-3.76889 2.07,-8.15408 0.24444,-11.78867 l 47.96052,-12.00985 46.26963,26.45333 L 347.5061,609.71481 205.4419,528.54544 324.04733,496.90889 287.19597,541.14 c -3.42122,4.13237 -3.79259,9.93185 -0.95603,14.47507 l 0,0 z m 47.47061,219.03804 -148.14814,-84.63015 0,-144.37926 148.14814,84.63015 0,144.37926 z m 395.06175,-111.23359 -370.37039,115.7373 0,-146.97089 370.37039,-115.74519 0,146.97878 z M 512,12 C 379.39887,12 252.21042,64.684108 158.44727,158.44727 64.684108,252.21042 12,379.39887 12,512 12,644.60113 64.684108,771.78958 158.44727,865.55273 252.21042,959.31589 379.39887,1012 512,1012 644.60113,1012 771.78958,959.31589 865.55273,865.55273 959.31589,771.78958 1012,644.60113 1012,512 1012,379.39887 959.31589,252.21042 865.55273,158.44727 771.78958,64.684108 644.60113,12 512,12 Z m 0,37.037109 c 122.79253,0 240.53585,48.772183 327.36328,135.599611 86.82743,86.82743 135.59961,204.57075 135.59961,327.36328 0,122.79253 -48.77218,240.53585 -135.59961,327.36328 C 752.53585,926.19071 634.79253,974.96289 512,974.96289 389.20747,974.96289 271.46415,926.19071 184.63672,839.36328 97.809292,752.53585 49.037109,634.79253 49.037109,512 49.037109,389.20747 97.809292,271.46415 184.63672,184.63672 271.46415,97.809292 389.20747,49.037109 512,49.037109 Z" />
</svg>
