<?xml version="1.0" encoding="UTF-8" standalone="no"?>
<svg
   xmlns:dc="http://purl.org/dc/elements/1.1/"
   xmlns:cc="http://creativecommons.org/ns#"
   xmlns:rdf="http://www.w3.org/1999/02/22-rdf-syntax-ns#"
   xmlns:svg="http://www.w3.org/2000/svg"
   xmlns="http://www.w3.org/2000/svg"
   xmlns:sodipodi="http://sodipodi.sourceforge.net/DTD/sodipodi-0.dtd"
   xmlns:inkscape="http://www.inkscape.org/namespaces/inkscape"
   width="1024"
   height="1024"
   viewBox="0 0 1024 1024"
   version="1.1"
   id="svg2"
   inkscape:version="0.91 r13725"
   sodipodi:docname="admin-email-settings.svg">
  <metadata
     id="metadata17">
    <rdf:RDF>
      <cc:Work
         rdf:about="">
        <dc:format>image/svg+xml</dc:format>
        <dc:type
           rdf:resource="http://purl.org/dc/dcmitype/StillImage" />
      </cc:Work>
    </rdf:RDF>
  </metadata>
  <sodipodi:namedview
     pagecolor="#ffffff"
     bordercolor="#666666"
     borderopacity="1"
     objecttolerance="10"
     gridtolerance="10"
     guidetolerance="10"
     inkscape:pageopacity="0"
     inkscape:pageshadow="2"
     inkscape:window-width="1366"
     inkscape:window-height="703"
     id="namedview15"
     showgrid="false"
     inkscape:zoom="0.513"
     inkscape:cx="138.70566"
     inkscape:cy="483.05662"
     inkscape:window-x="0"
     inkscape:window-y="0"
     inkscape:window-maximized="1"
     inkscape:current-layer="svg2" />
  <!-- Generator: Sketch 3.8.3 (29802) - http://www.bohemiancoding.com/sketch -->
  <defs
     id="defs8" />
  <g
     id="Page-1"
     style="fill-rule:evenodd;stroke:none;stroke-width:1"
     transform="matrix(37.037037,0,0,37.037037,-6.518518,4.881)">
    <g
       id="admin_email_settings">
      <path
         id="path13"
         d="m 7.4549333,7.548 c -0.7025066,0 -1.28576,0.49344 -1.4231466,1.1543467 L 14,16.67056 21.968427,8.7023467 C 21.829973,8.0422933 21.247573,7.548 20.545067,7.548 l -13.090987,0 M 6,9.6988267 6,18.646453 10.47424,14.172213 6,9.6981867 m 16,0 L 17.590827,14.107147 22,18.51632 22,9.69648 m -4.923307,4.923307 -2.8192,2.8192 c -0.141653,0.141653 -0.37248,0.141653 -0.514133,0 L 10.989227,14.684853 6.06336,19.610507 c 0.18176,0.59584 0.73408,1.026773 1.39072,1.026773 l 13.090987,0 c 0.694186,0 1.269973,-0.481707 1.417386,-1.130027 L 17.07584,14.62064 M 14,0.5 C 6.5500782,0.5 0.5,6.5500782 0.5,14 0.5,21.449922 6.5500782,27.5 14,27.5 21.449922,27.5 27.5,21.449922 27.5,14 27.5,6.5500782 21.449922,0.5 14,0.5 Z m 0,1 C 20.909482,1.5 26.5,7.0905183 26.5,14 26.5,20.909482 20.909482,26.5 14,26.5 7.0905183,26.5 1.5,20.909482 1.5,14 1.5,7.0905183 7.0905183,1.5 14,1.5 Z" />
    </g>
  </g>
</svg>
