<?xml version="1.0" encoding="UTF-8"?>
<svg width="70px" height="70px" viewBox="0 0 70 70" version="1.1" xmlns="http://www.w3.org/2000/svg" xmlns:xlink="http://www.w3.org/1999/xlink">
    <g id="icon_admin_tools" stroke="none" stroke-width="1" fill="none" fill-rule="evenodd">
        <path d="M35,0 C54.3299662,0 70,15.6700338 70,35 C70,54.3299662 54.3299662,70 35,70 C15.6700338,70 0,54.3299662 0,35 C0,15.6700338 15.6700338,0 35,0 Z M35,3 C17.326888,3 3,17.326888 3,35 C3,52.673112 17.326888,67 35,67 C52.673112,67 67,52.673112 67,35 C67,17.326888 52.673112,3 35,3 Z" id="Oval" fill="#F08377" fill-rule="nonzero"></path>
        <path d="M52.0866327,17.9171201 C50.1444859,15.9734134 47.5975556,15 45.0508253,15 C42.504015,15 39.9601646,15.9734134 38.0198177,17.9171201 L27.965293,27.968445 L17.9139697,38.0197699 C14.0281561,41.8993437 14.0281561,48.2006912 17.9170948,52.0865844 C21.7966698,55.9692782 28.0996173,55.9692782 31.982311,52.0865844 L39.8928945,44.1776013 L52.0861607,31.9843351 C55.9688464,28.0985215 55.9688464,21.7970139 52.0861607,17.9175201 L52.0866327,17.9171201 Z M49.9460513,29.8431937 L39.8915265,39.8945186 L30.1057944,30.1087864 L40.1635191,20.0574616 C41.4681634,18.7496974 43.2056358,18.0293971 45.0509853,18.0293971 C46.8993747,18.0293971 48.639967,18.7512573 49.9460513,20.0574616 C52.6412975,22.7511478 52.6412975,27.1448676 49.9460513,29.8431937 Z" id="Fill-1" fill="#F08377"></path>
    </g>
</svg>
