<?xml version="1.0" encoding="UTF-8" standalone="no"?>
<svg
   xmlns:dc="http://purl.org/dc/elements/1.1/"
   xmlns:cc="http://creativecommons.org/ns#"
   xmlns:rdf="http://www.w3.org/1999/02/22-rdf-syntax-ns#"
   xmlns:svg="http://www.w3.org/2000/svg"
   xmlns="http://www.w3.org/2000/svg"
   xmlns:sodipodi="http://sodipodi.sourceforge.net/DTD/sodipodi-0.dtd"
   xmlns:inkscape="http://www.inkscape.org/namespaces/inkscape"
   width="1024"
   height="1024"
   viewBox="0 0 1024 1024"
   version="1.1"
   id="svg2"
   inkscape:version="0.91 r13725"
   sodipodi:docname="admin-email-queue.svg">
  <metadata
     id="metadata17">
    <rdf:RDF>
      <cc:Work
         rdf:about="">
        <dc:format>image/svg+xml</dc:format>
        <dc:type
           rdf:resource="http://purl.org/dc/dcmitype/StillImage" />
      </cc:Work>
    </rdf:RDF>
  </metadata>
  <sodipodi:namedview
     pagecolor="#ffffff"
     bordercolor="#666666"
     borderopacity="1"
     objecttolerance="10"
     gridtolerance="10"
     guidetolerance="10"
     inkscape:pageopacity="0"
     inkscape:pageshadow="2"
     inkscape:window-width="1366"
     inkscape:window-height="703"
     id="namedview15"
     showgrid="false"
     inkscape:zoom="0.513"
     inkscape:cx="500.5"
     inkscape:cy="500.5"
     inkscape:window-x="0"
     inkscape:window-y="0"
     inkscape:window-maximized="1"
     inkscape:current-layer="svg2" />
  <!-- Generator: Sketch 3.8.3 (29802) - http://www.bohemiancoding.com/sketch -->
  <defs
     id="defs8" />
  <path
     id="path13"
     style="fill-rule:evenodd;stroke:none;stroke-width:1"
     d="m 696.3087,657.0807 c 53.82697,-35.97222 89.39189,-97.30103 89.39189,-166.78866 0,-110.5443 -89.95685,-200.51426 -200.50115,-200.51426 -110.54429,0 -200.51425,89.96996 -200.51425,200.51426 0,31.9257 7.54129,62.09085 20.83711,88.89266 12.52063,2.45667 44.9587,8.67115 96.2237,17.34234 57.17719,9.69592 94.94933,1.89185 126.34948,-26.07923 19.65467,-17.5 31.30819,-41.56903 32.79278,-67.79277 1.55037,-26.22374 -7.22596,-51.52778 -24.72596,-71.12989 -28.12874,-31.55782 -76.62163,-34.38252 -108.24511,-6.3063 -25.25152,22.47934 -28.43093,61.73611 -7.02893,85.80519 16.79055,18.84007 47.67833,20.99474 66.15055,4.57207 6.83182,-6.0567 10.87838,-14.16292 11.29878,-22.79467 0.35556,-7.02892 -1.7474,-13.65051 -5.80703,-18.11751 -3.63926,-3.99397 -9.43319,-6.20119 -15.39793,-6.14863 -5.0713,0.14444 -11.64037,2.15481 -15.89715,6.35885 -1.03778,0.97222 -2.31222,1.58963 -3.75748,1.58963 -3.12704,0 -5.63626,-2.82482 -5.63626,-6.25374 0,-2.11519 0.86704,-3.6526 1.94445,-5.137 6.4114,-8.7763 15.45044,-13.86074 24.42377,-14.62278 12.16593,-1.02482 22.01952,2.45704 29.8236,11.02293 7.75148,8.52662 11.79803,19.86485 11.08859,32.38551 -0.77519,14.16289 -7.23911,27.3536 -18.27515,37.15463 -27.19596,24.22674 -70.9197,21.31008 -95.50115,-6.25374 -28.90389,-32.49063 -24.89678,-85.1877 8.72374,-115.16892 40.12385,-35.70945 101.87311,-32.12274 137.53004,8.01426 21.15237,23.75377 31.82056,54.39188 29.98122,86.15992 -1.85259,31.82056 -15.96285,60.97411 -39.72974,82.11337 -26.73611,23.81945 -57.99174,35.26274 -97.97111,35.26274 -14.05778,0 -29.24548,-1.44518 -45.66815,-4.20418 -56.61226,-9.60393 -117.07396,-20.37719 -125.18018,-21.50708 -40.74137,-5.43918 -74.6115,-33.10811 -75.68882,-73.79692 l 10.31344,-177.92981 c 0,-11.44331 -9.28867,-20.78453 -20.78454,-20.78453 -11.49587,0 -20.78453,9.28866 -20.78453,20.78453 0,0 6.05668,108.07433 6.76614,121.72484 1.34007,25.92156 -22.53191,46.70612 -48.80819,46.70612 -26.93318,0 -50.91028,-21.91445 -48.79504,-48.80819 1.16929,-14.88552 2.40429,-30.28341 3.63926,-44.69596 l 4.30931,-73.65241 c 0,-11.44331 -9.28866,-20.78453 -20.78453,-20.78453 -11.49588,0 -20.78454,9.28866 -20.78454,20.78453 L 151.746,519.34048 c 0,122.28978 69.78979,221.70608 191.82996,221.60096 123.11748,-0.15926 472.10585,0 472.10585,0 10.05071,0 18.17004,-8.15877 18.17004,-18.17003 0,-10.05067 -8.57918,-15.0826 -18.11748,-18.11748 C 811.10974,703.2217 761.38189,679.45496 696.3087,657.0807 Z M 512,12 C 379.39887,12 252.21042,64.684108 158.44727,158.44727 64.684108,252.21042 12,379.39887 12,512 12,644.60113 64.684108,771.78958 158.44727,865.55273 252.21042,959.31589 379.39887,1012 512,1012 644.60113,1012 771.78958,959.31589 865.55273,865.55273 959.31589,771.78958 1012,644.60113 1012,512 1012,379.39887 959.31589,252.21042 865.55273,158.44727 771.78958,64.684108 644.60113,12 512,12 Z m 0,37.037109 c 122.79253,0 240.53585,48.772183 327.36328,135.599611 86.82743,86.82743 135.59961,204.57075 135.59961,327.36328 0,122.79253 -48.77218,240.53585 -135.59961,327.36328 C 752.53585,926.19071 634.79253,974.96289 512,974.96289 389.20747,974.96289 271.46415,926.19071 184.63672,839.36328 97.809292,752.53585 49.037109,634.79253 49.037109,512 49.037109,389.20747 97.809292,271.46415 184.63672,184.63672 271.46415,97.809292 389.20747,49.037109 512,49.037109 Z" />
</svg>
