<?xml version="1.0" encoding="UTF-8" standalone="no"?>
<svg
   xmlns:dc="http://purl.org/dc/elements/1.1/"
   xmlns:cc="http://creativecommons.org/ns#"
   xmlns:rdf="http://www.w3.org/1999/02/22-rdf-syntax-ns#"
   xmlns:svg="http://www.w3.org/2000/svg"
   xmlns="http://www.w3.org/2000/svg"
   xmlns:sodipodi="http://sodipodi.sourceforge.net/DTD/sodipodi-0.dtd"
   xmlns:inkscape="http://www.inkscape.org/namespaces/inkscape"
   width="1024"
   height="1024"
   viewBox="0 0 1024 1024"
   version="1.1"
   id="svg2"
   inkscape:version="0.91 r13725"
   sodipodi:docname="admin-import.svg">
  <metadata
     id="metadata19">
    <rdf:RDF>
      <cc:Work
         rdf:about="">
        <dc:format>image/svg+xml</dc:format>
        <dc:type
           rdf:resource="http://purl.org/dc/dcmitype/StillImage" />
      </cc:Work>
    </rdf:RDF>
  </metadata>
  <sodipodi:namedview
     pagecolor="#ffffff"
     bordercolor="#666666"
     borderopacity="1"
     objecttolerance="10"
     gridtolerance="10"
     guidetolerance="10"
     inkscape:pageopacity="0"
     inkscape:pageshadow="2"
     inkscape:window-width="1366"
     inkscape:window-height="703"
     id="namedview17"
     showgrid="false"
     inkscape:zoom="0.513"
     inkscape:cx="500.5"
     inkscape:cy="512"
     inkscape:window-x="0"
     inkscape:window-y="0"
     inkscape:window-maximized="1"
     inkscape:current-layer="svg2" />
  <!-- Generator: Sketch 3.8.3 (29802) - http://www.bohemiancoding.com/sketch -->
  <defs
     id="defs8" />
  <path
     id="Fill-2"
     style="fill-rule:evenodd;stroke:none;stroke-width:1"
     d="m 535.0171,330.52079 c -20.68604,0 -41.19887,2.63474 -60.96411,7.79488 l 9.11682,34.86267 c 16.77492,-4.37607 34.2245,-6.6188 51.84729,-6.6188 112.74756,0 204.45356,91.69687 204.45356,204.45356 0,112.71112 -91.73333,204.44445 -204.45356,204.44445 -112.71111,0 -204.45356,-91.69685 -204.45356,-204.44445 0,-18.09686 2.35214,-36.01139 7.01994,-53.24216 l -34.78974,-9.37208 c -5.48832,20.30313 -8.23248,41.39031 -8.23248,62.65071 0,132.58576 107.87008,240.45583 240.45584,240.45583 132.62223,0 240.4923,-107.87007 240.4923,-240.45583 0,-132.65869 -107.87007,-240.52878 -240.4923,-240.52878 l 0,0 z M 520.27522,527.09743 C 418.63799,425.46021 317.00076,323.82298 215.36354,222.18575 c -8.48775,8.48775 -16.9755,16.9755 -25.46325,25.46325 101.7679,101.78006 203.5358,203.56011 305.3037,305.34017 -33.21557,0 -66.43115,0 -99.64672,0 0,12.01292 0,24.02583 0,36.03875 53.57341,0 107.14682,0 160.72022,0 0,-53.58556 0,-107.17113 0,-160.7567 -12.00076,0 -24.00151,0 -36.00227,0 0,32.94207 0,65.88414 0,98.82621 z M 500.5,12 C 367.89887,12 240.71042,64.684108 146.94727,158.44727 53.184108,252.21042 0.5,379.39887 0.5,512 0.5,644.60113 53.184108,771.78958 146.94727,865.55273 240.71042,959.31589 367.89887,1012 500.5,1012 633.10113,1012 760.28958,959.31589 854.05273,865.55273 947.81589,771.78958 1000.5,644.60113 1000.5,512 1000.5,379.39887 947.81589,252.21042 854.05273,158.44727 760.28958,64.684108 633.10113,12 500.5,12 Z m 0,37.037109 c 122.79253,0 240.53585,48.772183 327.36328,135.599611 86.82743,86.82743 135.59961,204.57075 135.59961,327.36328 0,122.79253 -48.77218,240.53585 -135.59961,327.36328 C 741.03585,926.19071 623.29253,974.96289 500.5,974.96289 377.70747,974.96289 259.96415,926.19071 173.13672,839.36328 86.309292,752.53585 37.537109,634.79253 37.537109,512 37.537109,389.20747 86.309292,271.46415 173.13672,184.63672 259.96415,97.809292 377.70747,49.037109 500.5,49.037109 Z" />
</svg>
