<?xml version="1.0" encoding="UTF-8" standalone="no"?>
<svg
   xmlns:dc="http://purl.org/dc/elements/1.1/"
   xmlns:cc="http://creativecommons.org/ns#"
   xmlns:rdf="http://www.w3.org/1999/02/22-rdf-syntax-ns#"
   xmlns:svg="http://www.w3.org/2000/svg"
   xmlns="http://www.w3.org/2000/svg"
   xmlns:sodipodi="http://sodipodi.sourceforge.net/DTD/sodipodi-0.dtd"
   xmlns:inkscape="http://www.inkscape.org/namespaces/inkscape"
   width="1024"
   height="1024"
   viewBox="0 0 1024 1024"
   version="1.1"
   id="svg2"
   inkscape:version="0.91 r13725"
   sodipodi:docname="admin-releases.svg">
  <metadata
     id="metadata20">
    <rdf:RDF>
      <cc:Work
         rdf:about="">
        <dc:format>image/svg+xml</dc:format>
        <dc:type
           rdf:resource="http://purl.org/dc/dcmitype/StillImage" />
      </cc:Work>
    </rdf:RDF>
  </metadata>
  <sodipodi:namedview
     pagecolor="#ffffff"
     bordercolor="#666666"
     borderopacity="1"
     objecttolerance="10"
     gridtolerance="10"
     guidetolerance="10"
     inkscape:pageopacity="0"
     inkscape:pageshadow="2"
     inkscape:window-width="1366"
     inkscape:window-height="703"
     id="namedview18"
     showgrid="false"
     inkscape:zoom="0.513"
     inkscape:cx="500.5"
     inkscape:cy="500.5"
     inkscape:window-x="0"
     inkscape:window-y="0"
     inkscape:window-maximized="1"
     inkscape:current-layer="svg2" />
  <!-- Generator: Sketch 3.8.3 (29802) - http://www.bohemiancoding.com/sketch -->
  <defs
     id="defs8" />
  <path
     id="Fill-3"
     style="fill-rule:evenodd;stroke:none;stroke-width:1"
     d="M 414.11111,257.79551 C 347.9753,324.16419 281.8395,390.53287 215.7037,456.90154 c 119.04938,0 238.09877,0 357.14815,0 66.13581,-66.36867 132.27159,-132.73735 198.4074,-199.10603 -119.04937,0 -238.09876,0 -357.14814,0 z m 158.74074,358.37598 c 66.13581,-66.36124 132.27159,-132.72248 198.4074,-199.08372 -26.45677,0 -52.91359,0 -79.37037,0 -26.45677,26.54003 -52.91359,53.08007 -79.37037,79.62011 -92.59259,0 -185.18518,0 -277.77777,0 -39.67901,39.8212 -79.35803,79.64241 -119.03704,119.46361 119.04938,0 238.09877,0 357.14815,0 z m 0,159.29225 c 66.13581,-66.36867 132.27159,-132.73733 198.4074,-199.10602 -26.45677,0 -52.91359,0 -79.37037,0 -26.45677,26.54994 -52.91359,53.09987 -79.37037,79.64983 -92.59259,0 -185.18518,0 -277.77777,0 -39.67901,39.81875 -79.35803,79.63745 -119.03704,119.45619 119.04938,0 238.09877,0 357.14815,0 z M 512,12 C 379.39887,12 252.21042,64.684108 158.44727,158.44727 64.684108,252.21042 12,379.39887 12,512 12,644.60113 64.684108,771.78958 158.44727,865.55273 252.21042,959.31589 379.39887,1012 512,1012 644.60113,1012 771.78958,959.31589 865.55273,865.55273 959.31589,771.78958 1012,644.60113 1012,512 1012,379.39887 959.31589,252.21042 865.55273,158.44727 771.78958,64.684108 644.60113,12 512,12 Z m 0,37.037109 c 122.79253,0 240.53585,48.772183 327.36328,135.599611 86.82743,86.82743 135.59961,204.57075 135.59961,327.36328 0,122.79253 -48.77218,240.53585 -135.59961,327.36328 C 752.53585,926.19071 634.79253,974.96289 512,974.96289 389.20747,974.96289 271.46415,926.19071 184.63672,839.36328 97.809292,752.53585 49.037109,634.79253 49.037109,512 49.037109,389.20747 97.809292,271.46415 184.63672,184.63672 271.46415,97.809292 389.20747,49.037109 512,49.037109 Z" />
</svg>
