<?xml version="1.0" encoding="UTF-8" standalone="no"?>
<svg
   xmlns:dc="http://purl.org/dc/elements/1.1/"
   xmlns:cc="http://creativecommons.org/ns#"
   xmlns:rdf="http://www.w3.org/1999/02/22-rdf-syntax-ns#"
   xmlns:svg="http://www.w3.org/2000/svg"
   xmlns="http://www.w3.org/2000/svg"
   xmlns:sodipodi="http://sodipodi.sourceforge.net/DTD/sodipodi-0.dtd"
   xmlns:inkscape="http://www.inkscape.org/namespaces/inkscape"
   width="1024"
   height="1024"
   viewBox="0 0 1024 1024"
   version="1.1"
   id="svg2"
   inkscape:version="0.91 r13725"
   sodipodi:docname="admin-roles.svg">
  <metadata
     id="metadata17">
    <rdf:RDF>
      <cc:Work
         rdf:about="">
        <dc:format>image/svg+xml</dc:format>
        <dc:type
           rdf:resource="http://purl.org/dc/dcmitype/StillImage" />
      </cc:Work>
    </rdf:RDF>
  </metadata>
  <sodipodi:namedview
     pagecolor="#ffffff"
     bordercolor="#666666"
     borderopacity="1"
     objecttolerance="10"
     gridtolerance="10"
     guidetolerance="10"
     inkscape:pageopacity="0"
     inkscape:pageshadow="2"
     inkscape:window-width="1366"
     inkscape:window-height="703"
     id="namedview15"
     showgrid="false"
     inkscape:zoom="0.513"
     inkscape:cx="512"
     inkscape:cy="512"
     inkscape:window-x="0"
     inkscape:window-y="0"
     inkscape:window-maximized="1"
     inkscape:current-layer="svg2" />
  <!-- Generator: Sketch 3.8.3 (29802) - http://www.bohemiancoding.com/sketch -->
  <defs
     id="defs8" />
  <path
     id="path13"
     style="stroke:none;stroke-width:1"
     d="m 398.02007,289.86736 c -9.83822,0.54445 -19.62581,3.16545 -30.02118,7.86298 -22.5507,9.99019 -39.80876,31.99643 -47.27924,58.25705 l -74.88202,260.0232 -43.03753,0 c -12.206,-1.03829 -24.13343,9.68626 -24.13343,22.05689 0,12.06671 11.96542,23.09515 24.13343,22.00622 l 626.12712,0 c 12.21867,1.03815 24.13345,-9.99014 24.13345,-22.00622 0,-12.31996 -11.96545,-23.09518 -24.13345,-22.05689 l -43.03752,0 -74.83137,-260.0232 c -7.41985,-26.20997 -24.67792,-48.26686 -47.27926,-58.25705 -20.7274,-9.20514 -39.27696,-10.48398 -60.00437,-2.87423 l -87.8857,32.55355 -87.88574,-32.55355 c -10.3447,-3.95049 -20.18293,-5.48257 -29.98319,-4.98875 l 0,0 z m 5.54589,45.40529 c 4.49493,0 9.29378,1.03826 14.34585,2.86155 l 90.26612,33.33861 c 2.36777,1.03815 5.0394,1.29149 7.71107,1.29149 2.67148,0 5.34326,-0.25186 7.71104,-1.29149 l 90.26611,-33.33861 c 26.80511,-9.99017 48.87466,10.24342 54.45852,29.93254 l 45.40529,157.13322 -395.6313,0 45.40529,-157.13322 c 4.49494,-16.02984 19.87905,-32.55351 40.06201,-32.79409 l 0,0 z m -98.23042,233.9905 421.1069,0 13.25693,46.69678 -447.62076,0 13.25693,-46.69678 z M 512,12 C 379.39887,12 252.21042,64.684108 158.44727,158.44727 64.684108,252.21042 12,379.39887 12,512 12,644.60113 64.684108,771.78958 158.44727,865.55273 252.21042,959.31589 379.39887,1012 512,1012 644.60113,1012 771.78958,959.31589 865.55273,865.55273 959.31589,771.78958 1012,644.60113 1012,512 1012,379.39887 959.31589,252.21042 865.55273,158.44727 771.78958,64.684108 644.60113,12 512,12 Z m 0,37.037109 c 122.79253,0 240.53585,48.772183 327.36328,135.599611 86.82743,86.82743 135.59961,204.57075 135.59961,327.36328 0,122.79253 -48.77218,240.53585 -135.59961,327.36328 C 752.53585,926.19071 634.79253,974.96289 512,974.96289 389.20747,974.96289 271.46415,926.19071 184.63672,839.36328 97.809292,752.53585 49.037109,634.79253 49.037109,512 49.037109,389.20747 97.809292,271.46415 184.63672,184.63672 271.46415,97.809292 389.20747,49.037109 512,49.037109 Z" />
</svg>
