<?xml version="1.0" encoding="UTF-8" standalone="no"?>
<svg
   xmlns:dc="http://purl.org/dc/elements/1.1/"
   xmlns:cc="http://creativecommons.org/ns#"
   xmlns:rdf="http://www.w3.org/1999/02/22-rdf-syntax-ns#"
   xmlns:svg="http://www.w3.org/2000/svg"
   xmlns="http://www.w3.org/2000/svg"
   xmlns:sodipodi="http://sodipodi.sourceforge.net/DTD/sodipodi-0.dtd"
   xmlns:inkscape="http://www.inkscape.org/namespaces/inkscape"
   width="1024"
   height="1024"
   viewBox="0 0 1024 1024"
   version="1.1"
   id="svg2"
   inkscape:version="0.91 r13725"
   sodipodi:docname="admin-module-loader.svg">
  <metadata
     id="metadata20">
    <rdf:RDF>
      <cc:Work
         rdf:about="">
        <dc:format>image/svg+xml</dc:format>
        <dc:type
           rdf:resource="http://purl.org/dc/dcmitype/StillImage" />
      </cc:Work>
    </rdf:RDF>
  </metadata>
  <sodipodi:namedview
     pagecolor="#ffffff"
     bordercolor="#666666"
     borderopacity="1"
     objecttolerance="10"
     gridtolerance="10"
     guidetolerance="10"
     inkscape:pageopacity="0"
     inkscape:pageshadow="2"
     inkscape:window-width="1366"
     inkscape:window-height="703"
     id="namedview18"
     showgrid="false"
     inkscape:zoom="0.2565"
     inkscape:cx="436.73858"
     inkscape:cy="479.21361"
     inkscape:window-x="0"
     inkscape:window-y="0"
     inkscape:window-maximized="1"
     inkscape:current-layer="svg2"
     showguides="false" />
  <!-- Generator: Sketch 3.8.3 (29802) - http://www.bohemiancoding.com/sketch -->
  <defs
     id="defs8" />
  <path
     id="Fill-5"
     style="fill-rule:evenodd;stroke:none;stroke-width:1"
     d="m 664.86472,431.83859 106.675,-61.58792 c -8.63848,-14.93168 -18.554,-29.01201 -29.53782,-42.11581 l -94.32237,79.15703 c 6.42671,7.62859 12.16067,15.84141 17.18519,24.5467 l 0,0 z m 20.44026,56.14604 121.31455,-21.39174 c -2.99629,-17.11008 -7.46166,-33.74441 -13.27074,-49.71937 l -115.73918,42.12415 c 3.38852,9.28952 5.93429,19.01303 7.69537,28.98696 l 0,0 z M 618.65742,380.21911 697.81446,285.89672 C 684.67724,274.8795 670.5969,264.96401 655.69865,256.35889 l -61.58789,106.67502 c 8.70526,5.02453 16.91808,10.75846 24.54666,17.1852 l 0,0 z M 686.3163,512 l 0,0 c 0,95.00678 -78.05459,172.04381 -174.31631,172.04381 -96.26171,0 -174.31632,-77.03703 -174.31632,-172.04381 0,-95.00678 78.05461,-172.04382 174.31632,-172.04382 l 0,-123.10902 c -165.16625,0 -299.05146,132.1398 -299.05146,295.15284 0,163.01304 133.88521,295.15285 299.05146,295.15285 165.16626,0 299.05148,-132.13981 299.05148,-295.15285 L 686.3163,512 Z M 566.95165,350.28899 609.07579,234.5832 c -15.97496,-5.84246 -32.60929,-10.30777 -49.71933,-13.30412 l -21.39178,121.31456 c 9.97393,1.76107 19.69745,4.30673 28.98697,7.69535 l 0,0 z M 512,12 C 379.39887,12 252.21042,64.684108 158.44727,158.44727 64.684108,252.21042 12,379.39887 12,512 12,644.60113 64.684108,771.78958 158.44727,865.55273 252.21042,959.31589 379.39887,1012 512,1012 644.60113,1012 771.78958,959.31589 865.55273,865.55273 959.31589,771.78958 1012,644.60113 1012,512 1012,379.39887 959.31589,252.21042 865.55273,158.44727 771.78958,64.684108 644.60113,12 512,12 Z m 0,37.037109 c 122.79253,0 240.53585,48.772183 327.36328,135.599611 86.82743,86.82743 135.59961,204.57075 135.59961,327.36328 0,122.79253 -48.77218,240.53585 -135.59961,327.36328 C 752.53585,926.19071 634.79253,974.96289 512,974.96289 389.20747,974.96289 271.46415,926.19071 184.63672,839.36328 97.809292,752.53585 49.037109,634.79253 49.037109,512 49.037109,389.20747 97.809292,271.46415 184.63672,184.63672 271.46415,97.809292 389.20747,49.037109 512,49.037109 Z" />
</svg>
