<svg width="1024" height="1024" viewBox="0 0 1024 1024" xmlns="http://www.w3.org/2000/svg">
    <path
          d="m538.277 389.5-8.79 98.174 87.495-38.37L634.5 504.54l-90.99 22.442 62.064 73.873-46.3 33.646-49.045-83.201-48.12 83.201-43.747-33.646 63.005-72.935L389.5 503.6l18.396-54.296 85.756 38.369-9.668-98.174h54.293zm250.975 0-8.73 98.174 87.455-38.37L885.5 504.54l-91.013 22.442 62.143 73.873-46.376 33.646-49.057-83.201-48.068 83.201-43.76-33.646 62.958-72.935L640.5 503.6l18.337-54.296 85.778 38.369-9.67-98.174h54.307zm-501.975 0-8.79 98.174 87.495-38.37L383.5 504.54l-90.99 22.442 62.064 73.873L308.21 634.5l-48.981-83.201-48.12 83.201-43.747-33.646 63.005-72.935L138.5 503.6l18.396-54.296 85.756 38.369-9.668-98.174h54.293zM512 12a500.024 500.024 0 0 0-353.553 146.447A500.024 500.024 0 0 0 12 512a500.024 500.024 0 0 0 146.447 353.553A500.024 500.024 0 0 0 512 1012a500.024 500.024 0 0 0 353.553-146.447A500.024 500.024 0 0 0 1012 512a500.024 500.024 0 0 0-146.447-353.553A500.024 500.024 0 0 0 512 12Zm0 37.037a462.937 462.937 0 0 1 327.363 135.6A462.937 462.937 0 0 1 974.963 512a462.937 462.937 0 0 1-135.6 327.363A462.937 462.937 0 0 1 512 974.963a462.937 462.937 0 0 1-327.363-135.6A462.937 462.937 0 0 1 49.037 512a462.937 462.937 0 0 1 135.6-327.363A462.937 462.937 0 0 1 512 49.037Z"/>
</svg>
