<?xml version="1.0" encoding="UTF-8" standalone="no"?>
<svg
   xmlns:dc="http://purl.org/dc/elements/1.1/"
   xmlns:cc="http://creativecommons.org/ns#"
   xmlns:rdf="http://www.w3.org/1999/02/22-rdf-syntax-ns#"
   xmlns:svg="http://www.w3.org/2000/svg"
   xmlns="http://www.w3.org/2000/svg"
   xmlns:sodipodi="http://sodipodi.sourceforge.net/DTD/sodipodi-0.dtd"
   xmlns:inkscape="http://www.inkscape.org/namespaces/inkscape"
   width="1024"
   height="1024"
   viewBox="0 0 1024 1024"
   version="1.1"
   id="svg2"
   inkscape:version="0.91 r13725"
   sodipodi:docname="admin-system-settings.svg">
  <metadata
     id="metadata17">
    <rdf:RDF>
      <cc:Work
         rdf:about="">
        <dc:format>image/svg+xml</dc:format>
        <dc:type
           rdf:resource="http://purl.org/dc/dcmitype/StillImage" />
      </cc:Work>
    </rdf:RDF>
  </metadata>
  <sodipodi:namedview
     pagecolor="#ffffff"
     bordercolor="#666666"
     borderopacity="1"
     objecttolerance="10"
     gridtolerance="10"
     guidetolerance="10"
     inkscape:pageopacity="0"
     inkscape:pageshadow="2"
     inkscape:window-width="1366"
     inkscape:window-height="703"
     id="namedview15"
     showgrid="false"
     inkscape:zoom="0.513"
     inkscape:cx="500"
     inkscape:cy="500"
     inkscape:window-x="0"
     inkscape:window-y="0"
     inkscape:window-maximized="1"
     inkscape:current-layer="svg2" />
  <!-- Generator: Sketch 3.8.3 (29802) - http://www.bohemiancoding.com/sketch -->
  <defs
     id="defs8" />
  <path
     id="path13"
     style="stroke:none;stroke-width:1"
     d="m 520.11963,250.33086 c -17.87259,0 -35.71359,1.69878 -53.33333,5.37284 -6.60545,1.42223 -11.85186,6.41581 -13.519,12.95803 l -9.44989,35.37383 c -22.89778,8.45432 -44.62619,20.77234 -64.25285,37.04098 l -35.55555,-9.44987 c -6.4553,-1.69878 -13.33728,0.37137 -17.77777,5.37284 -12.04148,13.4558 -22.53432,27.99408 -31.48642,43.52001 -8.9837,15.52592 -16.23704,32.03159 -21.84692,49.07455 -2.03851,6.321 -0.40296,13.23456 4.25877,17.95952 l 25.92395,26.11356 c -4.14025,24.56496 -4.14025,49.50126 0,74.07407 l -25.92395,26.10571 c -4.72494,4.75651 -6.3921,11.79651 -4.25877,18.14911 5.64149,17.16148 13.08445,33.54866 22.03655,49.07459 8.91259,15.4627 19.28691,30.06418 31.29679,43.52 4.44049,5.00148 11.32247,7.07159 17.77777,5.37281 l 35.55555,-9.44985 c 19.62666,16.26863 41.35507,28.58667 64.25285,37.04097 l 9.44989,35.37385 c 1.72259,6.4474 6.96889,11.38566 13.519,12.77629 17.61974,3.67408 35.46074,5.55456 53.33333,5.55456 17.8963,0 36.01381,-1.85667 53.69678,-5.55456 6.55015,-1.39074 11.79655,-6.32889 13.51903,-12.77629 l 9.44986,-35.37385 c 22.89777,-8.51752 44.49977,-20.95408 64.07111,-37.22271 l 35.55555,9.63159 c 6.51063,1.75408 13.48741,-0.3074 17.95952,-5.37281 12.00989,-13.45582 22.38419,-28.0573 31.29678,-43.52 8.95211,-15.52593 16.39507,-31.91311 22.03655,-49.07459 2.13334,-6.3526 0.4663,-13.3926 -4.25877,-18.14911 l -26.10567,-26.29534 c 4.10074,-24.43852 4.10074,-49.25629 0,-73.7027 l 26.10567,-26.2953 c 4.66174,-4.72496 6.29729,-11.63852 4.25877,-17.95952 -5.60988,-17.04296 -12.86322,-33.54863 -21.84692,-49.07455 -8.95208,-15.52593 -19.44493,-30.06421 -31.48641,-43.52001 -4.47211,-5.0647 -11.44889,-7.12692 -17.95952,-5.37284 l -35.55555,9.6316 C 641.28507,324.98963 619.68307,312.55309 596.7853,304.03556 l -9.44986,-35.37383 c -1.72259,-6.44741 -6.96888,-11.38568 -13.51903,-12.7763 -17.68297,-3.69777 -35.80048,-5.55457 -53.69678,-5.55457 l 0,0 z m 0,35.55556 c 12.03359,0 24.06715,1.63555 35.919,3.51604 l 8.70718,31.85777 c 1.50926,5.86272 5.92593,10.52445 11.67012,12.40494 24.84148,7.86963 48.57677,21.42025 69.07259,40.18568 4.53529,4.07704 10.801,5.52296 16.6637,3.88741 l 31.84989,-8.69926 c 7.62467,9.37878 15.06763,18.79704 21.11207,29.2583 5.95756,10.33481 10.37434,21.57037 14.63312,32.77429 l -23.522,23.70371 c -4.25874,4.25877 -6.07604,10.40592 -4.81186,16.30026 5.64941,26.05037 5.64941,53.38863 0,79.439 -1.26407,5.89433 0.55297,12.04148 4.81186,16.30025 l 23.522,23.70371 c -4.29037,11.23555 -8.79408,22.3447 -14.81482,32.77433 -6.02074,10.40593 -13.39259,19.78467 -20.93037,29.07652 l -31.84989,-8.70715 c -5.89433,-1.60407 -12.19159,-0.0556 -16.6637,4.07704 -20.49582,18.76544 -44.23111,32.31604 -69.07259,40.18567 -5.7126,1.84888 -10.09778,6.4474 -11.67012,12.22322 l -8.70718,31.84989 c -11.85185,1.88037 -23.88541,3.70566 -35.919,3.70566 -11.94667,0 -23.76693,-1.82518 -35.55556,-3.70566 l -8.70714,-31.84989 c -1.50926,-5.86271 -5.92593,-10.52445 -11.67015,-12.40493 -24.9363,-7.90126 -48.79011,-21.11211 -69.2543,-39.82222 -4.44841,-4.06915 -10.65089,-5.58619 -16.482,-4.06915 l -31.84986,8.51752 c -7.53778,-9.29185 -14.90963,-18.67059 -20.93037,-29.07652 -6.02074,-10.42963 -10.52445,-21.53878 -14.81482,-32.77433 l 23.33235,-23.52196 c 4.32198,-4.29037 6.14716,-10.52445 4.81975,-16.482 -5.71259,-26.16889 -5.71259,-53.45186 0,-79.62863 1.26419,-5.89434 -0.561,-12.0336 -4.81975,-16.29234 l -23.33235,-23.522 c 4.25877,-11.20392 8.67556,-22.43948 14.63309,-32.77429 6.04445,-10.46126 13.48741,-19.87952 21.1121,-29.2583 l 31.84986,8.51756 c 5.79952,1.57222 12.002,0.11851 16.482,-3.88741 20.46419,-18.71014 44.318,-32.13434 69.2543,-40.00396 5.74422,-1.8805 10.161,-6.54223 11.67015,-12.40494 l 8.70714,-31.85778 c 11.78863,-1.88048 23.60889,-3.51604 35.55556,-3.51604 l 0,0 z m 0,98.52051 c -32.34767,0 -64.6637,12.43651 -89.26026,37.03307 -49.23259,49.23259 -49.23259,129.47752 0,178.71011 49.2247,49.2247 129.65926,49.2247 178.88396,0 49.2326,-49.23259 49.2326,-129.47752 0,-178.71011 -24.62814,-24.62815 -57.28396,-37.03307 -89.6237,-37.03307 l 0,0 z m 0,35.55555 c 23.26915,0 46.63307,8.67556 64.44248,26.47704 35.65037,35.65037 35.65037,92.87111 0,128.52148 -35.65037,35.65037 -92.87111,35.65037 -128.52148,0 -35.65037,-35.65037 -35.65037,-92.87111 0,-128.52148 17.87259,-17.86471 40.80196,-26.47704 64.079,-26.47704 l 0,0 z M 512,12 C 379.39887,12 252.21042,64.684108 158.44727,158.44727 64.684108,252.21042 12,379.39887 12,512 12,644.60113 64.684108,771.78958 158.44727,865.55273 252.21042,959.31589 379.39887,1012 512,1012 644.60113,1012 771.78958,959.31589 865.55273,865.55273 959.31589,771.78958 1012,644.60113 1012,512 1012,379.39887 959.31589,252.21042 865.55273,158.44727 771.78958,64.684108 644.60113,12 512,12 Z m 0,37.037109 c 122.79253,0 240.53585,48.772183 327.36328,135.599611 86.82743,86.82743 135.59961,204.57075 135.59961,327.36328 0,122.79253 -48.77218,240.53585 -135.59961,327.36328 C 752.53585,926.19071 634.79253,974.96289 512,974.96289 389.20747,974.96289 271.46415,926.19071 184.63672,839.36328 97.809292,752.53585 49.037109,634.79253 49.037109,512 49.037109,389.20747 97.809292,271.46415 184.63672,184.63672 271.46415,97.809292 389.20747,49.037109 512,49.037109 Z" />
</svg>
