<?xml version="1.0" encoding="UTF-8" standalone="no"?>
<svg
   xmlns:dc="http://purl.org/dc/elements/1.1/"
   xmlns:cc="http://creativecommons.org/ns#"
   xmlns:rdf="http://www.w3.org/1999/02/22-rdf-syntax-ns#"
   xmlns:svg="http://www.w3.org/2000/svg"
   xmlns="http://www.w3.org/2000/svg"
   xmlns:sodipodi="http://sodipodi.sourceforge.net/DTD/sodipodi-0.dtd"
   xmlns:inkscape="http://www.inkscape.org/namespaces/inkscape"
   width="1024"
   height="1024"
   viewBox="0 0 1024 1024"
   version="1.1"
   id="svg2"
   inkscape:version="0.91 r13725"
   sodipodi:docname="admin-aop-settings.svg">
  <metadata
     id="metadata16">
    <rdf:RDF>
      <cc:Work
         rdf:about="">
        <dc:format>image/svg+xml</dc:format>
        <dc:type
           rdf:resource="http://purl.org/dc/dcmitype/StillImage" />
      </cc:Work>
    </rdf:RDF>
  </metadata>
  <sodipodi:namedview
     pagecolor="#ffffff"
     bordercolor="#666666"
     borderopacity="1"
     objecttolerance="10"
     gridtolerance="10"
     guidetolerance="10"
     inkscape:pageopacity="0"
     inkscape:pageshadow="2"
     inkscape:window-width="1366"
     inkscape:window-height="703"
     id="namedview14"
     showgrid="false"
     inkscape:zoom="0.513"
     inkscape:cx="331.68811"
     inkscape:cy="512"
     inkscape:window-x="0"
     inkscape:window-y="0"
     inkscape:window-maximized="1"
     inkscape:current-layer="svg2" />
  <!-- Generator: Sketch 3.8.3 (29802) - http://www.bohemiancoding.com/sketch -->
  <defs
     id="defs8" />
  <path
     id="AOP"
     style="stroke:none;stroke-width:1"
     d="m 303.58333,530.27778 -22.5,-66.5 c -1.66666,-4.22226 -3.44444,-9.19441 -5.33333,-14.91667 -1.88889,-5.72226 -3.77777,-11.91663 -5.66667,-18.58333 -1.66666,6.77781 -3.44444,13.05552 -5.33333,18.83333 -1.88889,5.77782 -3.66667,10.77774 -5.33333,15 l -22.33334,66.16667 66.5,0 z m 89.5,92.83333 -43.66666,0 c -4.88892,0 -8.83332,-1.13889 -11.83334,-3.41667 -3,-2.27777 -5.27777,-5.19444 -6.83333,-8.75 l -14.33333,-42.33333 -92.33334,0 -14.33333,42.33333 c -1.22222,3.11112 -3.41667,5.91667 -6.58333,8.41667 -3.16668,2.5 -7.08331,3.75 -11.75,3.75 l -44,0 94,-242.83333 57.66666,0 94,242.83333 z m 257.5,-121.5 c 0,17.55563 -3.02777,33.88882 -9.08333,49 -6.05559,15.11119 -14.5833,28.24993 -25.58333,39.41667 -11.00008,11.1667 -24.24993,19.91663 -39.75,26.25 -15.50008,6.33337 -32.69434,9.5 -51.58334,9.5 -18.88896,0 -36.11103,-3.16667 -51.66666,-9.5 -15.55563,-6.33337 -28.86104,-15.0833 -39.91667,-26.25 -11.05559,-11.16674 -19.61107,-24.30548 -25.66667,-39.41667 -6.05559,-15.11118 -9.08333,-31.44437 -9.08333,-49 0,-17.55563 3.02778,-33.88881 9.08333,-49 6.0556,-15.11118 14.61108,-28.22215 25.66667,-39.33333 11.05563,-11.11115 24.36104,-19.8333 39.91667,-26.16667 15.55563,-6.33337 32.7777,-9.5 51.66666,-9.5 18.889,0 36.08326,3.19445 51.58334,9.58333 15.50007,6.38893 28.74992,15.13886 39.75,26.25 11.00003,11.11115 19.52774,24.22215 25.58333,39.33334 6.05559,15.11118 9.08333,31.38881 9.08333,48.83333 l 0,0 z m -57.66666,0 c 0,-12.00007 -1.55556,-22.80552 -4.66667,-32.41667 -3.11111,-9.61114 -7.5833,-17.74996 -13.41667,-24.41666 -5.83337,-6.66671 -12.97218,-11.77774 -21.41666,-15.33334 -8.44448,-3.55555 -18.05548,-5.33333 -28.83334,-5.33333 -10.88892,0 -20.58329,1.77778 -29.08333,5.33333 -8.50004,3.55556 -15.66663,8.66663 -21.5,15.33334 -5.83337,6.6667 -10.30556,14.80552 -13.41667,24.41666 -3.11111,9.61115 -4.66666,20.4166 -4.66666,32.41667 0,12.11119 1.55555,22.97219 4.66666,32.58333 3.11111,9.61115 7.5833,17.74997 13.41667,24.41667 5.83337,6.6667 12.99996,11.75 21.5,15.25 8.50004,3.5 18.19441,5.25 29.08333,5.25 10.77786,0 20.38886,-1.75 28.83334,-5.25 8.44448,-3.5 15.58329,-8.5833 21.41666,-15.25 5.83337,-6.6667 10.30556,-14.80552 13.41667,-24.41667 3.11111,-9.61114 4.66667,-20.47214 4.66667,-32.58333 l 0,0 z m 176.5,-2.16667 c 14.66674,0 25.22218,-3.5 31.66666,-10.5 6.44448,-7.00003 9.66667,-16.7777 9.66667,-29.33333 0,-5.55559 -0.83333,-10.61107 -2.5,-15.16667 -1.66667,-4.55559 -4.19444,-8.47222 -7.58333,-11.75 -3.38889,-3.27777 -7.66663,-5.80555 -12.83334,-7.58333 -5.1667,-1.77778 -11.30552,-2.66667 -18.41666,-2.66667 l -29.33334,0 0,77 29.33334,0 z m 0,-119.16666 c 17.11118,0 31.80548,2.02778 44.08333,6.08333 12.27785,4.05559 22.38885,9.63885 30.33333,16.75 7.94448,7.11115 13.80552,15.49996 17.58334,25.16667 3.77781,9.6667 5.66666,20.11107 5.66666,31.33333 0,12.11119 -1.94444,23.22219 -5.83333,33.33333 -3.88893,10.11115 -9.8333,18.77775 -17.83333,26 -8.00004,7.22226 -18.13882,12.86112 -30.41667,16.91667 -12.27785,4.05559 -26.80548,6.08333 -43.58333,6.08333 l -29.33334,0 0,81.16667 -56.33333,0 0,-242.83333 85.66667,0 z M 512,12 C 379.39887,12 252.21042,64.684108 158.44727,158.44727 64.684108,252.21042 12,379.39887 12,512 12,644.60113 64.684108,771.78958 158.44727,865.55273 252.21042,959.31589 379.39887,1012 512,1012 644.60113,1012 771.78958,959.31589 865.55273,865.55273 959.31589,771.78958 1012,644.60113 1012,512 1012,379.39887 959.31589,252.21042 865.55273,158.44727 771.78958,64.684108 644.60113,12 512,12 Z m 0,37.037109 c 122.79253,0 240.53585,48.772183 327.36328,135.599611 86.82743,86.82743 135.59961,204.57075 135.59961,327.36328 0,122.79253 -48.77218,240.53585 -135.59961,327.36328 C 752.53585,926.19071 634.79253,974.96289 512,974.96289 389.20747,974.96289 271.46415,926.19071 184.63672,839.36328 97.809292,752.53585 49.037109,634.79253 49.037109,512 49.037109,389.20747 97.809292,271.46415 184.63672,184.63672 271.46415,97.809292 389.20747,49.037109 512,49.037109 Z" />
</svg>
