<?xml version="1.0" encoding="UTF-8" standalone="no"?>
<svg
   xmlns:dc="http://purl.org/dc/elements/1.1/"
   xmlns:cc="http://creativecommons.org/ns#"
   xmlns:rdf="http://www.w3.org/1999/02/22-rdf-syntax-ns#"
   xmlns:svg="http://www.w3.org/2000/svg"
   xmlns="http://www.w3.org/2000/svg"
   xmlns:sodipodi="http://sodipodi.sourceforge.net/DTD/sodipodi-0.dtd"
   xmlns:inkscape="http://www.inkscape.org/namespaces/inkscape"
   width="1024"
   height="1024"
   viewBox="0 0 1024 1024"
   version="1.1"
   id="svg2"
   inkscape:version="0.91 r13725"
   sodipodi:docname="admin-studio.svg">
  <metadata
     id="metadata17">
    <rdf:RDF>
      <cc:Work
         rdf:about="">
        <dc:format>image/svg+xml</dc:format>
        <dc:type
           rdf:resource="http://purl.org/dc/dcmitype/StillImage" />
      </cc:Work>
    </rdf:RDF>
  </metadata>
  <sodipodi:namedview
     pagecolor="#ffffff"
     bordercolor="#666666"
     borderopacity="1"
     objecttolerance="10"
     gridtolerance="10"
     guidetolerance="10"
     inkscape:pageopacity="0"
     inkscape:pageshadow="2"
     inkscape:window-width="1366"
     inkscape:window-height="703"
     id="namedview15"
     showgrid="false"
     inkscape:zoom="0.50097656"
     inkscape:cx="512"
     inkscape:cy="512"
     inkscape:window-x="0"
     inkscape:window-y="0"
     inkscape:window-maximized="1"
     inkscape:current-layer="svg2" />
  <!-- Generator: Sketch 3.8.3 (29802) - http://www.bohemiancoding.com/sketch -->
  <defs
     id="defs8" />
  <path
     id="path13"
     style="fill-rule:evenodd;stroke:none;stroke-width:1"
     d="m 735.78344,270.35997 c -122.02222,-122.02223 -319.82666,-122.02223 -441.84888,0 C 190.99432,373.30022 168.00864,537.29774 238.64469,657.0533 l 82.86765,-82.86763 c 30.52445,-30.49926 79.94618,-30.49926 110.47903,0 30.53282,30.53281 30.53282,79.95455 0,110.479 L 349.1237,767.5323 c 119.82271,70.66963 283.75308,47.68396 386.65974,-55.22271 122.08941,-122.08937 122.08941,-319.86022 0,-441.94962 l 0,0 z M 401.09752,382.35011 c -15.37974,15.47208 -40.30468,15.37974 -55.65086,0 -15.34617,-15.28741 -15.34617,-40.20397 0,-55.65088 15.41334,-15.37976 40.30471,-15.28741 55.71804,0 15.279,15.44691 15.279,40.36347 -0.0667,55.65088 l 0,0 z m 222.67063,-55.58372 c 15.37974,-15.38815 40.2627,-15.38815 55.74322,0 15.37974,15.37975 15.28741,40.29631 0.0667,55.64246 -15.54767,15.37978 -40.46419,15.37978 -55.7516,0 -15.43851,-15.34615 -15.34618,-40.26271 -0.0593,-55.64246 l 0,0 z m -111.3353,9.53679 c -21.77681,0 -39.32248,-17.67161 -39.35607,-39.38124 0,-21.67605 17.61285,-39.35605 39.35607,-39.35605 21.80196,0 39.38122,17.68 39.44837,39.2889 -0.0667,21.84394 -17.67159,39.44839 -39.44837,39.44839 l 0,0 z m 167.01134,324.52789 c -15.37975,15.37974 -40.2963,15.279 -55.65086,0 -15.37974,-15.38814 -15.37974,-40.3047 0,-55.65085 15.37974,-15.37978 40.27111,-15.37978 55.65086,0 15.35459,15.24541 15.35459,40.23752 0,55.65085 l 0,0 z m 29.81088,-127.69729 c -21.74322,0 -39.34766,-17.61282 -39.34766,-39.35604 0,-21.77678 17.60444,-39.38122 39.34766,-39.38122 21.74319,0 39.38963,17.60444 39.38963,39.38122 -0.0336,21.74322 -17.64644,39.35604 -39.38963,39.35604 l 0,0 z M 512,12 C 379.39887,12 252.21042,64.684108 158.44727,158.44727 64.684108,252.21042 12,379.39887 12,512 12,644.60113 64.684108,771.78958 158.44727,865.55273 252.21042,959.31589 379.39887,1012 512,1012 644.60113,1012 771.78958,959.31589 865.55273,865.55273 959.31589,771.78958 1012,644.60113 1012,512 1012,379.39887 959.31589,252.21042 865.55273,158.44727 771.78958,64.684108 644.60113,12 512,12 Z m 0,37.037109 c 122.79253,0 240.53585,48.772183 327.36328,135.599611 86.82743,86.82743 135.59961,204.57075 135.59961,327.36328 0,122.79253 -48.77218,240.53585 -135.59961,327.36328 C 752.53585,926.19071 634.79253,974.96289 512,974.96289 389.20747,974.96289 271.46415,926.19071 184.63672,839.36328 97.809292,752.53585 49.037109,634.79253 49.037109,512 49.037109,389.20747 97.809292,271.46415 184.63672,184.63672 271.46415,97.809292 389.20747,49.037109 512,49.037109 Z" />
</svg>
