<?xml version="1.0" encoding="UTF-8" standalone="no"?>
<svg
   xmlns:dc="http://purl.org/dc/elements/1.1/"
   xmlns:cc="http://creativecommons.org/ns#"
   xmlns:rdf="http://www.w3.org/1999/02/22-rdf-syntax-ns#"
   xmlns:svg="http://www.w3.org/2000/svg"
   xmlns="http://www.w3.org/2000/svg"
   xmlns:sodipodi="http://sodipodi.sourceforge.net/DTD/sodipodi-0.dtd"
   xmlns:inkscape="http://www.inkscape.org/namespaces/inkscape"
   width="1024"
   height="1024"
   viewBox="0 0 1024 1024"
   version="1.1"
   id="svg2"
   inkscape:version="0.91 r13725"
   sodipodi:docname="admin-oauth-keys.svg">
  <metadata
     id="metadata17">
    <rdf:RDF>
      <cc:Work
         rdf:about="">
        <dc:format>image/svg+xml</dc:format>
        <dc:type
           rdf:resource="http://purl.org/dc/dcmitype/StillImage" />
      </cc:Work>
    </rdf:RDF>
  </metadata>
  <sodipodi:namedview
     pagecolor="#ffffff"
     bordercolor="#666666"
     borderopacity="1"
     objecttolerance="10"
     gridtolerance="10"
     guidetolerance="10"
     inkscape:pageopacity="0"
     inkscape:pageshadow="2"
     inkscape:window-width="1366"
     inkscape:window-height="703"
     id="namedview15"
     showgrid="false"
     inkscape:zoom="0.513"
     inkscape:cx="512"
     inkscape:cy="512"
     inkscape:window-x="0"
     inkscape:window-y="0"
     inkscape:window-maximized="1"
     inkscape:current-layer="svg2" />
  <!-- Generator: Sketch 3.8.3 (29802) - http://www.bohemiancoding.com/sketch -->
  <defs
     id="defs8" />
  <path
     id="path13"
     style="stroke:none;stroke-width:1"
     d="m 215.61652,270.88599 0,0 c -0.92452,1.01926 -1.50922,2.28348 -1.69889,3.64248 l -15.95364,124.84827 c -0.55311,4.31411 3.1133,7.95659 7.43556,7.43511 l 85.13356,-10.89589 -10.89653,85.12848 c -0.56104,4.31412 3.1133,7.9566 7.43556,7.43512 l 85.15727,-10.86426 -10.88863,85.12055 c -0.25297,2.03852 0.4267,4.07708 1.88063,5.53093 l 34.07237,34.07033 c -15.09234,66.60785 4.97022,136.29722 53.21837,184.661 77.777,77.7803 203.897,77.7803 281.65029,0 37.35163,-37.34148 58.33871,-87.99663 58.33871,-140.83255 0,-52.81219 -20.98708,-103.45945 -58.33871,-140.80093 -48.36666,-48.30848 -118.1234,-68.45678 -184.79051,-53.3337 L 350.04126,254.68045 c -1.45392,-1.45385 -3.49259,-2.15703 -5.52333,-1.88052 l -124.88731,15.95271 c -1.54085,0.22112 -2.99478,0.95604 -4.0457,2.10175 m 373.51619,373.09091 0,0 c 20.74211,-20.74089 54.35619,-20.74089 75.09833,0 9.96412,9.96351 15.55063,23.45103 15.55063,37.56274 0,14.07218 -5.58651,27.59129 -15.55063,37.53111 -9.97203,9.96352 -23.46033,15.54974 -37.565,15.54974 -14.073,0 -27.59292,-5.58622 -37.53333,-15.54974 -20.74211,-20.74089 -20.74211,-54.35296 0,-75.09385 M 512,12 C 379.39887,12 252.21042,64.684108 158.44727,158.44727 64.684108,252.21042 12,379.39887 12,512 12,644.60113 64.684108,771.78958 158.44727,865.55273 252.21042,959.31589 379.39887,1012 512,1012 644.60113,1012 771.78958,959.31589 865.55273,865.55273 959.31589,771.78958 1012,644.60113 1012,512 1012,379.39887 959.31589,252.21042 865.55273,158.44727 771.78958,64.684108 644.60113,12 512,12 Z m 0,37.037109 c 122.79253,0 240.53585,48.772183 327.36328,135.599611 86.82743,86.82743 135.59961,204.57075 135.59961,327.36328 0,122.79253 -48.77218,240.53585 -135.59961,327.36328 C 752.53585,926.19071 634.79253,974.96289 512,974.96289 389.20747,974.96289 271.46415,926.19071 184.63672,839.36328 97.809292,752.53585 49.037109,634.79253 49.037109,512 49.037109,389.20747 97.809292,271.46415 184.63672,184.63672 271.46415,97.809292 389.20747,49.037109 512,49.037109 Z" />
</svg>
