<svg width="1024" height="1024" viewBox="0 0 1024 1024" xmlns="http://www.w3.org/2000/svg"><path style="fill-rule:evenodd;stroke:none;stroke-width:1"
                                                                                                 d="M512 12a500.024 500.024 0 0 0-353.553 146.447A500.024 500.024 0 0 0 12 512a500.024 500.024 0 0 0 146.447 353.553A500.024 500.024 0 0 0 512 1012a500.024 500.024 0 0 0 353.553-146.447A500.024 500.024 0 0 0 1012 512a500.024 500.024 0 0 0-146.447-353.553A500.024 500.024 0 0 0 512 12Zm0 37.037a462.937 462.937 0 0 1 327.363 135.6A462.937 462.937 0 0 1 974.963 512a462.937 462.937 0 0 1-135.6 327.363A462.937 462.937 0 0 1 512 974.963a462.937 462.937 0 0 1-327.363-135.6A462.937 462.937 0 0 1 49.037 512a462.937 462.937 0 0 1 135.6-327.363A462.937 462.937 0 0 1 512 49.037Zm61.508 192.12c-.173.086-.308.166-.461.245a6.49 6.49 0 0 0-.193 1.002c.355-.367.63-.792 1.048-1.218-.145-.014-.248-.015-.394-.03z"/>
    <path style="fill-opacity:1;fill-rule:evenodd;stroke:none" d="M921.426 726.18V460.832H656.059C634.813 401.27 578.53 358.48 511.926 358.48c-66.606 0-122.89 42.868-144.137 102.352H204.797V297.84c59.543-21.266 102.351-77.547 102.351-144.152 0-84.594-68.804-153.68-153.675-153.68C68.582.008 0 68.816 0 153.688c0 66.605 42.883 122.886 102.352 144.152v265.344h265.363c21.246 59.546 77.527 102.351 144.137 102.351 66.605 0 122.886-42.883 144.132-102.351H819V726.18c-59.563 21.265-102.371 77.527-102.371 144.132 0 84.594 68.805 153.68 153.676 153.68 84.89 0 153.695-68.789 153.695-153.68-.223-66.882-43.105-123.167-102.574-144.132ZM153.75 102.36c28.105 0 51.324 22.94 51.324 51.327 0 28.399-22.922 51.325-51.324 51.325-28.102 0-51.324-22.926-51.324-51.325 0-28.386 22.941-51.328 51.324-51.328zm358.176 460.824c-28.106 0-51.324-22.942-51.324-51.325 0-28.101 22.941-51.324 51.324-51.324 28.101 0 51.324 22.942 51.324 51.324 0 28.106-23.223 51.325-51.324 51.325zm358.453 358.175c-28.086 0-51.324-22.941-51.324-51.324 0-28.402 22.941-51.324 51.324-51.324 28.105 0 51.324 22.922 51.324 51.324 0 28.383-23.219 51.324-51.324 51.324zm0 0" transform="matrix(.64824 0 0 .60069 188.79 199.661)"/></svg>
