<?xml version="1.0" encoding="UTF-8" standalone="no"?>
<svg
   xmlns:dc="http://purl.org/dc/elements/1.1/"
   xmlns:cc="http://creativecommons.org/ns#"
   xmlns:rdf="http://www.w3.org/1999/02/22-rdf-syntax-ns#"
   xmlns:svg="http://www.w3.org/2000/svg"
   xmlns="http://www.w3.org/2000/svg"
   xmlns:sodipodi="http://sodipodi.sourceforge.net/DTD/sodipodi-0.dtd"
   xmlns:inkscape="http://www.inkscape.org/namespaces/inkscape"
   width="1024"
   height="1024"
   viewBox="0 0 1024 1024"
   version="1.1"
   id="svg2"
   inkscape:version="0.91 r13725"
   sodipodi:docname="admin-security.svg">
  <metadata
     id="metadata17">
    <rdf:RDF>
      <cc:Work
         rdf:about="">
        <dc:format>image/svg+xml</dc:format>
        <dc:type
           rdf:resource="http://purl.org/dc/dcmitype/StillImage" />
      </cc:Work>
    </rdf:RDF>
  </metadata>
  <sodipodi:namedview
     pagecolor="#ffffff"
     bordercolor="#666666"
     borderopacity="1"
     objecttolerance="10"
     gridtolerance="10"
     guidetolerance="10"
     inkscape:pageopacity="0"
     inkscape:pageshadow="2"
     inkscape:window-width="1366"
     inkscape:window-height="703"
     id="namedview15"
     showgrid="false"
     inkscape:zoom="0.513"
     inkscape:cx="512"
     inkscape:cy="512"
     inkscape:window-x="0"
     inkscape:window-y="0"
     inkscape:window-maximized="1"
     inkscape:current-layer="svg2" />
  <!-- Generator: Sketch 3.8.3 (29802) - http://www.bohemiancoding.com/sketch -->
  <defs
     id="defs8" />
  <path
     id="path13"
     style="stroke:none;stroke-width:1"
     d="m 716.29104,476.84504 -22.0736,0 0,-110.43956 -0.28518,0 c 0.0481,-1.87222 0.28518,-3.68489 0.28518,-5.54521 0,-100.62505 -81.56855,-182.1936 -182.24129,-182.1936 -100.56545,0 -182.13398,81.56855 -182.13398,182.1936 0,1.86033 0.14296,3.673 0.22666,5.54521 l -0.22666,0 0,110.39185 -22.13323,0 c -18.25752,0 -33.11635,14.82304 -33.11635,33.12826 l 0,265.05008 c 0,18.30522 14.81113,33.12829 33.11635,33.12829 l 408.5821,0 c 18.30522,0 33.11637,-14.82307 33.11637,-33.12829 l 0,-265.05008 c 0,-18.26944 -14.81115,-33.08055 -33.11637,-33.08055 l 0,0 z m -110.40375,-110.43956 0,110.39185 -187.72688,0 0,-110.39185 0.32222,0 c -0.0852,-1.87222 -0.32222,-3.68489 -0.32222,-5.54521 0,-51.80318 42.02448,-93.81575 93.81574,-93.81575 51.80318,0 93.91114,42.01257 93.91114,93.81575 0,1.86033 -0.12963,3.673 -0.27407,5.54521 l 0.27407,0 z M 512,12 C 379.39887,12 252.21042,64.684108 158.44727,158.44727 64.684108,252.21042 12,379.39887 12,512 12,644.60113 64.684108,771.78958 158.44727,865.55273 252.21042,959.31589 379.39887,1012 512,1012 644.60113,1012 771.78958,959.31589 865.55273,865.55273 959.31589,771.78958 1012,644.60113 1012,512 1012,379.39887 959.31589,252.21042 865.55273,158.44727 771.78958,64.684108 644.60113,12 512,12 Z m 0,37.037109 c 122.79253,0 240.53585,48.772183 327.36328,135.599611 86.82743,86.82743 135.59961,204.57075 135.59961,327.36328 0,122.79253 -48.77218,240.53585 -135.59961,327.36328 C 752.53585,926.19071 634.79253,974.96289 512,974.96289 389.20747,974.96289 271.46415,926.19071 184.63672,839.36328 97.809292,752.53585 49.037109,634.79253 49.037109,512 49.037109,389.20747 97.809292,271.46415 184.63672,184.63672 271.46415,97.809292 389.20747,49.037109 512,49.037109 Z" />
</svg>
