<svg height="1024" width="1024" viewBox="0 0 1024 1024" xmlns="http://www.w3.org/2000/svg">
    <path style="stroke:none;stroke-width:1"
            d="M831.509 379.062v43.334h-99.667v61.5h83v43.5h-83v94.5h-56.666V379.062ZM641.843 500.396q0 26.333-9.167 48.666-9 22.167-25.5 38.5-16.5 16.167-39.833 25.334-23.167 9-51.5 9H421.51V379.062h94.333q28.333 0 51.5 9.167 23.333 9.167 39.833 25.333 16.5 16.167 25.5 38.5 9.167 22.167 9.167 48.334zm-57.667 0q0-18-4.667-32.5-4.666-14.5-13.5-24.5-8.666-10.167-21.333-15.5-12.667-5.5-28.833-5.5h-37.667v156.166h37.667q16.166 0 28.833-5.333 12.667-5.5 21.333-15.5 8.834-10.167 13.5-24.667 4.667-14.5 4.667-32.666zm-318.333 40.333v81.167H209.51V379.062h85.666q25.667 0 44 6.167 18.5 6 30.334 16.667 12 10.666 17.666 25.166 5.667 14.5 5.667 31.334 0 18.166-5.833 33.333-5.834 15.167-17.834 26t-30.5 17q-18.333 6-43.5 6zm0-42.5h29.333q22 0 31.667-10.5 9.667-10.5 9.667-29.333 0-8.334-2.5-15.167t-7.667-11.667q-5-5-12.833-7.666-7.667-2.667-18.334-2.667h-29.333ZM512 12a500.024 500.024 0 0 0-353.553 146.447A500.024 500.024 0 0 0 12 512a500.024 500.024 0 0 0 146.447 353.553A500.024 500.024 0 0 0 512 1012a500.024 500.024 0 0 0 353.553-146.447A500.024 500.024 0 0 0 1012 512a500.024 500.024 0 0 0-146.447-353.553A500.024 500.024 0 0 0 512 12Zm0 37.037a462.937 462.937 0 0 1 327.363 135.6A462.937 462.937 0 0 1 974.963 512a462.937 462.937 0 0 1-135.6 327.363A462.937 462.937 0 0 1 512 974.963a462.937 462.937 0 0 1-327.363-135.6A462.937 462.937 0 0 1 49.037 512a462.937 462.937 0 0 1 135.6-327.363A462.937 462.937 0 0 1 512 49.037Zm271.354 355.486c-.192 2.167-.368 4.342-.57 6.46.162.042.308.056.466.101-.061-2.197.047-4.375.104-6.56zm-152.217 69.98c.26 1.694.58 3.377.816 5.073.165-.771.335-1.541.502-2.312-.03-.905-.097-1.807-.133-2.711l-1.185-.05zM285.74 477.54l.162.477c.113-.153.2-.315.315-.467-.184.043-.316-.01-.477-.01z"/>
</svg>
