<?xml version="1.0" encoding="UTF-8" standalone="no"?>
<svg
   xmlns:dc="http://purl.org/dc/elements/1.1/"
   xmlns:cc="http://creativecommons.org/ns#"
   xmlns:rdf="http://www.w3.org/1999/02/22-rdf-syntax-ns#"
   xmlns:svg="http://www.w3.org/2000/svg"
   xmlns="http://www.w3.org/2000/svg"
   xmlns:sodipodi="http://sodipodi.sourceforge.net/DTD/sodipodi-0.dtd"
   xmlns:inkscape="http://www.inkscape.org/namespaces/inkscape"
   width="1024"
   height="1024"
   viewBox="0 0 1024 1024"
   version="1.1"
   id="svg2"
   inkscape:version="0.91 r13725"
   sodipodi:docname="admin-global-search.svg">
  <metadata
     id="metadata17">
    <rdf:RDF>
      <cc:Work
         rdf:about="">
        <dc:format>image/svg+xml</dc:format>
        <dc:type
           rdf:resource="http://purl.org/dc/dcmitype/StillImage" />
      </cc:Work>
    </rdf:RDF>
  </metadata>
  <sodipodi:namedview
     pagecolor="#ffffff"
     bordercolor="#666666"
     borderopacity="1"
     objecttolerance="10"
     gridtolerance="10"
     guidetolerance="10"
     inkscape:pageopacity="0"
     inkscape:pageshadow="2"
     inkscape:window-width="1366"
     inkscape:window-height="703"
     id="namedview15"
     showgrid="false"
     showguides="false"
     inkscape:zoom="0.36274578"
     inkscape:cx="-127.23668"
     inkscape:cy="430.56326"
     inkscape:window-x="0"
     inkscape:window-y="0"
     inkscape:window-maximized="1"
     inkscape:current-layer="svg2" />
  <!-- Generator: Sketch 3.8.3 (29802) - http://www.bohemiancoding.com/sketch -->
  <defs
     id="defs8" />
  <g
     id="g3347"
     transform="matrix(37.037037,0,0,37.037037,-6.518518,-6.518518)">
    <g
       id="Page-1"
       style="stroke:none;stroke-width:1">
      <g
         id="admin_global_search"
         >
        <path
           inkscape:connector-curvature="0"
           id="Oval-7"
           d="M 14,0.5 C 6.5500782,0.5 0.5,6.5500782 0.5,14 0.5,21.449922 6.5500782,27.5 14,27.5 21.449922,27.5 27.5,21.449922 27.5,14 27.5,6.5500782 21.449922,0.5 14,0.5 Z m 0,1 C 20.909482,1.5 26.5,7.0905183 26.5,14 26.5,20.909482 20.909482,26.5 14,26.5 7.0905183,26.5 1.5,20.909482 1.5,14 1.5,7.0905183 7.0905183,1.5 14,1.5 Z"
            />
        <path
           id="path13"
           d="m 7.5995312,12.82018 2.8967998,0 c 0.228,-0.39384 0.5016,-0.75744 0.81864,-1.08 l -3.1754398,0 c -0.2980799,0 -0.54,-0.24192 -0.54,-0.54 l 0,-3.24 c 0,-0.29808 0.2419201,-0.54 0.54,-0.54 l 3.2399998,0 c 0.29808,0 0.54,0.24192 0.54,0.54 l 0,3.24 c 0,0.0055 -0.0029,0.01128 -0.0038,0.0168 0.33384,-0.252 0.69576,-0.46872 1.08384,-0.63936 l 0,-3.15744 c 0,-0.59616 -0.48384,-1.08 -1.08,-1.08 l -4.3199998,0 c -0.59616,0 -1.08,0.48384 -1.08,1.08 l 0,4.32 c 0,0.59616 0.48384,1.08 1.08,1.08 l 0,0 z m 8.6399998,-2.59032 0,-2.26968 c 0,-0.29808 0.24192,-0.54 0.54,-0.54 l 3.24,0 c 0.29808,0 0.54,0.24192 0.54,0.54 l 0,3.24 c 0,0.29808 -0.24192,0.54 -0.54,0.54 l -1.00584,0 c 0.3168,0.32256 0.59064,0.68616 0.81936,1.08 l 0.72744,0 c 0.59616,0 1.08,-0.48384 1.08,-1.08 l 0,-4.32 c 0,-0.59616 -0.48384,-1.08 -1.08,-1.08 l -4.32,0 c -0.59616,0 -1.08,0.48384 -1.08,1.08 l 0,2.70288 0.0048,0 c 0.36744,-9.6e-4 0.72648,0.03648 1.07424,0.1068 l 0,0 z m -4.32,9.61032 c 0,0.29808 -0.24192,0.54 -0.54,0.54 l -3.2399998,0 c -0.2980799,0 -0.54,-0.24192 -0.54,-0.54 l 0,-3.24 c 0,-0.29808 0.2419201,-0.54 0.54,-0.54 l 1.6557601,0 c -0.018,-0.17808 -0.02736,-0.35808 -0.02736,-0.54192 0,-0.18192 0.00936,-0.36096 0.02736,-0.53808 l -2.1957601,0 c -0.59616,0 -1.08,0.48384 -1.08,1.08 l 0,4.32 c 0,0.59616 0.48384,1.08 1.08,1.08 l 4.3199998,0 c 0.57096,0 1.0332,-0.44448 1.07256,-1.00488 -0.38352,-0.16896 -0.7416,-0.38352 -1.07256,-0.63288 l 0,0.01776 z m 9.56064,1.21872 -2.90352,-2.90352 c 0.56448,-0.73032 0.90384,-1.64232 0.90384,-2.63616 0,-2.38392 -1.9332,-4.31616 -4.31712,-4.31616 -2.38416,0 -4.3164,1.93224 -4.3164,4.3152 0,2.38416 1.9332,4.31712 4.31736,4.31712 0.99264,0 1.90392,-0.3384 2.63328,-0.90072 l 2.90448,2.90424 c 0.21456,0.2148 0.56424,0.2148 0.77904,0 0.21552,-0.21456 0.21456,-0.56424 -9.6e-4,-0.78 l 0,0 z m -6.3168,-2.30256 c -1.78776,0 -3.23808,-1.44936 -3.23808,-3.23808 0,-1.78776 1.44936,-3.23712 3.23808,-3.23712 1.78872,0 3.23808,1.44936 3.23808,3.23712 0,1.78872 -1.44936,3.23808 -3.23808,3.23808 l 0,0 z"
           inkscape:connector-curvature="0"
            />
      </g>
    </g>
  </g>
</svg>
