<svg width="1024" height="1024" viewBox="0 0 1024 1024" xmlns="http://www.w3.org/2000/svg">
    <g>
        <path
              d="M512 12C316.412 9.626 127.29 134.327 52.43 315.039c-79.204 178.769-39.143 401.62 97.348 541.624 133.154 143.387 353.978 194.411 536.536 123.962 184.015-65.915 317.745-248.51 325.073-443.835 12.084-195.37-103.273-390.567-280.247-474.207C663.186 29.383 587.632 11.935 512 12Zm0 37.037c186.9-2.393 366.957 120.921 431.919 296.277 69.703 173.649 19.028 386.116-121.192 509.879-136.838 127.18-352.89 156.65-518.697 70.429C135.696 843.754 30.466 652.186 51.302 466.238c16.194-189.972 162.213-359.44 347.848-403.24A462.94 462.94 0 0 1 512 49.039Zm17.94 218.574c-1.244 4.016 1.639.218 0 0zm122.933 131.227c-.882 1.405 1.419-.071 0 0zm-254.867 4.58c-3.153-2.587-3.014 4.83 0 0zm333.348 7.287c-1.3 2.345 6.504 2.251 0 0zm-303.09 15.07c-2.208-.355.41 4.819 0 0zm238.257 209c-3.3-1.856-2.49 6.055 0 0zm-132.62 32.069c-.034.063.001.02 0 0zm88.58 13.718c-2.002-.076.845 1.487 0 0z"/>
    </g>
    <path  stroke-width="14.005"
          d="M688.121 767.69c-29.038 0-54.52-18.388-63.414-45.76l-32.343-98.545H430.568l-30.05 97.647c-9.071 27.903-34.748 46.582-63.935 46.582a66.954 66.954 0 0 1-20.688-3.29c-34.887-10.473-54.693-48.023-44.005-83.658l136.566-432.584c8.868-27.518 34.974-46.712 63.49-46.712h72.618c28.678 0 54.782 18.867 63.477 45.883l143.622 432.424c11.484 35.354-7.532 73.306-42.368 84.645a68.471 68.471 0 0 1-21.174 3.369z"/>
</svg>
