<?xml version="1.0" encoding="UTF-8" standalone="no"?>
<svg
   xmlns:dc="http://purl.org/dc/elements/1.1/"
   xmlns:cc="http://creativecommons.org/ns#"
   xmlns:rdf="http://www.w3.org/1999/02/22-rdf-syntax-ns#"
   xmlns:svg="http://www.w3.org/2000/svg"
   xmlns="http://www.w3.org/2000/svg"
   xmlns:sodipodi="http://sodipodi.sourceforge.net/DTD/sodipodi-0.dtd"
   xmlns:inkscape="http://www.inkscape.org/namespaces/inkscape"
   width="1024"
   height="1024"
   viewBox="0 0 1024 1024"
   version="1.1"
   id="svg2"
   inkscape:version="0.91 r13725"
   sodipodi:docname="admin-connectors.svg">
  <metadata
     id="metadata17">
    <rdf:RDF>
      <cc:Work
         rdf:about="">
        <dc:format>image/svg+xml</dc:format>
        <dc:type
           rdf:resource="http://purl.org/dc/dcmitype/StillImage" />
      </cc:Work>
    </rdf:RDF>
  </metadata>
  <sodipodi:namedview
     pagecolor="#ffffff"
     bordercolor="#666666"
     borderopacity="1"
     objecttolerance="10"
     gridtolerance="10"
     guidetolerance="10"
     inkscape:pageopacity="0"
     inkscape:pageshadow="2"
     inkscape:window-width="1366"
     inkscape:window-height="703"
     id="namedview15"
     showgrid="false"
     inkscape:zoom="0.513"
     inkscape:cx="512"
     inkscape:cy="512"
     inkscape:window-x="0"
     inkscape:window-y="0"
     inkscape:window-maximized="1"
     inkscape:current-layer="svg2" />
  <!-- Generator: Sketch 3.8.3 (29802) - http://www.bohemiancoding.com/sketch -->
  <defs
     id="defs8" />
  <path
     id="path13"
     style="fill-rule:evenodd;stroke:none;stroke-width:1"
     d="m 489.85522,299.78519 1.2963,0.56 c 5.83852,1.58666 11.94667,2.43703 18.27259,2.43703 38.64,0 70,-31.36 70,-70 0,-38.65037 -31.36,-70 -70,-70 -38.65037,0 -70,31.34963 -70,70 0,18.66667 7.29037,35.64297 19.19556,48.16 l 0.0407,0 -169.41037,242.77037 -0.19703,-0.0407 c -6.5637,-2.02296 -13.68815,-3.15333 -20.90593,-3.15333 -38.64,0 -70.23852,31.34963 -70.23852,70 0,38.64 30.86223,70 69.55408,70 24.78519,0 46.22074,-12.92148 58.37481,-32.36593 l 292.51703,105.44593 0.15556,0 c -0.11482,1.53481 -0.15556,3.11111 -0.15556,4.69778 0,38.64 31.34963,70 70,70 38.64,0 70,-31.36 70,-70 0,-38.65037 -31.36,-70 -70,-70 -23.54074,0 -44.36444,11.5837 -57.03704,29.41037 l 0.0408,0.0407 -294.82888,-107.22889 c 0,-17.33926 -3.03852,-33.2163 -18.59408,-45.45333 l 0,0.0407 171.47407,-244.84445 M 512,12 C 379.39887,12 252.21042,64.684108 158.44727,158.44727 64.684108,252.21042 12,379.39887 12,512 12,644.60113 64.684108,771.78958 158.44727,865.55273 252.21042,959.31589 379.39887,1012 512,1012 644.60113,1012 771.78958,959.31589 865.55273,865.55273 959.31589,771.78958 1012,644.60113 1012,512 1012,379.39887 959.31589,252.21042 865.55273,158.44727 771.78958,64.684108 644.60113,12 512,12 Z m 0,37.037109 c 122.79253,0 240.53585,48.772183 327.36328,135.599611 86.82743,86.82743 135.59961,204.57075 135.59961,327.36328 0,122.79253 -48.77218,240.53585 -135.59961,327.36328 C 752.53585,926.19071 634.79253,974.96289 512,974.96289 389.20747,974.96289 271.46415,926.19071 184.63672,839.36328 97.809292,752.53585 49.037109,634.79253 49.037109,512 49.037109,389.20747 97.809292,271.46415 184.63672,184.63672 271.46415,97.809292 389.20747,49.037109 512,49.037109 Z" />
</svg>
