<svg width="1024" height="1024" viewBox="0 0 1024 1024" xmlns="http://www.w3.org/2000/svg">
    <g style="font-family:Lato;-inkscape-font-specification:Lato;letter-spacing:0;white-space:pre">
        <path
                d="M529.95 527.502v-297.2h49.4v117.4q12.4-13.2 27.4-20.8 15.2-7.8 34.6-7.8 17.8 0 32 7 14.4 7 24.4 20.2 10.2 13 15.6 31.6t5.4 41.8q0 25-6.2 45.4t-17.8 35q-11.4 14.4-27.6 22.4-16.2 8-36 8-9.6 0-17.6-2-7.8-1.8-14.4-5.2-6.4-3.4-12-8.2-5.4-5-10.4-11l-2.2 13.8q-1.2 5.2-4.2 7.4-2.8 2.2-7.8 2.2zm94.4-170q-14.2 0-24.8 6.6-10.6 6.4-20.2 18.2v92q8.4 10.4 18.2 14.6 10 4 21 4 11.4 0 20.4-4 9.2-4.2 15.6-12.8 6.4-8.8 9.8-22.2 3.4-13.6 3.4-32.4 0-33.8-11.2-48.8-11.2-15.2-32.2-15.2zm-163.2 170q-7 0-10.8-2-3.8-2.2-6-8.6l-4.4-14.6q-7.8 7-15.2 12.4-7.4 5.2-15.4 8.8-8 3.6-17.2 5.4-9 1.8-20 1.8-13 0-24-3.4-11-3.6-19-10.6t-12.4-17.4q-4.4-10.4-4.4-24.2 0-11.6 6-22.8 6.2-11.4 20.4-20.4 14.2-9.2 37.8-15.2 23.6-6 58.8-6.8v-12q0-20.6-8.8-30.4-8.8-10-25.4-10-12 0-20 2.8-7.8 2.8-13.8 6.4-6 3.4-11 6.2-4.8 2.8-10.8 2.8-5.2 0-8.8-2.6-3.6-2.8-5.8-6.4l-8.8-15.8q35.4-32.4 85.2-32.4 18 0 32.2 6 14.2 5.8 24 16.4 9.8 10.4 14.8 25 5.2 14.6 5.2 32v129.6zm-73.8-30.8q15.2 0 26.2-5.4 11.2-5.6 21.8-16.8v-34.6q-21.6 1-36.2 3.8-14.4 2.6-23.2 6.8-8.8 4.2-12.6 9.8-3.8 5.6-3.8 12.2 0 13 7.6 18.6 7.8 5.6 20.2 5.6zM516.338 48.945c-100.62 0-197.133 37.38-268.282 103.904-71.149 66.525-111.127 156.765-111.127 250.846 0 94.08 39.978 184.32 111.127 250.845 71.15 66.525 167.662 103.904 268.282 103.904 100.62 0 197.133-37.379 268.282-103.904 71.15-66.525 111.127-156.765 111.127-250.845 0-94.08-39.977-184.32-111.127-250.846C713.47 86.324 616.957 48.945 516.337 48.945Zm0 26.278c93.178 0 182.523 34.604 248.41 96.208 65.886 61.604 102.895 145.142 102.895 232.264 0 87.12-37.01 170.66-102.896 232.264-65.886 61.604-155.231 96.208-248.409 96.208-93.177 0-182.523-34.604-248.409-96.208S165.033 490.816 165.033 403.695c0-87.122 37.009-170.66 102.895-232.264 65.886-61.604 155.232-96.208 248.41-96.208zM331.608 487.18c.296.47.582.944.897 1.407-.107-.456-.227-.907-.334-1.363-.188-.01-.375-.033-.563-.044zm20.34 14.597c-.062.102-.127.203-.19.305l.114.381.076-.686z"
                transform="matrix(1.31784 0 0 1.40944 -168.45 -56.985)"/>
    </g>
</svg>
