<?xml version="1.0" encoding="UTF-8" standalone="no"?>
<svg
   xmlns:dc="http://purl.org/dc/elements/1.1/"
   xmlns:cc="http://creativecommons.org/ns#"
   xmlns:rdf="http://www.w3.org/1999/02/22-rdf-syntax-ns#"
   xmlns:svg="http://www.w3.org/2000/svg"
   xmlns="http://www.w3.org/2000/svg"
   xmlns:sodipodi="http://sodipodi.sourceforge.net/DTD/sodipodi-0.dtd"
   xmlns:inkscape="http://www.inkscape.org/namespaces/inkscape"
   width="1024"
   height="1024"
   viewBox="0 0 1024 1024"
   version="1.1"
   id="svg2"
   inkscape:version="0.91 r13725"
   sodipodi:docname="admin-configure-module-menu-filters.svg">
  <metadata
     id="metadata17">
    <rdf:RDF>
      <cc:Work
         rdf:about="">
        <dc:format>image/svg+xml</dc:format>
        <dc:type
           rdf:resource="http://purl.org/dc/dcmitype/StillImage" />
      </cc:Work>
    </rdf:RDF>
  </metadata>
  <sodipodi:namedview
     pagecolor="#ffffff"
     bordercolor="#666666"
     borderopacity="1"
     objecttolerance="10"
     gridtolerance="10"
     guidetolerance="10"
     inkscape:pageopacity="0"
     inkscape:pageshadow="2"
     inkscape:window-width="1366"
     inkscape:window-height="703"
     id="namedview15"
     showgrid="false"
     inkscape:zoom="0.51300001"
     inkscape:cx="257.61404"
     inkscape:cy="512"
     inkscape:window-x="0"
     inkscape:window-y="0"
     inkscape:window-maximized="1"
     inkscape:current-layer="svg2" />
  <!-- Generator: Sketch 3.8.3 (29802) - http://www.bohemiancoding.com/sketch -->
  <defs
     id="defs8" />
  <path
     id="path13"
     style="stroke:none;stroke-width:1"
     d="m 573.56289,610.76544 -375.65433,0 0,61.72837 375.65433,0 c 12.69137,35.96052 46.99259,61.72841 87.30863,61.72841 40.31607,0 74.61729,-25.76789 87.30866,-61.72841 l 67.01234,0 0,-61.72837 -67.01234,0 c -12.69137,-35.96051 -46.99259,-61.7284 -87.30866,-61.7284 -40.31604,0 -74.61726,25.76789 -87.30863,61.7284 l 0,0 z m -308.64198,-277.77778 -67.01235,0 0,61.72838 67.01235,0 c 12.69136,35.96052 46.99259,61.7284 87.30864,61.7284 40.31604,0 74.6173,-25.76788 87.30864,-61.7284 l 375.65433,0 0,-61.72838 -375.65433,0 c -12.69134,-35.9605 -46.9926,-61.7284 -87.30864,-61.7284 -40.31605,0 -74.61728,25.7679 -87.30864,61.7284 l 0,0 z m 87.30864,61.72838 c 17.05678,0 30.86419,-13.80741 30.86419,-30.86419 0,-17.05679 -13.80741,-30.86419 -30.86419,-30.86419 -17.05679,0 -30.86419,13.8074 -30.86419,30.86419 0,17.05678 13.8074,30.86419 30.86419,30.86419 l 0,0 z m 308.64197,277.77777 c 17.05681,0 30.86422,-13.8074 30.86422,-30.86418 0,-17.05678 -13.80741,-30.86419 -30.86422,-30.86419 -17.05678,0 -30.86419,13.80741 -30.86419,30.86419 0,17.05678 13.80741,30.86418 30.86419,30.86418 l 0,0 z M 512,12 C 379.39887,12 252.21042,64.684108 158.44727,158.44727 64.684108,252.21042 12,379.39887 12,512 12,644.60113 64.684108,771.78958 158.44727,865.55273 252.21042,959.31589 379.39887,1012 512,1012 644.60113,1012 771.78958,959.31589 865.55273,865.55273 959.31589,771.78958 1012,644.60113 1012,512 1012,379.39887 959.31589,252.21042 865.55273,158.44727 771.78958,64.684108 644.60113,12 512,12 Z m 0,37.037109 c 122.79253,0 240.53585,48.772183 327.36328,135.599611 86.82743,86.82743 135.59961,204.57075 135.59961,327.36328 0,122.79253 -48.77218,240.53585 -135.59961,327.36328 C 752.53585,926.19071 634.79253,974.96289 512,974.96289 389.20747,974.96289 271.46415,926.19071 184.63672,839.36328 97.809292,752.53585 49.037109,634.79253 49.037109,512 49.037109,389.20747 97.809292,271.46415 184.63672,184.63672 271.46415,97.809292 389.20747,49.037109 512,49.037109 Z" />
</svg>
