<?xml version="1.0" encoding="UTF-8" standalone="no"?>
<svg
   xmlns:dc="http://purl.org/dc/elements/1.1/"
   xmlns:cc="http://creativecommons.org/ns#"
   xmlns:rdf="http://www.w3.org/1999/02/22-rdf-syntax-ns#"
   xmlns:svg="http://www.w3.org/2000/svg"
   xmlns="http://www.w3.org/2000/svg"
   xmlns:sodipodi="http://sodipodi.sourceforge.net/DTD/sodipodi-0.dtd"
   xmlns:inkscape="http://www.inkscape.org/namespaces/inkscape"
   width="1024"
   height="1024"
   viewBox="0 0 1024 1024"
   version="1.1"
   id="svg2"
   inkscape:version="0.91 r13725"
   sodipodi:docname="admin-currencies.svg">
  <metadata
     id="metadata17">
    <rdf:RDF>
      <cc:Work
         rdf:about="">
        <dc:format>image/svg+xml</dc:format>
        <dc:type
           rdf:resource="http://purl.org/dc/dcmitype/StillImage" />
      </cc:Work>
    </rdf:RDF>
  </metadata>
  <sodipodi:namedview
     pagecolor="#ffffff"
     bordercolor="#666666"
     borderopacity="1"
     objecttolerance="10"
     gridtolerance="10"
     guidetolerance="10"
     inkscape:pageopacity="0"
     inkscape:pageshadow="2"
     inkscape:window-width="1366"
     inkscape:window-height="703"
     id="namedview15"
     showgrid="false"
     inkscape:zoom="0.513"
     inkscape:cx="246.11404"
     inkscape:cy="500.5"
     inkscape:window-x="0"
     inkscape:window-y="0"
     inkscape:window-maximized="1"
     inkscape:current-layer="svg2" />
  <!-- Generator: Sketch 3.8.3 (29802) - http://www.bohemiancoding.com/sketch -->
  <defs
     id="defs8" />
  <path
     id="path13"
     style="stroke:none;stroke-width:1"
     d="m 423.46411,201.62963 c -61.16443,0 -116.66665,12.39259 -157.50517,32.81185 -40.82815,20.41926 -68.05038,49.58074 -68.05038,83.85482 0,2.63407 0.16593,5.18518 0.48741,7.77777 l -0.48741,273.92297 0,91.63259 c 0,34.27407 27.22223,63.43555 68.05038,83.85481 40.83852,20.41926 96.34074,32.81186 157.50517,32.81186 59.42222,0 113.38963,-11.74963 153.85482,-31.11112 24.54666,10.04889 51.36444,15.55556 79.47851,15.55556 115.89926,0 210,-94.10074 210,-210 0,-115.89926 -94.10074,-210 -210,-210 -2.63407,0 -5.18518,0.16667 -7.77777,0.23704 l 0,-46.90519 -0.48741,0 c 0.32222,-2.59259 0.48741,-5.1437 0.48741,-7.77777 0,-34.27408 -27.22223,-63.43556 -68.05037,-83.85482 -40.83852,-20.41778 -96.34074,-32.81037 -157.50519,-32.81037 l 0,0 z m 0,15.55556 c 59.10074,0 112.4563,12.11259 150.45333,31.11111 37.99704,18.99852 59.54667,44.11555 59.54667,70 0,25.88444 -21.54963,51.00148 -59.54667,70 -37.99703,18.99851 -91.35259,31.11111 -150.45333,31.11111 -59.10074,0 -112.45628,-12.1126 -150.45332,-31.11111 -37.99704,-18.99852 -59.54667,-44.11556 -59.54667,-70 0,-25.88445 21.54963,-51.00148 59.54667,-70 37.99704,-18.99852 91.35258,-31.11111 150.45332,-31.11111 l 0,0 z m 210,144.1274 0,12.64148 c -4.50074,0.48741 -8.94963,1.17186 -13.36741,1.94963 5.01926,-4.66666 9.56149,-9.52 13.36741,-14.59111 l 0,0 z m -419.76147,0.24889 c 11.95703,15.72148 30.02222,29.45185 52.2563,40.58963 40.83852,20.41926 96.34074,32.81185 157.50517,32.81185 34.27408,0 66.68148,-3.93037 95.76,-10.94074 -26.7763,23.21926 -47.67259,53.06519 -60.03407,87.01778 -11.62519,1.0163 -23.48889,1.70074 -35.72593,1.70074 -59.10074,0 -112.45628,-12.11259 -150.45332,-31.11111 -35.60149,-17.82667 -56.78815,-40.99407 -59.30815,-65.1363 -0.0311,-0.40444 0.0415,-0.80889 0,-1.21333 l 0,-53.71852 z m 443.0948,26.73482 c 107.46815,0 194.44445,86.97629 194.44445,194.44444 0,107.46815 -86.9763,194.44444 -194.44445,194.44444 -107.46814,0 -194.44444,-86.97629 -194.44444,-194.44444 0,-107.46815 86.9763,-194.44444 194.44444,-194.44444 l 0,0 z m -443.0948,66.59851 c 11.95703,15.72149 30.02222,29.45186 52.2563,40.58963 40.83852,20.41926 96.34074,32.81186 157.50517,32.81186 10.5363,0 20.74074,-0.52889 30.87259,-1.21334 -4.8637,17.74371 -7.53926,36.42074 -7.53926,55.65778 0,7.65333 0.40445,15.15111 1.21334,22.60741 -8.05778,0.44592 -16.19852,0.72592 -24.54667,0.72592 -59.10074,0 -112.45628,-12.11259 -150.45332,-31.11111 -35.60149,-17.82666 -56.78815,-40.99407 -59.30815,-65.13629 -0.0726,-0.80889 0.0415,-1.62815 0,-2.43704 l 0,-52.49482 z m -0.23852,93.33334 c 11.94667,15.79407 30.17778,29.45185 52.49482,40.58963 40.83852,20.41926 96.34074,32.81185 157.50517,32.81185 9.11556,0 17.94074,-0.40444 26.73482,-0.97482 4.98814,27.10815 15.10963,52.46371 29.41037,74.86371 -17.89926,2.46815 -36.61778,3.88889 -56.14519,3.88889 -59.10074,0 -112.45628,-12.1126 -150.45332,-31.11111 -37.38518,-18.71852 -58.9037,-43.34815 -59.54667,-68.78667 l 0,-1.21333 0,-50.06815 z m 0,93.08444 c 11.94667,15.84593 30.1363,29.65926 52.49482,40.83852 40.83852,20.41926 96.34074,32.81185 157.50517,32.81185 23.12593,0 45.13185,-1.98074 66.11111,-5.35111 18.38667,24.22519 41.76148,44.44741 68.78667,58.82074 -36.42074,14.99556 -83.36741,24.30815 -134.89778,24.30815 -59.05926,0 -112.45628,-12.11259 -150.45332,-31.11111 -37.99704,-18.99852 -59.54667,-44.11556 -59.54667,-70 l 0,-50.31704 z M 512,12 C 379.39887,12 252.21042,64.684108 158.44727,158.44727 64.684108,252.21042 12,379.39887 12,512 12,644.60113 64.684108,771.78958 158.44727,865.55273 252.21042,959.31589 379.39887,1012 512,1012 644.60113,1012 771.78958,959.31589 865.55273,865.55273 959.31589,771.78958 1012,644.60113 1012,512 1012,379.39887 959.31589,252.21042 865.55273,158.44727 771.78958,64.684108 644.60113,12 512,12 Z m 0,37.037109 c 122.79253,0 240.53585,48.772183 327.36328,135.599611 86.82743,86.82743 135.59961,204.57075 135.59961,327.36328 0,122.79253 -48.77218,240.53585 -135.59961,327.36328 C 752.53585,926.19071 634.79253,974.96289 512,974.96289 389.20747,974.96289 271.46415,926.19071 184.63672,839.36328 97.809292,752.53585 49.037109,634.79253 49.037109,512 49.037109,389.20747 97.809292,271.46415 184.63672,184.63672 271.46415,97.809292 389.20747,49.037109 512,49.037109 Z" />
</svg>
