<?xml version="1.0" encoding="UTF-8" standalone="no"?>
<svg
   xmlns:dc="http://purl.org/dc/elements/1.1/"
   xmlns:cc="http://creativecommons.org/ns#"
   xmlns:rdf="http://www.w3.org/1999/02/22-rdf-syntax-ns#"
   xmlns:svg="http://www.w3.org/2000/svg"
   xmlns="http://www.w3.org/2000/svg"
   xmlns:sodipodi="http://sodipodi.sourceforge.net/DTD/sodipodi-0.dtd"
   xmlns:inkscape="http://www.inkscape.org/namespaces/inkscape"
   width="1024"
   height="1024"
   viewBox="0 0 1024 1024"
   version="1.1"
   id="svg2"
   inkscape:version="0.91 r13725"
   sodipodi:docname="admin-aos-settings.svg">
  <metadata
     id="metadata16">
    <rdf:RDF>
      <cc:Work
         rdf:about="">
        <dc:format>image/svg+xml</dc:format>
        <dc:type
           rdf:resource="http://purl.org/dc/dcmitype/StillImage" />
      </cc:Work>
    </rdf:RDF>
  </metadata>
  <sodipodi:namedview
     pagecolor="#ffffff"
     bordercolor="#666666"
     borderopacity="1"
     objecttolerance="10"
     gridtolerance="10"
     guidetolerance="10"
     inkscape:pageopacity="0"
     inkscape:pageshadow="2"
     inkscape:window-width="1366"
     inkscape:window-height="703"
     id="namedview14"
     showgrid="false"
     inkscape:zoom="0.513"
     inkscape:cx="257.61404"
     inkscape:cy="512"
     inkscape:window-x="0"
     inkscape:window-y="0"
     inkscape:window-maximized="1"
     inkscape:current-layer="svg2" />
  <!-- Generator: Sketch 3.8.3 (29802) - http://www.bohemiancoding.com/sketch -->
  <defs
     id="defs8" />
  <path
     id="AOS"
     style="fill-rule:evenodd;stroke:none;stroke-width:1"
     d="m 317.25,567.31481 -22.5,-66.5 c -1.66667,-4.22225 -3.44444,-9.1944 -5.33333,-14.91666 -1.88889,-5.72226 -3.77777,-11.91663 -5.66667,-18.58334 -1.66667,6.77782 -3.44444,13.05552 -5.33333,18.83334 -1.88889,5.77781 -3.66667,10.77774 -5.33334,15 l -22.33333,66.16666 66.5,0 z m 89.5,92.83334 -43.66667,0 c -4.88891,0 -8.83332,-1.13889 -11.83333,-3.41667 -3,-2.27778 -5.27777,-5.19444 -6.83333,-8.75 l -14.33334,-42.33333 -92.33333,0 -14.33333,42.33333 c -1.22223,3.11111 -3.41667,5.91667 -6.58334,8.41667 -3.16668,2.5 -7.08331,3.75 -11.75,3.75 l -44,0 94,-242.83334 57.66667,0 94,242.83334 z m 257.5,-121.5 c 0,17.55563 -3.02778,33.88881 -9.08333,49 -6.0556,15.11118 -14.5833,28.24992 -25.58334,39.41666 -11.00007,11.16671 -24.24992,19.91663 -39.75,26.25 -15.50007,6.33338 -32.69433,9.5 -51.58333,9.5 -18.88896,0 -36.11104,-3.16666 -51.66667,-9.5 -15.55563,-6.33337 -28.86107,-15.08329 -39.91666,-26.25 C 435.61107,615.89807 427.05559,602.75933 421,587.64815 c -6.05559,-15.11119 -9.08333,-31.44437 -9.08333,-49 0,-17.55563 3.02777,-33.88882 9.08333,-49 6.05559,-15.11119 14.61107,-28.22215 25.66667,-39.33334 11.05559,-11.11114 24.36103,-19.83329 39.91666,-26.16666 15.55563,-6.33337 32.77771,-9.5 51.66667,-9.5 18.889,0 36.08326,3.19444 51.58333,9.58333 15.50008,6.38893 28.74993,15.13885 39.75,26.25 11.00004,11.11115 19.52774,24.22215 25.58334,39.33333 6.05559,15.11119 9.08333,31.38882 9.08333,48.83334 l 0,0 z m -57.66667,0 c 0,-12.00008 -1.55555,-22.80552 -4.66666,-32.41667 -3.11111,-9.61115 -7.5833,-17.74996 -13.41667,-24.41667 -5.83337,-6.6667 -12.97219,-11.77774 -21.41667,-15.33333 -8.44448,-3.55555 -18.05548,-5.33333 -28.83333,-5.33333 -10.88893,0 -20.5833,1.77778 -29.08333,5.33333 -8.50004,3.55556 -15.66663,8.66663 -21.5,15.33333 -5.83337,6.66671 -10.30556,14.80552 -13.41667,24.41667 -3.11111,9.61115 -4.66667,20.41659 -4.66667,32.41667 0,12.11118 1.55556,22.97218 4.66667,32.58333 3.11111,9.61115 7.5833,17.74996 13.41667,24.41667 5.83337,6.6667 12.99996,11.74996 21.5,15.25 8.50003,3.5 18.1944,5.25 29.08333,5.25 10.77785,0 20.38885,-1.75 28.83333,-5.25 8.44448,-3.5 15.5833,-8.5833 21.41667,-15.25 5.83337,-6.66671 10.30556,-14.80552 13.41667,-24.41667 3.11111,-9.61115 4.66666,-20.47215 4.66666,-32.58333 l 0,0 z m 225,-72 c -1.66666,2.66666 -3.41666,4.66666 -5.25,6 -1.83333,1.33333 -4.19444,2 -7.08333,2 -2.55556,0 -5.30556,-0.80556 -8.25,-2.41667 -2.94444,-1.61111 -6.27778,-3.41667 -10,-5.41667 -3.72226,-2 -7.97219,-3.80555 -12.75,-5.41666 -4.77782,-1.61111 -10.22219,-2.41667 -16.33333,-2.41667 -10.5556,0 -18.41663,2.25 -23.58334,6.75 -5.1667,4.50004 -7.75,10.5833 -7.75,18.25 0,4.88893 1.55556,8.94445 4.66667,12.16667 3.11111,3.22222 7.19441,6 12.25,8.33333 5.05559,2.33333 10.8333,4.47222 17.33333,6.41667 6.50004,1.94444 13.13885,4.11111 19.91667,6.5 6.77781,2.38889 13.41663,5.19444 19.91667,8.41666 6.50003,3.22223 12.27774,7.3333 17.33333,12.33334 5.05559,5.00004 9.13889,11.08329 12.25,18.25 3.11111,7.1667 4.66667,15.80552 4.66667,25.91666 0,11.22226 -1.94445,21.72219 -5.83334,31.5 -3.88892,9.77782 -9.52774,18.30552 -16.91666,25.58334 -7.38893,7.27781 -16.49997,12.99996 -27.33334,17.16666 -10.8334,4.16671 -23.13881,6.25 -36.91666,6.25 -7.5556,0 -15.24997,-0.77777 -23.08334,-2.33333 -7.83337,-1.55555 -15.41663,-3.75 -22.75,-6.58333 -7.33337,-2.83334 -14.22218,-6.19445 -20.66666,-10.08334 -6.44448,-3.88892 -12.05552,-8.22218 -16.83334,-13 L 695.25,604.48148 c 1.33333,-1.88889 3.08333,-3.47222 5.25,-4.75 2.16667,-1.27778 4.52778,-1.91667 7.08333,-1.91667 3.33334,0 6.69441,1.05556 10.08334,3.16667 3.38889,2.11111 7.22218,4.44445 11.5,7 4.27781,2.55556 9.1944,4.88889 14.75,7 5.55559,2.11111 12.11107,3.16667 19.66666,3.16667 10.22226,0 18.16663,-2.25 23.83334,-6.75 5.6667,-4.50004 8.5,-11.63885 8.5,-21.41667 0,-5.6667 -1.55556,-10.27774 -4.66667,-13.83333 -3.11111,-3.55556 -7.19441,-6.5 -12.25,-8.83334 -5.05559,-2.33333 -10.80552,-4.38888 -17.25,-6.16666 -6.44448,-1.77778 -13.05552,-3.75 -19.83333,-5.91667 -6.77782,-2.16667 -13.38886,-4.83333 -19.83334,-8 -6.44448,-3.16667 -12.1944,-7.33329 -17.25,-12.5 -5.05559,-5.1667 -9.13889,-11.61107 -12.25,-19.33333 -3.11111,-7.72226 -4.66666,-17.24996 -4.66666,-28.58334 0,-9.11114 1.83333,-17.99996 5.5,-26.66666 3.66666,-8.66671 9.05551,-16.38885 16.16666,-23.16667 7.11115,-6.77781 15.8333,-12.19441 26.16667,-16.25 10.33337,-4.05555 22.16659,-6.08333 35.5,-6.08333 7.44448,0 14.69441,0.58333 21.75,1.75 7.05559,1.16666 13.74996,2.88889 20.08333,5.16666 6.33337,2.27778 12.24997,5 17.75,8.16667 5.50004,3.16667 10.41663,6.75 14.75,10.75 l -14,26.16667 z M 512,12 C 379.39887,12 252.21042,64.684108 158.44727,158.44727 64.684108,252.21042 12,379.39887 12,512 12,644.60113 64.684108,771.78958 158.44727,865.55273 252.21042,959.31589 379.39887,1012 512,1012 644.60113,1012 771.78958,959.31589 865.55273,865.55273 959.31589,771.78958 1012,644.60113 1012,512 1012,379.39887 959.31589,252.21042 865.55273,158.44727 771.78958,64.684108 644.60113,12 512,12 Z m 0,37.037109 c 122.79253,0 240.53585,48.772183 327.36328,135.599611 86.82743,86.82743 135.59961,204.57075 135.59961,327.36328 0,122.79253 -48.77218,240.53585 -135.59961,327.36328 C 752.53585,926.19071 634.79253,974.96289 512,974.96289 389.20747,974.96289 271.46415,926.19071 184.63672,839.36328 97.809292,752.53585 49.037109,634.79253 49.037109,512 49.037109,389.20747 97.809292,271.46415 184.63672,184.63672 271.46415,97.809292 389.20747,49.037109 512,49.037109 Z" />
</svg>
