<?xml version="1.0" encoding="UTF-8" standalone="no"?>
<svg
   xmlns:dc="http://purl.org/dc/elements/1.1/"
   xmlns:cc="http://creativecommons.org/ns#"
   xmlns:rdf="http://www.w3.org/1999/02/22-rdf-syntax-ns#"
   xmlns:svg="http://www.w3.org/2000/svg"
   xmlns="http://www.w3.org/2000/svg"
   xmlns:sodipodi="http://sodipodi.sourceforge.net/DTD/sodipodi-0.dtd"
   xmlns:inkscape="http://www.inkscape.org/namespaces/inkscape"
   width="1024"
   height="1024"
   viewBox="0 0 1024 1024"
   version="1.1"
   id="svg2"
   inkscape:version="0.91 r13725"
   sodipodi:docname="admin-outbound-email.svg">
  <metadata
     id="metadata17">
    <rdf:RDF>
      <cc:Work
         rdf:about="">
        <dc:format>image/svg+xml</dc:format>
        <dc:type
           rdf:resource="http://purl.org/dc/dcmitype/StillImage" />
      </cc:Work>
    </rdf:RDF>
  </metadata>
  <sodipodi:namedview
     pagecolor="#ffffff"
     bordercolor="#666666"
     borderopacity="1"
     objecttolerance="10"
     gridtolerance="10"
     guidetolerance="10"
     inkscape:pageopacity="0"
     inkscape:pageshadow="2"
     inkscape:window-width="1366"
     inkscape:window-height="703"
     id="namedview15"
     showgrid="false"
     inkscape:zoom="0.513"
     inkscape:cx="-9.9131194"
     inkscape:cy="519.25488"
     inkscape:window-x="0"
     inkscape:window-y="0"
     inkscape:window-maximized="1"
     inkscape:current-layer="svg2" />
  <!-- Generator: Sketch 3.8.3 (29802) - http://www.bohemiancoding.com/sketch -->
  <defs
     id="defs8" />
  <path
     id="path4135"
     style="fill-rule:evenodd;stroke:none;stroke-width:1"
     d="M 623.6841,570.27051 511.99325,458.57962 400.3024,570.27051 c -8.67952,8.67948 -42.8326,-25.53778 -34.20445,-34.20444 L 495.14781,407.01618 c 11.08052,-11.08048 22.61037,-11.08048 33.69089,0 l 129.04984,129.04989 c 8.67952,8.66666 -25.52492,42.83259 -34.20444,34.20444 z m 145.72331,-339.75199 -529.62963,0 c -24.07408,0 -24.07408,-0.50074 -24.07408,24.07407 l 0,505.55556 c 0,48.14815 0,48.14815 48.14815,48.14815 l 481.48148,0 c 48.14815,0 48.14815,0 48.14815,-48.14815 l 0,-505.55556 c 0,-24.57481 0,-24.07407 -24.07407,-24.07407 z m -24.07408,48.14815 0,385.18518 -128.54914,0 c -12.0306,0 -17.79556,10.13037 -20.20938,14.94519 -25.52492,38.51852 -59.67803,51.0627 -91.98222,51.0627 -32.75359,0 -66.45729,-12.99356 -91.98222,-51.0627 -3.8647,-7.21582 -8.17878,-14.94519 -19.76,-14.94519 l -129.04988,0 0,-385.18518 z M 512,12 C 379.39887,12 252.21042,64.684108 158.44727,158.44727 64.684108,252.21042 12,379.39887 12,512 12,644.60113 64.684108,771.78958 158.44727,865.55273 252.21042,959.31589 379.39887,1012 512,1012 644.60113,1012 771.78958,959.31589 865.55273,865.55273 959.31589,771.78958 1012,644.60113 1012,512 1012,379.39887 959.31589,252.21042 865.55273,158.44727 771.78958,64.684108 644.60113,12 512,12 Z m 0,37.037109 c 122.79253,0 240.53585,48.772183 327.36328,135.599611 86.82743,86.82743 135.59961,204.57075 135.59961,327.36328 0,122.79253 -48.77218,240.53585 -135.59961,327.36328 C 752.53585,926.19071 634.79253,974.96289 512,974.96289 389.20747,974.96289 271.46415,926.19071 184.63672,839.36328 97.809292,752.53585 49.037109,634.79253 49.037109,512 49.037109,389.20747 97.809292,271.46415 184.63672,184.63672 271.46415,97.809292 389.20747,49.037109 512,49.037109 Z" />
</svg>
