<?xml version="1.0" encoding="UTF-8"?>
<svg width="70px" height="70px" viewBox="0 0 70 70" version="1.1" xmlns="http://www.w3.org/2000/svg" xmlns:xlink="http://www.w3.org/1999/xlink">
    <g id="icon_developer_tools" stroke="none" stroke-width="1" fill="none" fill-rule="evenodd">
        <path d="M35,0 C54.3299662,0 70,15.6700338 70,35 C70,54.3299662 54.3299662,70 35,70 C15.6700338,70 0,54.3299662 0,35 C0,15.6700338 15.6700338,0 35,0 Z M35,3 C17.326888,3 3,17.326888 3,35 C3,52.673112 17.326888,67 35,67 C52.673112,67 67,52.673112 67,35 C67,17.326888 52.673112,3 35,3 Z" id="Oval" fill="#F08377" fill-rule="nonzero"></path>
        <path d="M52.5384975,16 L17.4615399,16 C16.6540216,16 16,16.6540216 16,17.4615399 L16,52.5384975 C16,52.9258033 16.1534594,53.2984983 16.4274993,53.5725195 C16.7015392,53.8465594 17.0742248,54.0000187 17.4615212,54.0000187 L52.5384788,54.0000187 C52.9257845,54.0000187 53.2984796,53.8465594 53.5725007,53.5725195 C53.8465406,53.2984796 54,52.9257939 54,52.5384975 L54,17.4615399 C54,17.0742342 53.8465406,16.7015392 53.5725007,16.427518 C53.2984608,16.1534781 52.9257752,16 52.5384788,16 L52.5384975,16 Z M51.0769576,18.9230798 L51.0769576,24.7692394 L18.9230798,24.7692394 L18.9230798,18.9230798 L51.0769576,18.9230798 Z M18.9230798,51.0769576 L18.9230798,27.6923192 L51.0769576,27.6923192 L51.0769576,51.0769576 L18.9230798,51.0769576 Z M21.8461502,21.8461596 C21.8461502,21.2542476 22.2024105,20.7226213 22.7486663,20.4960709 C23.2949315,20.2695299 23.9233703,20.3955918 24.3417214,20.8121283 C24.758258,21.2304935 24.8843386,21.858965 24.6577789,22.4051834 C24.4312378,22.9514486 23.8996021,23.3076901 23.3076901,23.3076901 C22.5001718,23.3076901 21.8461502,22.6536686 21.8461502,21.8461502 L21.8461502,21.8461596 Z M26.23077,21.8461596 C26.23077,21.2542476 26.5870302,20.7226213 27.133286,20.4960709 C27.6795512,20.2695299 28.30799,20.3955918 28.7263411,20.8121283 C29.1428777,21.2304935 29.2689583,21.858965 29.0423986,22.4051834 C28.8158575,22.9514486 28.2842218,23.3076901 27.6923099,23.3076901 C26.8847915,23.3076901 26.23077,22.6536686 26.23077,21.8461502 L26.23077,21.8461596 Z M31.7846309,32.6615549 C32.2687865,33.3064564 32.1372292,34.2235552 31.4923229,34.7077107 L26.9907801,38.0838913 L30.1915758,41.2700483 C30.4674397,41.5440882 30.6245564,41.9185978 30.6245564,42.307765 C30.6245564,42.6969321 30.4674397,43.0714137 30.1915758,43.3454817 C29.9175359,43.6213456 29.5430263,43.7784623 29.1538591,43.7784623 C28.764692,43.7784623 28.3902104,43.6213456 28.1161424,43.3454817 L23.7315227,38.960862 C23.4319093,38.6612487 23.2766166,38.2447308 23.3076761,37.8208609 C23.3387356,37.3969909 23.5524852,37.0078705 23.8922921,36.7539601 L29.7384517,32.3693404 C30.0490277,32.1373227 30.4381668,32.0368389 30.8218152,32.0916478 C31.2054683,32.1464568 31.5525852,32.3510723 31.7846075,32.6616718 L31.7846309,32.6615549 Z M46.2686083,38.3468282 C46.5682216,38.6464415 46.7235143,39.0629593 46.6924548,39.4868293 C46.6613954,39.9106992 46.4476457,40.2998196 46.1078389,40.55373 L40.2616793,44.9383497 C40.0095648,45.1283499 39.7008221,45.2306577 39.3847553,45.2306577 C38.9243679,45.2306577 38.4913686,45.0132554 38.2155234,44.6460417 C37.7313679,44.0011402 37.8629252,43.0840414 38.5078314,42.5998859 L43.0093743,39.2237053 L39.8085785,36.0375483 C39.2349066,35.4638764 39.2349066,34.5358336 39.8085785,33.9621617 C40.3822505,33.3884897 41.3102932,33.3884897 41.8839652,33.9621617 L46.2686083,38.3468282 Z M37.9230985,32.3692469 L35.0000187,46.9846459 C34.8593461,47.675241 34.243666,48.1684698 33.5384788,48.1538778 L33.2461708,48.1538778 C32.8552077,48.0844535 32.5081049,47.8560885 32.2888505,47.5253923 C32.0677908,47.1947195 31.9910612,46.7891503 32.0769296,46.4000299 L35.0000094,31.7846309 C35.1607787,30.9771126 35.9463389,30.4546062 36.7538572,30.615399 C37.5613756,30.7761918 38.0838819,31.5617286 37.9230892,32.3692469 L37.9230985,32.3692469 Z" id="Fill-1" fill="#F08377"></path>
    </g>
</svg>
