<?xml version="1.0" encoding="UTF-8"?>
<svg width="70px" height="70px" viewBox="0 0 70 70" version="1.1" xmlns="http://www.w3.org/2000/svg" xmlns:xlink="http://www.w3.org/1999/xlink">
    <g id="icon_email" stroke="none" stroke-width="1" fill="none" fill-rule="evenodd">
        <path d="M35,0 C54.3299662,0 70,15.6700338 70,35 C70,54.3299662 54.3299662,70 35,70 C15.6700338,70 0,54.3299662 0,35 C0,15.6700338 15.6700338,0 35,0 Z M35,3 C17.326888,3 3,17.326888 3,35 C3,52.673112 17.326888,67 35,67 C52.673112,67 67,52.673112 67,35 C67,17.326888 52.673112,3 35,3 Z" id="Oval" fill="#F08377" fill-rule="nonzero"></path>
        <path d="M34,24 C28.5,24 24,28.5 24,34 C24,39.5 28.5,44 34,44 L44,44 C49.5,44 54,39.5 54,34 C54,22.949 45.051,14 34,14 C22.949,14 14,22.949 14,34 C14,45.051 22.949,54 34,54 L54,54 L54,49 L34,49 C25.699,49 19,42.301 19,34 C19,25.699 25.699,19 34,19 C42.301,19 49,25.699 49,34 C49,36.75 46.75,39 44,39 L42.5996,39 C43.4492,37.5 44,35.8496 44,34 C44,28.5 39.5,24 34,24 Z M34,39 C31.25,39 29,36.75 29,34 C29,31.25 31.25,29 34,29 C36.75,29 39,31.25 39,34 C39,36.75 36.75,39 34,39 Z" id="Fill-1" fill="#F08377"></path>
    </g>
</svg>
