<?xml version="1.0" encoding="UTF-8"?>
<svg width="70px" height="70px" viewBox="0 0 70 70" version="1.1" xmlns="http://www.w3.org/2000/svg" xmlns:xlink="http://www.w3.org/1999/xlink">
    <defs>
        <polygon id="path-1" points="0 0 64 0 64 40.6460377 0 40.6460377"></polygon>
    </defs>
    <g id="icon_google_suite" stroke="none" stroke-width="1" fill="none" fill-rule="evenodd">
        <path d="M35,0 C54.3299662,0 70,15.6700338 70,35 C70,54.3299662 54.3299662,70 35,70 C15.6700338,70 0,54.3299662 0,35 C0,15.6700338 15.6700338,0 35,0 Z M35,3 C17.326888,3 3,17.326888 3,35 C3,52.673112 17.326888,67 35,67 C52.673112,67 67,52.673112 67,35 C67,17.326888 52.673112,3 35,3 Z" id="Oval" fill="#F08377" fill-rule="nonzero"></path>
        <g id="G+" transform="translate(15.000000, 15.000000)">
            <mask id="mask-2" fill="white">
                <use xlink:href="#path-1"></use>
            </mask>
            <g id="Clip-2"></g>
            <path d="M20.327044,16.2938365 L20.327044,24.3441509 C20.327044,24.3441509 28.1366541,24.3336855 31.3165283,24.3336855 C29.594566,29.5525031 26.9170314,32.3944654 20.327044,32.3944654 C13.6579623,32.3944654 8.45283019,26.9880755 8.45283019,20.3189937 C8.45283019,13.6499119 13.6579623,8.24352201 20.327044,8.24352201 C23.8530818,8.24352201 26.1303145,9.48286792 28.2191698,11.2102642 C29.8912201,9.53821384 29.7515472,9.29992453 34.0055346,5.28261635 C30.3943648,1.99567296 25.5947673,-0.00805031447 20.327044,-0.00805031447 C9.10067925,-0.00805031447 0,9.09262893 0,20.3189937 C0,31.5451572 9.10067925,40.6460377 20.327044,40.6460377 C37.1073208,40.6460377 41.2087547,26.034717 39.8490566,16.2938365 C35.8766289,16.2938365 20.327044,16.2938365 20.327044,16.2938365 L20.327044,16.2938365 Z" id="Fill-1" fill="#F08377" mask="url(#mask-2)"></path>
        </g>
    </g>
</svg>
