<?xml version="1.0" encoding="UTF-8"?>
<svg width="70px" height="70px" viewBox="0 0 70 70" version="1.1" xmlns="http://www.w3.org/2000/svg" xmlns:xlink="http://www.w3.org/1999/xlink">
    <g id="icon_module_settings" stroke="none" stroke-width="1" fill="none" fill-rule="evenodd">
        <path d="M35,0 C54.3299662,0 70,15.6700338 70,35 C70,54.3299662 54.3299662,70 35,70 C15.6700338,70 0,54.3299662 0,35 C0,15.6700338 15.6700338,0 35,0 Z M35,3 C17.326888,3 3,17.326888 3,35 C3,52.673112 17.326888,67 35,67 C52.673112,67 67,52.673112 67,35 C67,17.326888 52.673112,3 35,3 Z" id="Oval" fill="#F08377" fill-rule="nonzero"></path>
        <path d="M52.4317461,40.4038848 C51.9248396,40.1270741 51.4197737,39.94373 50.9128671,39.8053154 L50.9128671,28.0244319 C50.9128671,27.0124595 50.3610495,26.0921498 49.485651,25.5852433 L39.2706743,19.6501665 C40.0525693,17.3961442 39.1322689,14.8654768 37.0166519,13.6681539 C34.5774633,12.2876895 31.4947942,13.1163363 30.1143297,15.5087732 C29.3773458,16.7975748 29.2407718,18.3164538 29.7009082,19.6501665 L19.4840909,25.5406083 C18.610533,26.0475148 18.0568748,26.9678244 18.0568748,27.9797969 L18.0568748,39.8053154 C17.5517628,39.8969875 16.9999452,40.1270649 16.5397904,40.4038848 C14.1006026,41.7843493 13.2719554,44.9137701 14.699172,47.306207 C16.0796355,49.7453957 19.2090564,50.5740424 21.6014933,49.1468263 C22.1083998,48.8700155 22.5218029,48.5033458 22.8902949,48.0881021 L33.1052716,53.9785425 C33.5186931,54.2086199 34.0255812,54.3470252 34.5324878,54.3470252 C35.0393943,54.3470252 35.4995491,54.2086199 35.9597039,53.9785425 L46.1746806,48.0881021 C46.5431634,48.5015236 46.9565757,48.8699971 47.4634822,49.1468263 C49.9026709,50.5272907 52.98534,49.6986439 54.3658044,47.306207 C55.6995171,44.8670184 54.8709164,41.7843493 52.4317277,40.4038848 L52.4317461,40.4038848 Z M45.5294239,42.2445041 C44.79244,43.5333057 44.655866,45.0521847 45.1160024,46.3858974 L34.8991851,52.3209728 C34.6223744,52.4593782 34.3006158,52.4593782 34.0705383,52.3209728 L23.8555616,46.3858974 C24.3157165,45.0521847 24.2240444,43.5333057 23.4421402,42.2445041 C22.7051562,40.9557025 21.4181952,40.0821446 20.0377308,39.8053154 L20.0377308,28.0244319 C20.0377308,27.7026825 20.2210749,27.4258625 20.4511523,27.287448 L30.666129,21.3970062 C31.0346117,21.8104277 31.448024,22.1789013 31.9549306,22.4557304 C34.072379,23.6977803 36.7396203,23.1927144 38.3055272,21.3970062 L48.5205038,27.287448 C48.7973146,27.4258533 48.9339253,27.7008695 48.9339253,28.0244319 L48.9339253,39.8499505 C47.5534609,40.0800279 46.311411,40.9553804 45.529516,42.244182 L45.5294239,42.2445041 Z" id="Fill-1" fill="#F08377"></path>
    </g>
</svg>
