<?xml version="1.0" encoding="UTF-8"?>
<svg width="70px" height="70px" viewBox="0 0 70 70" version="1.1" xmlns="http://www.w3.org/2000/svg" xmlns:xlink="http://www.w3.org/1999/xlink">
    <g id="icon_system" stroke="none" stroke-width="1" fill="none" fill-rule="evenodd">
        <path d="M35,0 C54.3299662,0 70,15.6700338 70,35 C70,54.3299662 54.3299662,70 35,70 C15.6700338,70 0,54.3299662 0,35 C0,15.6700338 15.6700338,0 35,0 Z M35,3 C17.326888,3 3,17.326888 3,35 C3,52.673112 17.326888,67 35,67 C52.673112,67 67,52.673112 67,35 C67,17.326888 52.673112,3 35,3 Z" id="Oval" fill="#F08377" fill-rule="nonzero"></path>
        <path d="M51.6501997,40.0728355 L51.6501997,30.7346586 C53.5849103,30.2150377 55,28.5180622 55,26.4414652 C55,23.9890204 53.0192518,22.0082722 50.566807,22.0082722 C49.3396413,22.0082722 48.2083242,22.5278932 47.4068174,23.3294 L39.4360889,18.7063963 C39.5779658,18.2826053 39.6240317,17.9048895 39.6240317,17.433193 C39.6240317,14.9807482 37.6432835,13 35.1908388,13 C32.738394,13 30.7576458,14.9807482 30.7576458,17.433193 C30.7576458,17.8109181 30.8055513,18.1886622 30.8995227,18.5184724 L22.6410593,23.3274189 C21.8395525,22.5259121 20.7063487,22.0062911 19.4810697,22.0062911 C17.0286249,22.0062911 15.0478772,23.9870393 15.0478772,26.4394841 C15.0478772,28.5141942 16.4629664,30.2130566 18.397677,30.7326775 L18.397677,40.1184957 C16.4150892,40.5920319 15,42.2908942 15,44.3656044 C15,46.8180491 16.9807477,48.7987973 19.4331925,48.7987973 C20.6603583,48.7987973 21.7916753,48.2791764 22.5931821,47.4776696 L30.7058913,52.1467108 C30.6119199,52.524436 30.5179485,52.90218 30.5179485,53.3259522 C30.5179485,55.778396 32.4986967,57.7591447 34.9511414,57.7591447 C37.4035862,57.7591447 39.3843344,55.778396 39.3843344,53.3259522 C39.3843344,52.9021612 39.290363,52.5244454 39.1963916,52.1467108 L47.3091008,47.4776696 C48.1106076,48.2791764 49.2438114,48.7987973 50.4690904,48.7987973 C52.9215351,48.7987973 54.9022833,46.8180491 54.9022833,44.3656044 C54.9980991,42.2908942 53.5829952,40.5920319 51.6501714,40.0724109 L51.6501997,40.0728355 Z M20.5644529,40.0728355 L20.5644529,30.7346586 C21.4138841,30.4988104 22.1214289,30.0750382 22.6870874,29.4614553 L30.754042,34.0826193 C30.6121651,34.5064104 30.5181938,34.9320505 30.5181938,35.403747 C30.5181938,35.8754436 30.6121651,36.3471402 30.754042,36.7709124 L22.7352005,41.393916 C22.169542,40.7803331 21.4140728,40.3086366 20.5646416,40.0727883 L20.5644529,40.0728355 Z M39.1964671,34.0365346 L47.2634217,29.4135309 C47.8290802,30.0271138 48.5845494,30.4988104 49.4339806,30.7346586 L49.4339806,40.1204768 C48.5845494,40.3563251 47.7830426,40.8280217 47.2173841,41.4876421 L39.1985426,36.8646385 C39.3404194,36.4408474 39.4343908,35.9691697 39.4343908,35.4495488 C39.4325512,34.9317675 39.3385798,34.4600709 39.1966982,34.0362987 L39.1964671,34.0365346 Z M46.3200286,27.8087249 L38.301187,32.4317285 C37.6876041,31.7241837 36.838173,31.2524871 35.8947798,31.0645632 L35.8947798,21.8183672 C36.838173,21.6764903 37.6396798,21.2527087 38.301187,20.6391258 L46.3200286,25.2621295 C46.2260572,25.6398546 46.1320858,26.0175987 46.1320858,26.4413709 C46.0841803,26.9130674 46.1781517,27.3368396 46.3200286,27.8085362 L46.3200286,27.8087249 Z M31.9332834,20.4974282 C32.498942,21.0630867 33.2064868,21.4887457 34.0079936,21.7245939 L34.0079936,31.0646575 C33.0646005,31.2526003 32.2630937,31.7722024 31.6495108,32.4797472 L23.6306692,27.8567436 C23.7725461,27.4329525 23.8665175,26.9612748 23.8665175,26.4416539 C23.8665175,26.0178628 23.7725461,25.6401471 23.6785747,25.2624125 L31.9332834,20.4974282 Z M23.7267067,45.545459 C23.8206781,45.1677338 23.9146494,44.7899897 23.9146494,44.3662176 C23.9146494,43.894521 23.8206781,43.4228244 23.6788012,42.9990522 L31.6976427,38.3760486 C32.3112256,39.0356691 33.1127324,39.5073656 34.0082011,39.7432139 L34.0082011,49.0351645 C33.15877,49.2231072 32.4051875,49.6487473 31.8376422,50.2623302 L23.7267067,45.545459 Z M38.159678,50.2145002 C37.5460952,49.6009173 36.7445884,49.1292208 35.8491196,48.9873344 L35.8491196,39.7430252 C36.7925127,39.5550824 37.5940195,39.0834047 38.2076024,38.3758599 L46.3203116,43.0928255 C46.1784347,43.5166166 46.0844633,43.9422567 46.0844633,44.4139532 C46.0844633,44.8377443 46.1784347,45.21546 46.2724061,45.5931947 L38.159678,50.2145002 Z" id="Fill-1" fill="#F08377"></path>
    </g>
</svg>
