<?xml version="1.0" encoding="UTF-8"?>
<svg width="70px" height="70px" viewBox="0 0 70 70" version="1.1" xmlns="http://www.w3.org/2000/svg" xmlns:xlink="http://www.w3.org/1999/xlink">
    <g id="icon_users_and_authentication" stroke="none" stroke-width="1" fill="none" fill-rule="evenodd">
        <path d="M20.5000202,18 C17.1855632,18 14.5000074,20.6875057 14.5000074,24.0020128 C14.5000074,27.3165198 17.1855632,30.0040255 20.5000202,30.0040255 C23.8144773,30.0040255 26.500033,27.3165198 26.500033,24.0020128 C26.500033,20.6875057 23.8144773,18 20.5000202,18 Z M48.5000798,18 C45.1856227,18 42.500067,20.6875057 42.500067,24.0020128 C42.500067,27.3165198 45.1856227,30.0040255 48.5000798,30.0040255 C51.8145368,30.0040255 54.5000926,27.3165198 54.5000926,24.0020128 C54.5000926,20.6875057 51.8145368,18 48.5000798,18 Z M34.50005,22.9863606 C31.1855929,22.9863606 28.5000372,25.6738663 28.5000372,28.9883734 C28.5000372,32.3028304 31.1855929,34.9903861 34.50005,34.9903861 C37.8145071,34.9903861 40.5000628,32.3028804 40.5000628,28.9883734 C40.5000628,25.6739163 37.8145071,22.9863606 34.50005,22.9863606 Z M20.5000202,31.0058777 C13,31.0058777 11,41.1603993 11,47.5139128 L23.687527,47.5139128 C23.242216,49.2678165 23.0000255,50.9885202 23.0000255,52.5002734 L46.0000745,52.5002734 C46.0000745,50.9885702 45.773514,49.2678665 45.328173,47.5139128 L58.0002,47.5139128 C58.0002,41.1603993 56.0001957,31.0058777 48.5001798,31.0058777 C44.1876706,31.0058777 41.6856653,34.3535348 40.3441624,38.4158934 C38.726959,36.9334903 36.7777548,35.9920383 34.50015,35.9920383 C32.2225452,35.9920383 30.273591,36.9334403 28.6561376,38.4158934 C27.3143347,34.3533848 24.8123794,31.0058777 20.5001202,31.0058777 L20.5000202,31.0058777 Z" id="Fill-1" fill="#F08377"></path>
        <path d="M35,0 C54.3299662,0 70,15.6700338 70,35 C70,54.3299662 54.3299662,70 35,70 C15.6700338,70 0,54.3299662 0,35 C0,15.6700338 15.6700338,0 35,0 Z M35,3 C17.326888,3 3,17.326888 3,35 C3,52.673112 17.326888,67 35,67 C52.673112,67 67,52.673112 67,35 C67,17.326888 52.673112,3 35,3 Z" id="Oval" fill="#F08377" fill-rule="nonzero"></path>
    </g>
</svg>
