<?xml version="1.0" encoding="utf-8"?>
<svg version="1.1" id="Layer_1" xmlns="http://www.w3.org/2000/svg" xmlns:xlink="http://www.w3.org/1999/xlink" x="0px"
     y="0px"
     viewBox="0 0 16 17" style="enable-background:new 0 0 16 17;" xml:space="preserve">
    <title>Alert Icon</title>
  <g>
	<g>
		<path d="M14.8,12h-0.9V8.1c0-2.9-2-5.3-4.7-5.8C9.4,2,9.4,1.8,9.4,1.5v0C9.4,0.6,8.8,0,8,0
			C7.2,0,6.6,0.6,6.6,1.4v0c0,0.3,0.1,0.6,0.2,0.8c-2.7,0.6-4.7,3-4.7,5.8v3.9l-0.9,0C0.5,12,0,12.5,0,13.1s0.5,1.2,1.2,1.2h5.3v1
			C6.5,16.2,7.2,17,8,17c0.8,0,1.5-0.8,1.5-1.7v-1h5.3c0.7,0,1.2-0.5,1.2-1.2C16,12.5,15.5,12,14.8,12L14.8,12z"/>
	</g>
</g>
</svg>
