<?xml version="1.0" encoding="utf-8"?>
<svg version="1.1" id="Layer_1" xmlns="http://www.w3.org/2000/svg" xmlns:xlink="http://www.w3.org/1999/xlink" x="0px"
     y="0px"
     viewBox="0 0 18.1 19" style="enable-background:new 0 0 18.1 19;" xml:space="preserve">
    <title>Bug</title>
    <g id="Page-1">
	<g>
		<g id="Page-1-Copy-48" transform="translate(1.425373, 0.820802)">
			<g id="Clip-2">
			</g>
            <defs>
				<filter id="Adobe_OpacityMaskFilter" filterUnits="userSpaceOnUse" x="-1.4" y="-0.8" width="18.1"
                        height="19">
					<feColorMatrix type="matrix" values="1 0 0 0 0  0 1 0 0 0  0 0 1 0 0  0 0 0 1 0"/>
				</filter>
			</defs>
            <mask maskUnits="userSpaceOnUse" x="-1.4" y="-0.8" width="18.1" height="19" id="mask-2_1_">
				<g class="st0">
					<polygon id="path-1_1_" class="st1"
                             points="7.6,18.2 16.7,18.2 16.7,-0.8 7.6,-0.8 -1.4,-0.8 -1.4,18.2 					"/>
				</g>
			</mask>
            <path id="Fill-1" class="st2" d="M13.7,7.1c0-0.5-0.1-0.9-0.3-1.3l0.3-0.3c1.4-1.5,2.1-2.3,2.1-4.7V0.4c0-0.2-0.2-0.4-0.4-0.4
				C15.2,0,15,0.2,15,0.4v0.4c0,2.1-0.5,2.7-1.9,4.1L13.1,5c-0.1-0.2-0.3-0.4-0.4-0.6c-0.5-0.5-1.1-0.9-1.8-1.2
				c-0.1-0.5-0.3-1-0.6-1.4c0.9-0.4,2.2-1.1,2.2-2v-0.3c0-0.2-0.2-0.4-0.4-0.4c-0.2,0-0.4,0.2-0.4,0.4v0.3c0,0.4-1,1-2,1.4
				c-0.6-0.5-1.3-0.8-2-0.8c-0.8,0-1.5,0.3-2.1,0.8c-1-0.4-2.1-1-2.1-1.4v-0.3c0-0.2-0.2-0.4-0.4-0.4c-0.2,0-0.4,0.2-0.4,0.4v0.3
				c0,0.9,1.4,1.6,2.3,2C4.7,2.3,4.5,2.8,4.4,3.2C3.7,3.5,3.1,3.9,2.7,4.4C2.5,4.6,2.3,4.9,2.2,5.2L2,5C0.5,3.3,0.2,3,0.2,0.8V0.4
				C0.2,0.2,0,0-0.2,0s-0.4,0.2-0.4,0.4v0.4c0,2.5,0.5,3.1,2,4.7l0.3,0.3c0.1,0.1,0.1,0.1,0.2,0.1C1.7,6.3,1.7,6.6,1.6,7
				c-2.1,0.6-3,2.1-3,4.8v0.7c0,0.2,0.2,0.4,0.4,0.4s0.4-0.2,0.4-0.4v-0.7c0-2.2,0.6-3.3,2.2-3.9c0,0.5,0.1,1,0.1,1.6
				c0,0.1,0,0.1,0,0.2c0,0-0.1,0.1-0.1,0.1l-0.1,0.4C0.4,13.1,0,13.8,1.1,17c0.1,0.2,0.2,0.3,0.4,0.3c0,0,0.1,0,0.1,0
				C1.8,17.2,2,17,1.9,16.8C1,14.1,1.1,13.4,2,11.1c1,4.1,3.2,7.1,5.5,7.1c0,0,0.1,0,0.1,0c0,0,0.1,0,0.1,0c2.2,0,4.5-3,5.5-7
				c0.9,2.2,1,2.9,0.1,5.6c-0.1,0.2,0,0.4,0.3,0.5c0,0,0.1,0,0.1,0c0.2,0,0.3-0.1,0.4-0.3c1.1-3.2,0.7-4-0.4-6.8l-0.1-0.4
				c0,0,0-0.1-0.1-0.1c0-0.1,0-0.2,0-0.3C13.7,9,13.7,8.4,13.7,8c1.5,0.6,2.1,1.7,2.1,3.9v0.7c0,0.2,0.2,0.4,0.4,0.4
				s0.4-0.2,0.4-0.4v-0.7C16.7,9.2,15.7,7.8,13.7,7.1"/>
		</g>
	</g>
</g>
</svg>
