<?xml version="1.0" encoding="utf-8"?>
<svg version="1.1" id="Layer_1" xmlns="http://www.w3.org/2000/svg" xmlns:xlink="http://www.w3.org/1999/xlink" x="0px"
     y="0px"
     viewBox="0 0 15 15" style="enable-background:new 0 0 15 15;" xml:space="preserve">
    <title>Edit Icon</title>
  <g>
		<path id="Page-1-Copy-23" class="st0" d="M13.8,15H1.2C0.6,15,0,14.5,0,13.8V1.3C0,0.6,0.6,0,1.2,0h8L8,1.3H1.2v12.5h12.5l0-6.8
			L15,5.8v8c0,0.3-0.1,0.6-0.4,0.9C14.4,14.9,14.1,15,13.8,15L13.8,15z M6.3,11.9l-3.1,0l0-3.1l8.5-8.4h0C11.8,0.1,12.1,0,12.5,0
			c0.3,0,0.6,0.1,0.9,0.4l1.3,1.3v0C14.9,1.9,15,2.2,15,2.5c0,0.3-0.1,0.6-0.4,0.9L6.3,11.9z M4.4,10.6h1.9L4.4,8.8V10.6z M12.5,1.2
			L5.6,8.1l1.2,1.2l6.9-6.8L12.5,1.2z"/>
	</g>
</svg>
