<?xml version="1.0" encoding="utf-8"?>
<svg version="1.1" id="Layer_1" xmlns="http://www.w3.org/2000/svg" xmlns:xlink="http://www.w3.org/1999/xlink" x="0px"
     y="0px"
     viewBox="0 0 19 12.8" style="enable-background:new 0 0 19 12.8;" xml:space="preserve">
    <title>Email Icon</title>
  <g>
		<path id="Page-1-Copy-17" class="st0" d="M1.3,0C0.6,0,0,0.6,0,1.3v10.2c0,0.7,0.6,1.3,1.3,1.3h16.4c0.7,0,1.3-0.6,1.3-1.3V1.3
			C19,0.6,18.4,0,17.7,0H1.3z M1.6,0.9h15.9L9.9,7.8C9.7,8,9.3,8,9.1,7.8L1.6,0.9z M0.9,1.5l5.4,4.9l-5.4,5V1.5z M18.1,1.5v9.9
			l-5.4-5L18.1,1.5z M6.9,7l1.6,1.5c0.6,0.5,1.4,0.5,2,0L12.1,7l5.3,5H1.5L6.9,7z"/>
	</g>
</svg>
