<?xml version="1.0" encoding="utf-8"?>
<svg version="1.1" id="Layer_1" xmlns="http://www.w3.org/2000/svg" xmlns:xlink="http://www.w3.org/1999/xlink" x="0px"
     y="0px"
     viewBox="0 0 26 13" style="enable-background:new 0 0 26 13;" xml:space="preserve">
    <title>Graph Icon</title>
  <g id="Page-1-Copy-32" transform="translate(1.671053, 1.592105)">
			<path id="Fill-1" class="st0" d="M23.8-1.1c-0.7-0.7-1.7-0.7-2.4,0l-6.7,7l-4.3-4.5L8-1L5.6,1.4l-6.7,7c-0.7,0.7-0.7,1.8,0,2.5
				c0.7,0.7,1.7,0.7,2.4,0l6.7-7l4.3,4.5l2.4,2.5l2.4-2.5l6.7-7C24.5,0.7,24.5-0.4,23.8-1.1"/>
    <path id="Fill-3" class="st0" d="M19.6,8.6c0,1.3,1,2.3,2.2,2.3c1.2,0,2.2-1,2.2-2.3c0-1.3-1-2.3-2.2-2.3
				C20.6,6.3,19.6,7.3,19.6,8.6z"/>
		</g>
</svg>
