<?xml version="1.0" encoding="utf-8"?>
<svg version="1.1" id="Layer_1" xmlns="http://www.w3.org/2000/svg" xmlns:xlink="http://www.w3.org/1999/xlink" x="0px"
     y="0px"
     viewBox="0 0 23 23" style="enable-background:new 0 0 23 23;" xml:space="preserve">
    <title>Info Circled Icon</title>
  <g id="Group-3-Copy-3" transform="translate(1.750000, 2.000000)">
			<g id="Page-1" transform="translate(8.555556, 4.671441)">
				<path id="Fill-1" class="st0" d="M2.7,11.4h-3.2V4.6h3.2V11.4z M1.1,2.1C0.4,2.1-0.3,1.6-0.6,1C-0.8,0.3-0.7-0.5-0.2-1
					c0.5-0.5,1.3-0.7,1.9-0.4c0.7,0.3,1.1,0.9,1.1,1.6c0,0.5-0.2,0.9-0.5,1.3C2,1.9,1.5,2.1,1.1,2.1L1.1,2.1z"/>
			</g>
    <path class="st1" d="M9.8,21C3.4,21-1.8,15.8-1.8,9.5S3.4-2,9.8-2c6.3,0,11.5,5.2,11.5,11.5S16.1,21,9.8,21z M9.8-1
				C4-1-0.8,3.7-0.8,9.5S4,20,9.8,20c5.8,0,10.5-4.7,10.5-10.5S15.5-1,9.8-1z"/>
		</g>
</svg>
