<?xml version="1.0" encoding="UTF-8"?>
<svg width="19px" height="14px" viewBox="0 0 19 14" version="1.1" xmlns="http://www.w3.org/2000/svg"
     xmlns:xlink="http://www.w3.org/1999/xlink">
    <title>Letter Icon</title>
        <g id="17_letter">
            <path d="M1.32620686,0.68 C0.599202365,0.68 0,1.27920237 0,2.00620686 L0,12.1737928 C0,12.9007973 0.599202365,13.4999997 1.32620686,13.4999997 L17.6827582,13.4999997 C18.4097627,13.4999997 19.0089651,12.9007973 19.0089651,12.1737928 L19.0089651,2.00620686 C19.0089651,1.27920237 18.4097627,0.68 17.6827582,0.68 L1.32620686,0.68 Z M1.561056,1.56413791 L17.4479091,1.56413791 L9.88433028,8.50594671 C9.70387552,8.67172257 9.30497681,8.67172257 9.12452427,8.50594671 L1.561056,1.56413791 Z M0.88413791,2.14435341 L6.23737192,7.05551847 L0.88413791,12.0219421 L0.88413791,2.14435341 Z M18.1248272,2.14435341 L18.1248272,12.0219421 L12.7715931,7.05551847 L18.1248272,2.14435341 Z M6.88655018,7.65651121 L8.52357573,9.15539021 C9.07529989,9.66136023 9.93353256,9.66136023 10.4852567,9.15539021 L12.1222823,7.65651121 L17.4615911,12.6160828 L1.54710872,12.6160828 L6.88655018,7.65651121 Z"
                  id="Page-1-Copy-51"></path>
        </g>
</svg>