<?xml version="1.0" encoding="utf-8"?>
<svg version="1.1" id="Layer_1" xmlns="http://www.w3.org/2000/svg" xmlns:xlink="http://www.w3.org/1999/xlink" x="0px"
     y="0px"
     viewBox="0 0 18.9 13" style="enable-background:new 0 0 18.9 13;" xml:space="preserve">
    <title>Megaphone Icon</title>
  <g>
		<path id="Fill-1-Copy-3" class="st0" d="M11.1,11.7c0,0.1,0,0.2-0.2,0.2H5.7c-0.1,0-0.2,0-0.2-0.2V9.4l5.6,1.2L11.1,11.7
			L11.1,11.7z M18.7,0.1C18.6,0,18.5,0,18.3,0L1.7,3.6V3.5C1.7,3.2,1.5,3,1.2,3H0.5C0.2,3,0,3.2,0,3.5v5.2C0,9,0.2,9.2,0.5,9.2h0.7
			c0.3,0,0.5-0.2,0.5-0.5V8.5l2.7,0.6v2.6c0,0.5,0.4,1.3,1.3,1.3h5.2c0.5,0,1.3-0.3,1.3-1.3v-0.9l6.1,1.3c0,0,0.1,0,0.1,0
			c0.1,0,0.2,0,0.3-0.1c0.1-0.1,0.2-0.2,0.2-0.4V0.5C18.9,0.3,18.8,0.2,18.7,0.1L18.7,0.1z"/>
	</g>
</svg>
