<?xml version="1.0" encoding="utf-8"?>
<svg version="1.1" id="Layer_1" xmlns="http://www.w3.org/2000/svg" xmlns:xlink="http://www.w3.org/1999/xlink" x="0px"
     y="0px"
     viewBox="0 0 19 19" style="enable-background:new 0 0 19 19;" xml:space="preserve">
    <title>Circled Minimise Icon</title>
  <g>
		<g id="Page-1-Copy-18" transform="translate(1.500000, 1.000000)">
			<polygon id="Fill-1" class="st0" points="1.2,9.1 14.8,9.1 14.8,7.9 1.2,7.9 			"/>
      <path id="Fill-2" class="st0" d="M14.7,1.8C12.9,0,10.5-1,8-1S3.1,0,1.3,1.8C-0.5,3.6-1.5,6-1.5,8.5s1,4.9,2.8,6.7
				C3.1,17,5.5,18,8,18s4.9-1,6.7-2.8c1.8-1.8,2.8-4.2,2.8-6.7C17.5,6,16.5,3.6,14.7,1.8z M13.9,14.4c-1.6,1.6-3.7,2.4-5.9,2.4
				s-4.3-0.9-5.9-2.4c-1.6-1.6-2.4-3.7-2.4-5.9s0.9-4.3,2.4-5.9C3.7,1.1,5.8,0.2,8,0.2s4.3,0.9,5.9,2.4c1.6,1.6,2.4,3.7,2.4,5.9
				S15.4,12.8,13.9,14.4z"/>
		</g>
	</g>
</svg>
