<?xml version="1.0" encoding="utf-8"?>
<svg version="1.1" id="Layer_1" xmlns="http://www.w3.org/2000/svg" xmlns:xlink="http://www.w3.org/1999/xlink" x="0px"
     y="0px"
     viewBox="0 0 12.7 17" style="enable-background:new 0 0 12.7 17;" xml:space="preserve">
    <title>Padlock Icon</title>
  <g id="Page-1-Copy-50" transform="translate(0.925373, 1.320802)">
			<g id="Clip-2">
			</g>
    <defs>
				<filter id="Adobe_OpacityMaskFilter" filterUnits="userSpaceOnUse" x="-0.9" y="-1.3" width="12.7"
                height="17">
					<feColorMatrix type="matrix" values="1 0 0 0 0  0 1 0 0 0  0 0 1 0 0  0 0 0 1 0"/>
				</filter>
			</defs>
    <mask maskUnits="userSpaceOnUse" x="-0.9" y="-1.3" width="12.7" height="17" id="mask-2_1_">
				<g class="st0">
					<polygon id="path-1_1_" class="st1"
                   points="11.8,-1.3 -0.9,-1.3 -0.9,15.7 11.8,15.7 					"/>
				</g>
			</mask>
    <path id="Fill-1" class="st2" d="M7.9,3.7v3h-5v-3h0c0-0.1,0-0.1,0-0.1c0-1.4,1.1-2.5,2.5-2.5s2.5,1.1,2.5,2.5
				C7.9,3.6,7.9,3.7,7.9,3.7L7.9,3.7z M10.9,6.7h-0.6v-3h0c0-0.1,0-0.1,0-0.1c0-2.7-2.2-4.9-4.9-4.9c-2.7,0-4.9,2.2-4.9,4.9
				c0,0.1,0,0.1,0,0.1h0v3H0c-0.5,0-0.9,0.4-0.9,0.9v7.2c0,0.5,0.4,0.9,0.9,0.9h10.9c0.5,0,0.9-0.4,0.9-0.9V7.6
				C11.8,7.1,11.4,6.7,10.9,6.7L10.9,6.7z"/>
		</g>
</svg>
