<?xml version="1.0" encoding="UTF-8"?>
<svg width="13px" height="14px" viewBox="0 0 13 14" version="1.1" xmlns="http://www.w3.org/2000/svg"
     xmlns:xlink="http://www.w3.org/1999/xlink">
  <title>Pen Icon</title>
  <defs>
    <polygon id="path-1"
             points="4.67535838 4.48044247 4.67535838 0.000745738636 0.0357820827 0.000745738636 0.0357820827 4.48044247 4.67535838 4.48044247"></polygon>
    <polygon id="path-3" points="4.3277596 4.375 0 4.375 0 0.00901349432 4.3277596 0.00901349432"></polygon>
  </defs>
  <g id="Page-1" stroke="none" stroke-width="1" fill="none" fill-rule="evenodd">
    <g id="05_purplepen">
      <g id="Page-1" transform="translate(0.000000, 0.500000)">
        <g id="Group-3" transform="translate(8.108836, 0.048970)">
          <mask id="mask-2" fill="white">
            <use xlink:href="#path-1"></use>
          </mask>
          <g id="Clip-2"></g>
          <path d="M1.58992654,0.0872961648 C1.33850348,0.179767756 0.881410838,0.526585938 0.584283421,0.850286222 L0.0357820827,1.45145099 L1.47566567,2.97748082 C2.27559008,3.80987429 3.05266231,4.48044247 3.21267668,4.48044247 C3.62406497,4.48044247 4.67536329,3.13940554 4.67536329,2.60754474 C4.67536329,2.07573366 3.02981013,0.179767756 2.4355553,0.0410603693 C2.20703355,-0.0282933239 1.81844829,-0.00517542614 1.58992654,0.0872961648"
                id="Fill-1" fill="#AA9DCC" mask="url(#mask-2)"></path>
        </g>
        <path d="M2.27078375,7.4195625 L3.80207604,8.96866051 L5.33341747,10.5177585 L7.57322546,8.41373153 C8.83024251,7.2576875 9.9501465,6.10164347 10.0644074,5.84734659 C10.2930274,5.4542429 10.1101609,5.19989631 8.875996,3.92821307 C8.07602245,3.11898722 7.36750674,2.44841903 7.29895022,2.44841903 C7.23039369,2.44841903 6.0647362,3.55827699 4.71631046,4.94559943 L2.27078375,7.4195625 Z"
              id="Fill-4" fill="#AA9DCC"></path>
        <g id="Group-8" transform="translate(0.000000, 8.450959)">
          <mask id="mask-4" fill="white">
            <use xlink:href="#path-3"></use>
          </mask>
          <g id="Clip-7"></g>
          <path d="M0.51095497,2.20551207 C-0.334673785,4.79506463 -0.403279454,4.72571094 2.45363555,3.75461009 L4.3277596,3.13037713 L2.77361514,1.55816122 L1.21947068,0.00901349432 L0.51095497,2.20551207 Z"
                id="Fill-6" fill="#AA9DCC" mask="url(#mask-4)"></path>
        </g>
      </g>
    </g>
  </g>
</svg>