<?xml version="1.0" encoding="utf-8"?>
<svg version="1.1" id="Layer_1" xmlns="http://www.w3.org/2000/svg" xmlns:xlink="http://www.w3.org/1999/xlink" x="0px"
     y="0px"
     viewBox="0 0 16.9 16.9" style="enable-background:new 0 0 16.9 16.9;" xml:space="preserve">
    <title>Person Icon</title>
  <path class="st0" d="M8.5,9.8c-2.8,0-5-2.2-5-4.9S5.7,0,8.5,0s5,2.2,5,4.9S11.2,9.8,8.5,9.8z M8.5,1.5C6.5,1.5,4.9,3,4.9,4.9
	s1.6,3.4,3.5,3.4S12,6.8,12,4.9S10.4,1.5,8.5,1.5z"/>
  <rect x="0.2" y="15.4" class="st0" width="16.5" height="1.5"/>
  <path class="st0" d="M1.5,16.9c0-0.1,0-0.2,0-0.3c0-3.7,3.1-6.8,7-6.8s7,3,7,6.8c0,0.1,0,0.2,0,0.3h1.5c0-0.1,0-0.2,0-0.3
	c0-4.6-3.8-8.3-8.5-8.3S0,12,0,16.6c0,0.1,0,0.2,0,0.3H1.5z"/>
</svg>
