<?xml version="1.0" encoding="utf-8"?>
<svg version="1.1" id="Layer_1" xmlns="http://www.w3.org/2000/svg" xmlns:xlink="http://www.w3.org/1999/xlink" x="0px"
     y="0px"
     viewBox="0 0 14.4 14.5" style="enable-background:new 0 0 14.4 14.5;" xml:space="preserve">
    <title>Phone Icon</title>
  <g>
		<path id="Page-1-Copy-21" class="st0" d="M0.1,2.4l2.2-2.2c0.3-0.2,0.7-0.3,0.9,0l2,3.4c0.1,0.3,0.2,0.6,0,0.9L4.6,5.1
			c-0.6,0.6-0.6,1.6,0,2.2C5.4,8.2,6.3,9,7.1,9.9c0.6,0.6,1.6,0.6,2.2,0L10,9.2c0.3-0.2,0.6-0.1,0.9,0.1l3.4,2
			c0.3,0.2,0.2,0.6,0,0.9L12,14.3C8,15.6-1,6.4,0.1,2.4L0.1,2.4z"/>
	</g>
</svg>
