<?xml version="1.0" encoding="utf-8"?>
<svg version="1.1" id="Layer_1" xmlns="http://www.w3.org/2000/svg" xmlns:xlink="http://www.w3.org/1999/xlink" x="0px"
     y="0px"
     viewBox="0 0 17.6 22" style="enable-background:new 0 0 17.6 22;" xml:space="preserve">
    <title>Pound Border Icon</title>
  <g id="Group-12-Copy-2" transform="translate(1.425373, 1.320802)">
			<path class="st0" d="M3.2,9.8c0-0.2,0.1-0.4,0.2-0.6S3.7,9,4,9h0.7V7.3c0-0.5,0.1-1,0.2-1.4S5.3,5,5.6,4.7C5.9,4.3,6.3,4,6.8,3.8
				s1-0.3,1.7-0.3c0.4,0,0.8,0.1,1.2,0.2C10,3.8,10.3,4,10.6,4.2c0.3,0.2,0.5,0.4,0.7,0.7s0.4,0.5,0.5,0.9l-1,0.6
				c-0.2,0.1-0.4,0.2-0.7,0.2S9.8,6.4,9.7,6.2C9.5,6,9.3,5.8,9.1,5.7C8.9,5.6,8.7,5.6,8.5,5.6c-0.4,0-0.8,0.2-1,0.5
				C7.3,6.3,7.2,6.7,7.2,7.3V9h3V10c0,0.1,0,0.2-0.1,0.2c0,0.1-0.1,0.1-0.1,0.2s-0.1,0.1-0.2,0.1c-0.1,0-0.2,0.1-0.3,0.1H7.2v1.2
				c0,0.3-0.1,0.6-0.2,0.9c-0.1,0.3-0.3,0.5-0.5,0.7c0.2-0.1,0.5-0.1,0.7-0.1c0.2,0,0.5,0,0.7,0h4v1c0,0.1,0,0.2-0.1,0.4
				s-0.1,0.2-0.2,0.3c-0.1,0.1-0.2,0.2-0.3,0.2c-0.1,0.1-0.3,0.1-0.4,0.1H3.3v-1.5c0.2,0,0.3-0.1,0.5-0.2c0.2-0.1,0.3-0.2,0.4-0.3
				s0.2-0.2,0.3-0.4s0.1-0.3,0.1-0.5v-1.9H3.2V9.8z"/>
    <path class="st1" d="M16.2,20.7H-1.4v-22h17.6V20.7z M0.6,18.7h13.6v-18H0.6V18.7z"/>
		</g>
</svg>
