<?xml version="1.0" encoding="utf-8"?>
<svg version="1.1" id="Layer_1" xmlns="http://www.w3.org/2000/svg" xmlns:xlink="http://www.w3.org/1999/xlink" x="0px"
     y="0px"
     viewBox="0 0 11 14.7" style="enable-background:new 0 0 11 14.7;" xml:space="preserve">
    <title>Pound Icon</title>
  <g>
		<path class="st0" d="M0,7.9c0-0.3,0.1-0.5,0.3-0.7S0.7,6.9,1,6.9h0.8V4.7c0-0.6,0.1-1.2,0.3-1.8C2.3,2.4,2.6,1.9,3,1.4
			c0.4-0.4,0.9-0.8,1.5-1S5.8,0,6.6,0c0.5,0,1,0.1,1.5,0.2c0.4,0.1,0.8,0.3,1.2,0.6s0.6,0.5,0.9,0.9s0.5,0.7,0.7,1.1L9.6,3.5
			C9.3,3.6,9.1,3.7,8.8,3.7c-0.3,0-0.5-0.1-0.7-0.4C7.8,3,7.6,2.8,7.4,2.7S6.9,2.5,6.6,2.5c-0.5,0-0.9,0.2-1.2,0.6S5,4,5,4.7v2.2
			h3.8v1.2c0,0.1,0,0.2-0.1,0.3c0,0.1-0.1,0.2-0.2,0.2C8.5,8.7,8.4,8.7,8.3,8.8C8.2,8.8,8.1,8.8,8,8.8H5v1.6c0,0.4-0.1,0.8-0.2,1.1
			s-0.4,0.6-0.6,0.9c0.3-0.1,0.6-0.1,0.9-0.2s0.6-0.1,0.9-0.1h5v1.3c0,0.1,0,0.3-0.1,0.4c-0.1,0.2-0.2,0.3-0.3,0.4s-0.3,0.2-0.4,0.3
			c-0.2,0.1-0.3,0.1-0.5,0.1H0.2v-1.9c0.2,0,0.4-0.1,0.6-0.2c0.2-0.1,0.4-0.2,0.5-0.3c0.2-0.1,0.3-0.3,0.4-0.5
			c0.1-0.2,0.1-0.4,0.1-0.6V8.8H0V7.9z"/>
	</g>
</svg>
