<?xml version="1.0" encoding="UTF-8"?>
<svg width="22px" height="20px" viewBox="0 0 22 20" version="1.1" xmlns="http://www.w3.org/2000/svg" xmlns:xlink="http://www.w3.org/1999/xlink">
    <g id="icon_recently_viewed" stroke="none" stroke-width="1" fill-rule="evenodd">
        <path d="M12.4082146,10.0003786 L14.6637779,10.0003786 C15.2866969,10.0003786 15.7915596,10.4933278 15.7915596,11.1112252 C15.7915596,11.7247902 15.2910952,12.2220718 14.6637779,12.2220718 L11.280433,12.2220718 C10.970293,12.2220718 10.6901069,12.0997054 10.4865875,11.9018369 C10.2786516,11.696157 10.1526513,11.4210403 10.1526513,11.1216449 L10.1526513,6.65737452 C10.1526513,6.04987472 10.6531157,5.55694765 11.280433,5.55694765 C11.9033519,5.55694765 12.4082146,6.05769508 12.4082146,6.65737452 L12.4082146,10.0003786 Z M2.36825124,6.42389678 C3.49339388,3.53836161 5.95685246,1.20469503 9.22042701,0.342900226 C14.6346812,-1.08558187 20.2005092,2.07946453 21.6515131,7.4123281 C23.1026523,12.7461692 19.8893542,18.2284194 14.4743106,19.656746 C9.06005646,21.0860946 3.49422844,17.9210482 2.04322456,12.5873182 L4.22214383,12.0128105 C5.35080515,16.1611561 9.67947925,18.6223479 13.8910671,17.5115013 C18.1017526,16.3997882 20.6013679,12.1361145 19.472684,7.98776887 C18.3440227,3.83942326 14.0153486,1.37734281 9.80376079,2.48907811 C7.14106831,3.19204406 5.16316484,5.15510999 4.35341761,7.55209482 L6.90581305,9.00401579 L1.45907878,10.4420512 L0,5.07710634 L2.36825124,6.42389678 Z" id="Fill-1"></path>
    </g>
</svg>
