<?xml version="1.0" encoding="utf-8"?>
<svg version="1.1" id="Layer_1" xmlns="http://www.w3.org/2000/svg" xmlns:xlink="http://www.w3.org/1999/xlink" x="0px"
     y="0px"
     viewBox="0 0 18 17.3" style="enable-background:new 0 0 18 17.3;" xml:space="preserve">
    <title>Search Icon</title>
  <g>
	<g>
		<g transform="translate(2.000000, 2.000000)">
			<path class="st1" d="M4.6,11.3C1,11.3-2,8.3-2,4.6S1-2,4.6-2c3.7,0,6.6,3,6.6,6.6S8.3,11.3,4.6,11.3z M4.6,0C2.1,0,0,2.1,0,4.6
				s2.1,4.6,4.6,4.6s4.6-2.1,4.6-4.6S7.2,0,4.6,0z"/>
      <path class="st1" d="M14,15.3c-0.5,0-1-0.2-1.4-0.6L10,12c-0.8-0.8-0.8-2,0-2.8s2-0.8,2.8,0l2.7,2.7c0.8,0.8,0.8,2,0,2.8
				C15,15.1,14.5,15.3,14,15.3z"/>
		</g>
	</g>
</g>
</svg>
