<?xml version="1.0" encoding="UTF-8"?>
<svg width="22px" height="20px" viewBox="0 0 22 20" version="1.1" xmlns="http://www.w3.org/2000/svg" xmlns:xlink="http://www.w3.org/1999/xlink">
    <g id="icon_snooze_black" stroke="none" stroke-width="1" fill-rule="evenodd">
        <g id="Group-3">
            <path d="M21.4265896,1.03748824 C21.1154338,0.396550858 20.4501572,-0.00853045798 19.7241105,0.000136363626 L14.4137015,0.000136363626 C13.5750742,0.000136363626 12.8964419,0.66277784 12.8964419,1.48164433 C12.8964419,2.30051082 13.5750742,2.9631523 14.4137015,2.9631523 L17.3267264,2.9631523 L13.6936101,7.4076762 C13.2476116,7.95890828 13.1646554,8.71121802 13.4802455,9.34348859 C13.7943675,9.97427764 14.4522399,10.3735811 15.1723314,10.3707077 L20.4827403,10.3707077 C21.3213677,10.3707077 22,9.70805066 22,8.88918417 C22,8.07031768 21.3213677,7.4076762 20.4827403,7.4076762 L17.5697155,7.4076762 L21.2028318,2.9631523 C21.6517889,2.4176981 21.739221,1.6682773 21.4265669,1.03748824 L21.4265896,1.03748824 Z" id="Fill-1"></path>
            <path d="M10.2413512,8.54058534 C10.2398681,7.50756688 9.38049597,6.66844076 8.32254872,6.66699629 L1.51725969,6.66699629 C0.678632328,6.66699629 0,7.32963777 0,8.14850426 C0,8.96737075 0.678632328,9.63001223 1.51725969,9.63001223 L6.1562812,9.63001223 L0.736250265,17.0375521 C0.318396946,17.6090438 0.262106612,18.359909 0.59104472,18.9849202 C0.919982827,19.6084869 1.57934975,20.000568 2.29796187,20.000568 L9.1032509,20.000568 C9.94187826,20.000568 10.6205106,19.3379265 10.6205106,18.51906 C10.6205106,17.7001935 9.94187826,17.0375521 9.1032509,17.0375521 L4.4642294,17.0375521 L9.88426033,9.63001223 C10.1183697,9.31316582 10.2428305,8.93122196 10.2413512,8.54058534 Z" id="Fill-2"></path>
        </g>
    </g>
</svg>
