<?xml version="1.0" encoding="utf-8"?>
<svg version="1.1" id="Layer_1" xmlns="http://www.w3.org/2000/svg" xmlns:xlink="http://www.w3.org/1999/xlink" x="0px"
     y="0px"
     viewBox="0 0 20.9 20.9" style="enable-background:new 0 0 20.9 20.9;" xml:space="preserve">
    <title>Spark Icon</title>
  <g>
	<g>
		<path d="M6.1,20.9l-0.5-5.7L0,14.8l3.7-4.3L0,6.1l5.7-0.5L6.1,0l4.3,3.7L14.8,0l0.5,5.7l5.7,0.5l-3.7,4.3l3.7,4.3
			l-5.7,0.5l-0.5,5.7l-4.3-3.7L6.1,20.9z M10.4,14.6l2.7,2.2l0.3-3.5l3.5-0.3l-2.2-2.7l2.2-2.7l-3.5-0.3L13.1,4l-2.7,2.2L7.8,4
			L7.5,7.5L4,7.8l2.2,2.7L4,13.1l3.5,0.3l0.3,3.5L10.4,14.6z"/>
	</g>
</g>
</svg>
