<?xml version="1.0" encoding="utf-8"?>
<svg version="1.1" id="Layer_1" xmlns="http://www.w3.org/2000/svg" xmlns:xlink="http://www.w3.org/1999/xlink" x="0px"
     y="0px"
     viewBox="0 0 28.5 28.5" style="enable-background:new 0 0 28.5 28.5;" xml:space="preserve">
    <title>User Icon</title>
  <g>
	<g>
		<g transform="translate(0.750000, 0.250000)">
			<path
              d="M18.2,9.8c0,2.6-2.1,4.7-4.7,4.7s-4.7-2.1-4.7-4.7c0-2.6,2.1-4.7,4.7-4.7S18.2,7.2,18.2,9.8"/>
      <path d="M13.5-0.2C5.6-0.2-0.8,6.1-0.8,14s6.4,14.2,14.2,14.2S27.7,21.9,27.7,14S21.4-0.2,13.5-0.2z
				 M20.7,23.5l-1-4.5c-0.4-1.9-2.1-3.2-4-3.2h-4.3c-1.9,0-3.6,1.3-4,3.2l-1,4.5c-2.9-2.2-4.8-5.6-4.8-9.5c0-6.6,5.3-11.9,11.9-11.9
				c6.6,0,11.9,5.3,11.9,11.9C25.4,17.9,23.5,21.3,20.7,23.5L20.7,23.5z"/>
		</g>
	</g>
</g>
</svg>
