<?xml version="1.0" encoding="UTF-8" standalone="no"?>
<svg height="28px" version="1.1" viewBox="0 0 28 28" width="28px" xmlns="http://www.w3.org/2000/svg"
>
    <g fill-rule="evenodd" id="Page-1" stroke-width="1">
        <g id="admin_geocoding_test">
            <circle cx="14" cy="14" fill="none" id="Oval-7" r="13"></circle>
            <g id="Page-1" stroke="none" transform="translate(4.000000, 4.000000)">
                <polygon id="Fill-1"
                         points="3.54053333 14.2082667 1.85946667 12.5290667 7.47386667 12.5290667 7.47386667 18.1405333 5.7928 16.4613333 2.25413333 20 0 17.748"></polygon>
                <polygon id="Fill-2"
                         points="17.7490667 20 20 17.748 16.4613333 14.2082667 18.1405333 12.5290667 12.5301333 12.5290667 12.5290667 18.1405333 14.2082667 16.4613333"></polygon>
                <polygon id="Fill-3"
                         points="20 2.252 17.7490667 0 14.2082667 3.5416 12.5290667 1.8624 12.5290667 7.472 18.1416 7.47386667 16.4594667 5.79173333"></polygon>
                <polygon id="Fill-4"
                         points="1.86053333 7.47386667 7.472 7.47386667 7.47493333 1.85946667 5.79386667 3.5416 2.25413333 0 0 2.2552 3.54053333 5.79173333"></polygon>
                <path d="M10,7.55733333 C8.65093333,7.55733333 7.55733333,8.65093333 7.55733333,10 C7.55733333,11.352 8.65093333,12.4458667 10,12.4458667 C11.3490667,12.4458667 12.4437333,11.352 12.4437333,10 C12.4437333,8.65093333 11.3490667,7.55733333 10,7.55733333 L10,7.55733333 Z"
                      id="Fill-5"></path>
            </g>
        </g>
    </g>
</svg>
