<?xml version="1.0" encoding="UTF-8" standalone="no"?>
<svg height="28px" version="1.1" viewBox="0 0 28 28" width="28px" xmlns="http://www.w3.org/2000/svg"
>
    <g fill-rule="evenodd" id="Page-1" stroke-width="1">
        <g id="admin_module_loader">
            <circle cx="14" cy="14" fill="none" id="Oval-7" r="13"></circle>
            <path d="M16.108489,9.63380282 L17.2458411,6.50974648 C16.8145172,6.352 16.3653904,6.23143662 15.9034186,6.15053521 L15.3258411,9.42602817 C15.5951369,9.47357746 15.8576721,9.54230986 16.108489,9.63380282 L16.108489,9.63380282 Z"
                  id="Fill-1"
                  stroke="none"></path>
            <path d="M19.1647143,14 L19.1647143,14 C19.1647143,16.5651831 17.0847143,18.6451831 14.5195313,18.6451831 C11.9543482,18.6451831 9.87434815,16.5651831 9.87434815,14 C9.87434815,11.4348169 11.9543482,9.3548169 14.5195313,9.3548169 L14.5195313,6.03087324 C10.1181791,6.03087324 6.55040449,9.59864789 6.55040449,14 C6.55040449,18.4013521 10.1181791,21.9691268 14.5195313,21.9691268 C18.9208834,21.9691268 22.488658,18.4013521 22.488658,14 L19.1647143,14 Z"
                  id="Fill-2"
                  stroke="none"></path>
            <path d="M17.5045453,10.4419155 L19.6417848,7.89521127 C19.2870805,7.59774648 18.9069115,7.33002817 18.504658,7.09769014 L16.8417848,9.97791549 C17.076827,10.1135775 17.2985735,10.2683944 17.5045453,10.4419155 L17.5045453,10.4419155 Z"
                  id="Fill-3"
                  stroke="none"></path>
            <path d="M19.0935031,14.1936901 L22.368996,13.6161127 C22.2880946,13.1541408 22.1675313,12.7050141 22.0106862,12.2736901 L18.8857284,13.4110423 C18.9772214,13.6618592 19.0459538,13.9243944 19.0935031,14.1936901 L19.0935031,14.1936901 Z"
                  id="Fill-4"
                  stroke="none"></path>
            <path d="M18.5416158,12.6777465 L21.4218411,11.0148732 C21.1886017,10.6117183 20.9208834,10.2315493 20.62432,9.87774648 L18.0776158,12.0149859 C18.2511369,12.2209577 18.4059538,12.4427042 18.5416158,12.6777465 L18.5416158,12.6777465 Z"
                  id="Fill-5"
                  stroke="none"></path>
        </g>
    </g>
</svg>
