<?xml version="1.0" encoding="UTF-8" standalone="no"?>
<svg height="28px" version="1.1" viewBox="0 0 28 28" width="28px" xmlns="http://www.w3.org/2000/svg"
>
    <g fill-rule="evenodd" id="Page-1" stroke-width="1">
        <g id="admin_scheduler">
            <circle cx="14" cy="14" fill="none" id="Oval-7" r="13"></circle>
            <g id="Page-1" stroke="none" transform="translate(6.519531, 7.000000)">
                <path d="M3.37304348,0.163043478 C1.6023913,0.163043478 0.163043478,1.6023913 0.163043478,3.37304348 L0.163043478,11.6269565 C0.163043478,13.3976087 1.6023913,14.8369565 3.37304348,14.8369565 L11.6269565,14.8369565 C13.3976087,14.8369565 14.8369565,13.3976087 14.8369565,11.6269565 L14.8369565,3.37304348 C14.8369565,1.6023913 13.3976087,0.163043478 11.6269565,0.163043478 L3.37304348,0.163043478 Z M3.37304348,1.08021739 L11.6269565,1.08021739 C12.905,1.08021739 13.9197826,2.095 13.9197826,3.37304348 L13.9197826,11.6269565 C13.9197826,12.905 12.905,13.9197826 11.6269565,13.9197826 L3.37304348,13.9197826 C2.095,13.9197826 1.08021739,12.905 1.08021739,11.6269565 L1.08021739,3.37304348 C1.08021739,2.095 2.095,1.08021739 3.37304348,1.08021739 L3.37304348,1.08021739 Z"
                      id="Fill-1"></path>
                <polygon id="Fill-2"
                         points="7.04152174 2.45586957 7.04152174 8.18782609 10.8932609 11.0767391 11.4436957 10.3430435 7.95847826 7.72934783 7.95847826 2.45586957"></polygon>
            </g>
        </g>
    </g>
</svg>
