<svg width="48" height="48" viewBox="0 0 48 48" fill="#5d21d1" xmlns="http://www.w3.org/2000/svg">
<path fill-rule="evenodd" clip-rule="evenodd" d="M47.7008 11.4484C47.7544 11.4608 47.8049 11.4844 47.8489 11.5175C47.8929 11.5506 47.9294 11.5926 47.9561 11.6407C47.9795 11.6862 47.9944 11.7356 47.9999 11.7864C48.0001 11.8341 47.9907 11.8813 47.9724 11.9253C47.9541 11.9694 47.9273 12.0093 47.8934 12.0429C47.8496 12.0852 47.8073 12.107 47.765 12.1493C47.7227 12.1915 47.7008 12.1915 47.6585 12.2134L30.8262 21.9764C30.4458 22.1902 30.1158 22.4829 29.8583 22.8348C29.6008 23.1867 29.4218 23.5897 29.3334 24.0165C29.0547 24.8908 29.9302 26.4237 30.4001 27.2325L33.6425 32.9417C33.8092 33.2132 33.9179 33.5162 33.9618 33.8316C34.0058 34.1471 33.984 34.4682 33.8979 34.7748C33.7205 35.3496 33.3322 35.8362 32.8107 36.1373L29.5669 38.0549C29.0529 38.3569 28.4443 38.4557 27.861 38.3318C27.5568 38.254 27.2722 38.1133 27.0259 37.9188C26.7795 37.7242 26.5769 37.4802 26.431 37.2024L26.2398 36.8833C25.9871 36.4616 25.8244 35.9923 25.7619 35.5048C25.6993 35.0174 25.7383 34.5223 25.8765 34.0506L30.975 14.9208C31.3165 13.6429 31.9965 12.7059 33.0661 12.0881L36.8426 9.87316C37.2679 9.62785 37.7279 9.44805 38.207 9.33984C38.9098 9.20801 39.634 9.24447 40.32 9.44621C43.647 10.2724 47.7008 11.4484 47.7008 11.4484Z"/>
<path fill-rule="evenodd" clip-rule="evenodd" d="M0.297697 11.4485C0.244098 11.4611 0.193716 11.4847 0.149752 11.5178C0.105788 11.5509 0.0692058 11.5928 0.0423312 11.6408C0.0196559 11.6865 0.0053285 11.7358 1.66422e-05 11.7865C-0.00044624 11.8343 0.0087512 11.8816 0.0270566 11.9256C0.0453621 11.9697 0.0723951 12.0096 0.106538 12.043C0.148856 12.0853 0.191177 12.1071 0.233495 12.1494C0.275813 12.1916 0.2977 12.1916 0.341477 12.2135L17.1723 21.9766C17.5525 22.1907 17.8825 22.4835 18.1402 22.8353C18.3979 23.1872 18.5773 23.5899 18.6665 24.0166C18.9438 24.8909 18.0683 26.4239 17.5998 27.2326L14.3574 32.9418C14.1905 33.2132 14.0815 33.5161 14.0373 33.8316C13.9931 34.147 14.0147 34.4682 14.1006 34.7749C14.2786 35.3498 14.6674 35.8364 15.1892 36.1374L18.4316 38.055C18.9455 38.3571 19.5542 38.4558 20.1374 38.3319C20.4418 38.2544 20.7264 38.1138 20.9728 37.9192C21.2192 37.7246 21.4218 37.4805 21.5675 37.2026L21.7601 36.8834C22.0122 36.4615 22.1745 35.9921 22.2368 35.5047C22.2991 35.0173 22.26 34.5223 22.122 34.0507L17.0234 14.9209C16.682 13.643 16.002 12.706 14.9324 12.0882L11.1573 9.87327C10.7316 9.6277 10.2711 9.44789 9.79148 9.33995C9.08913 9.20797 8.36544 9.24442 7.67997 9.44632C4.35145 10.2725 0.297697 11.4485 0.297697 11.4485Z" />
</svg>
